<?xml version="1.0" encoding="utf-8"?>
<!-- Generator: Adobe Illustrator 19.2.1, SVG Export Plug-In . SVG Version: 6.00 Build 0)  -->
<svg version="1.1" id="Слой_1" xmlns="http://www.w3.org/2000/svg" xmlns:xlink="http://www.w3.org/1999/xlink" x="0px" y="0px"
	 viewBox="0 0 600 600" style="enable-background:new 0 0 600 600;" xml:space="preserve">
<style type="text/css">
	.st0{fill:#005775;}
	.st1{fill:#A64B35;}
	.st2{fill:#E4E4E4;}
	.st3{fill:#AFAFAF;}
</style>
<g id="Layer_1">
</g>
<g id="Layer_2">
	<path class="st0" d="M170.4,71.1l3.4,2.5l0.8,3.9l-0.8,5.8l0.1,2.4l22.7-2.3l5.6,5.5l5.6,4.8l3,2.6l4,0.2l0.5-0.3l-0.6-4.1l1.3-2.3
		l3-0.4l1.9,1.3l2.3,2.7l0.3,0.6l8.1-4.5L231,86l0.8-1.8c0,0,2.2-0.8,2.3-0.8s3.8,0.9,3.8,0.9v-1.8l-0.2-2.6l-1.9-2.4L219.4,67
		l-10.5-5.8l-7.4-2.1l-4.7,0.9l-3.4,2.9l-1.8,4.4l-1.5,0.8L170.4,71.1z"/>
	<polygon class="st0" points="71.9,122 70.7,123.1 67.3,122.7 63.3,120 54.3,112.2 48,103.3 46.1,93.2 48.6,86.3 53.6,82.9 
		61.3,83.1 65.6,85 68.8,84.8 110.9,78.9 113.8,81.8 116.3,85.7 117,93.3 115.9,94.3 104.1,96.1 88.2,98.5 88.1,99.5 90.7,101 
		95,103.4 95.9,107 95.3,109 90.3,105.7 86.6,107.5 85.7,110.8 86.4,113.2 79.2,117 74.9,113.7 71.8,113.5 69.5,115.3 68.6,117.8 
		71.8,121.2 	"/>
	<polygon class="st0" points="504.8,198.6 501.5,202.8 503.6,207.8 505.2,212.8 502.5,214 504.1,217.3 504.6,221.1 499.4,223.5 
		498.8,224.4 499.2,230 500.6,233.7 503.8,233.3 505.6,234.8 509.3,234.8 515.4,233.7 518.9,231.3 520.6,226.4 522.8,218.7 
		524.6,210.1 522.4,203.7 517.4,201 512.3,199.5 	"/>
	<polygon class="st0" points="408.5,221 404.4,223.4 402.4,225 402.4,228.5 404.1,238.6 404,247 405,248.4 408.3,248.4 417.5,250.6 
		426.5,252.8 432.9,253.5 438.4,252.4 448,249.9 450.8,248.8 453.4,238.1 453,231.1 451.1,227.1 446.6,227.3 436.6,229.8 430,230.8 
		422.8,228 410.9,221.9 	"/>
	<path class="st1" d="M426.4,230.4c-0.1,0-0.2,0-0.3-0.1c-0.8-0.4-1.8-0.8-2.7-1.2c-0.3-0.1-0.5-0.4-0.5-0.7l-3.8-29.5l-18.1-5.8
		l4.9,29.4c0.1,0.4-0.2,0.9-0.6,1c-0.5,0.2-0.8,0.3-0.9,0.3c-0.2,0.1-0.4,0.1-0.6,0l-1.7-0.5c-0.3-0.1-0.6-0.4-0.6-0.7l-5.2-31
		l-18.1-5.7l6.4,31.1c0.1,0.3,0,0.6-0.3,0.8c-0.2,0.2-0.6,0.3-0.9,0.2l-2.8-0.8c-0.3-0.1-0.6-0.4-0.6-0.7l-6.6-32.1l-18-5.7
		l7.7,32.1c0.1,0.3,0,0.6-0.3,0.9c-0.2,0.2-0.6,0.3-0.9,0.2l-2.8-0.8c-0.3-0.1-0.6-0.3-0.6-0.7l-7.9-33.3l-18-5.7l8.9,33.2
		c0.1,0.3,0,0.6-0.2,0.9c-0.2,0.2-0.6,0.3-0.9,0.2l-2.9-0.8c-0.3-0.1-0.5-0.3-0.6-0.6l-9.3-34.4l-17.9-5.7l10.2,34.3
		c0.1,0.3,0,0.7-0.2,0.9s-0.6,0.3-0.9,0.2l-2.9-0.8c-0.3-0.1-0.5-0.3-0.6-0.6l-10.6-35.6l-17.8-5.7l11.5,35.3c0.1,0.3,0,0.7-0.2,0.9
		s-0.6,0.3-0.9,0.2l-3-0.8c-0.3-0.1-0.5-0.3-0.6-0.6l-11.9-36.7l-13.3-4.2l11.2,35.9c0.1,0.3,0,0.7-0.2,0.9s-0.6,0.3-0.9,0.2l-8.6-3
		c-0.3-0.1-0.5-0.3-0.5-0.6l-25-72.5c-0.2-0.5,0.1-1,0.6-1.1c0.5-0.2,1,0.1,1.1,0.6l24.9,72l6.4,2.3l-11.1-35.8
		c-0.1-0.3,0-0.7,0.2-0.9s0.6-0.3,0.9-0.2l15.4,4.9c0.3,0.1,0.5,0.3,0.6,0.6l11.9,36.7l0.9,0.2l-11.5-35.4c-0.1-0.3,0-0.7,0.2-0.9
		s0.6-0.3,0.9-0.2l20,6.3c0.3,0.1,0.5,0.3,0.6,0.6l10.6,35.5l0.9,0.2L307.8,163c-0.1-0.3,0-0.7,0.2-0.9s0.6-0.3,0.9-0.2l20,6.3
		c0.3,0.1,0.5,0.3,0.6,0.6l9.3,34.4l0.8,0.2l-9-33.3c-0.1-0.3,0-0.7,0.2-0.9s0.6-0.3,0.9-0.2l20,6.3c0.3,0.1,0.5,0.3,0.6,0.6
		l7.9,33.3l0.8,0.2l-7.7-32.2c-0.1-0.3,0-0.6,0.3-0.9c0.2-0.2,0.6-0.3,0.9-0.2l20,6.4c0.3,0.1,0.5,0.4,0.6,0.7l6.6,32.1l0.8,0.2
		l-6.4-31.1c-0.1-0.3,0-0.6,0.3-0.8c0.2-0.2,0.6-0.3,0.9-0.2l20.1,6.4c0.3,0.1,0.6,0.4,0.6,0.7l5.2,31l0.8,0.2l-5-30
		c-0.1-0.3,0.1-0.6,0.3-0.8c0.2-0.2,0.6-0.3,0.9-0.2l20.1,6.4c0.3,0.1,0.6,0.4,0.6,0.7l3.8,29.6c0.3,0.1,0.5,0.2,0.8,0.3l-3.7-28.9
		c0-0.3,0.1-0.6,0.3-0.8c0.2-0.2,0.6-0.3,0.8-0.2l20.1,6.4c0.3,0.1,0.6,0.4,0.6,0.8l1.9,22.1c0.3,0,0.5-0.1,0.7-0.1l-1.8-21
		c0-0.3,0.1-0.6,0.3-0.8c0.2-0.2,0.5-0.2,0.8-0.2l20.1,6.4c0.4,0.1,0.6,0.4,0.6,0.8l0.4,10.8l0.7-0.2l-0.4-9.7
		c0-0.3,0.1-0.6,0.4-0.7c0.2-0.2,0.5-0.2,0.8-0.1l18.6,5.9l3.8-1.7h-0.1c-0.4-0.1-0.6-0.5-0.6-0.9l0.2-13c0-0.3,0.1-0.6,0.4-0.7
		c0.2-0.2,0.5-0.2,0.8-0.1l10,3.3c0-0.1-0.1-0.2-0.1-0.3c-0.3-0.7-0.6-1.6-0.2-2.8c0.4-1.1,1.3-1.9,2-2.5l0,0l-246.3-80
		c-0.2-0.1-0.4-0.2-0.5-0.5l-6.8-14.1c-0.2-0.4,0-1,0.4-1.2s1,0,1.2,0.4l6.6,13.8L503.9,198c0.3,0.1,1.1,0.4,1.3,1.1
		c0.1,0.8-0.5,1.3-1.1,1.8c-0.5,0.4-1.2,1-1.4,1.6c-0.2,0.6-0.1,1,0.2,1.6c0.2,0.5,0.5,1.1,0.5,2c0,0.4-0.1,0.7-0.4,0.9
		c-0.5,0.4-1.2,0.1-1.7-0.1c-0.1,0-0.2-0.1-0.3-0.1l-9.1-3l-0.2,11.1l1.7,0.5c0.4,0.1,0.6,0.4,0.6,0.8c0,0.4-0.2,0.7-0.5,0.9
		l-6.2,2.9c-0.2,0.1-0.4,0.1-0.7,0l-17.7-5.6l0.3,9.2c0,0.4-0.3,0.8-0.7,0.9l-2.5,0.6c-0.3,0.1-0.5,0-0.8-0.2
		c-0.2-0.2-0.3-0.4-0.4-0.7l-0.4-11.3l-18.2-5.8l1.7,20.5c0,0.5-0.3,0.9-0.8,1c-0.8,0.1-1.6,0.3-2.5,0.4c-0.2,0-0.5,0-0.7-0.2
		s-0.3-0.4-0.3-0.6l-1.9-22.5l-18.2-5.8l3.7,29c0,0.3-0.1,0.6-0.3,0.8C426.8,230.3,426.6,230.4,426.4,230.4z M488.2,216
		c-0.1,0-0.2,0-0.3,0l-20.4-6.4c-0.4-0.1-0.6-0.4-0.6-0.8l-0.5-13.5c0-0.3,0.1-0.6,0.4-0.8c0.2-0.2,0.5-0.2,0.8-0.1l21.1,6.9
		c0.4,0.1,0.6,0.5,0.6,0.9l-0.2,13c0,0.3-0.1,0.5-0.4,0.7C488.6,215.9,488.4,216,488.2,216z M468.7,208l18.6,5.8l0.2-11.1l-19.2-6.2
		L468.7,208z M465.2,208.8c-0.1,0-0.2,0-0.3,0l-20.4-6.4c-0.3-0.1-0.6-0.4-0.6-0.8l-1.2-13.9c0-0.3,0.1-0.6,0.3-0.8
		c0.2-0.2,0.5-0.2,0.8-0.1l21,6.8c0.4,0.1,0.6,0.4,0.6,0.8l0.5,13.5c0,0.3-0.1,0.6-0.4,0.7C465.6,208.7,465.4,208.8,465.2,208.8z
		 M445.7,200.8l18.6,5.8l-0.4-11.6l-19.2-6.2L445.7,200.8z M442.3,201.6c-0.1,0-0.2,0-0.3,0l-20.3-6.4c-0.3-0.1-0.6-0.4-0.6-0.7
		l-1.8-14.4c0-0.3,0.1-0.6,0.3-0.8c0.2-0.2,0.6-0.3,0.9-0.2l21,6.8c0.3,0.1,0.6,0.4,0.6,0.8l1.2,14c0,0.3-0.1,0.6-0.3,0.8
		C442.7,201.5,442.5,201.6,442.3,201.6z M422.8,193.6l18.5,5.8l-1-12l-19.1-6.2L422.8,193.6z M419.3,194.4c-0.1,0-0.2,0-0.3,0
		l-20.3-6.4c-0.3-0.1-0.6-0.4-0.6-0.7l-2.5-14.9c-0.1-0.3,0.1-0.6,0.3-0.8c0.2-0.2,0.6-0.3,0.9-0.2l20.9,6.8
		c0.3,0.1,0.6,0.4,0.6,0.7l1.8,14.5c0,0.3-0.1,0.6-0.3,0.8C419.7,194.3,419.5,194.4,419.3,194.4z M399.8,186.4l18.4,5.8l-1.6-12.5
		l-19-6.2L399.8,186.4z M396.3,187.2c-0.1,0-0.2,0-0.3,0l-20.2-6.3c-0.3-0.1-0.5-0.4-0.6-0.7l-3.1-15.4c-0.1-0.3,0-0.6,0.3-0.9
		c0.2-0.2,0.6-0.3,0.9-0.2l20.9,6.8c0.3,0.1,0.6,0.4,0.6,0.7l2.5,14.9c0.1,0.3-0.1,0.6-0.3,0.8C396.7,187.1,396.5,187.2,396.3,187.2
		z M376.8,179.2l18.3,5.7l-2.2-13l-18.9-6.1L376.8,179.2z M373.2,179.9c-0.1,0-0.2,0-0.3,0l-20.2-6.3c-0.3-0.1-0.5-0.3-0.6-0.6
		l-3.8-15.8c-0.1-0.3,0-0.6,0.3-0.9c0.2-0.2,0.6-0.3,0.9-0.2l20.8,6.8c0.3,0.1,0.5,0.4,0.6,0.7L374,179c0.1,0.3,0,0.6-0.3,0.8
		C373.7,179.9,373.5,179.9,373.2,179.9z M353.8,172l18.3,5.7l-2.7-13.4l-18.8-6.1L353.8,172z M350.2,172.7c-0.1,0-0.2,0-0.3,0
		l-20.2-6.3c-0.3-0.1-0.5-0.3-0.6-0.6l-4.4-16.3c-0.1-0.3,0-0.7,0.2-0.9s0.6-0.3,0.9-0.2l20.8,6.7c0.3,0.1,0.5,0.3,0.6,0.6l3.8,15.9
		c0.1,0.3,0,0.6-0.3,0.9C350.6,172.6,350.4,172.7,350.2,172.7z M330.8,164.8l18.2,5.7l-3.3-13.8l-18.7-6.1L330.8,164.8z
		 M327.2,165.5c-0.1,0-0.2,0-0.3,0l-20.1-6.3c-0.3-0.1-0.5-0.3-0.6-0.6l-5-16.8c-0.1-0.3,0-0.7,0.2-0.9s0.6-0.3,0.9-0.2l20.7,6.7
		c0.3,0.1,0.5,0.3,0.6,0.6l4.4,16.3c0.1,0.3,0,0.7-0.2,0.9S327.4,165.5,327.2,165.5z M307.8,157.6l18.1,5.7L322,149l-18.6-6.1
		L307.8,157.6z M304.1,158.3c-0.1,0-0.2,0-0.3,0l-20.1-6.3c-0.3-0.1-0.5-0.3-0.6-0.6l-5.6-17.2c-0.1-0.3,0-0.7,0.2-0.9
		s0.6-0.3,0.9-0.2l20.7,6.7c0.3,0.1,0.5,0.3,0.6,0.6l5,16.8c0.1,0.3,0,0.7-0.2,0.9C304.6,158.2,304.3,158.3,304.1,158.3z
		 M284.7,150.4l18,5.6l-4.4-14.7l-18.5-6L284.7,150.4z M281,151c-0.1,0-0.2,0-0.3,0l-15.4-4.8c-0.3-0.1-0.5-0.3-0.6-0.6l-5.8-17.5
		c-0.1-0.3,0-0.7,0.2-0.9c0.2-0.2,0.6-0.3,0.9-0.2l15.5,5.1c0.3,0.1,0.5,0.3,0.6,0.6l5.6,17.3c0.1,0.3,0,0.7-0.2,0.9
		C281.5,150.9,281.3,151,281,151z M266.4,144.6l13.3,4.2l-4.9-15.2l-13.4-4.4L266.4,144.6z"/>
	<g>
		<path class="st1" d="M253.8,331.6c-0.1-0.3-0.4-0.6-0.8-0.6l-17.8-1.4c-0.3,0-0.6,0.1-0.8,0.4c-0.2,0.2-0.2,0.6-0.1,0.8l6.5,18.2
			l0,0c0.1,0.2,0,0.3,0,0.4c-0.1,0.3,0,0.5,0.2,0.7s0.4,0.3,0.7,0.4c5.4,0.2,11.3,0.5,17.4,0.7l0,0c0.3,0,0.5-0.1,0.7-0.4
			c0.2-0.2,0.2-0.5,0.1-0.8L253.8,331.6z M242.6,348.7c0-0.1-0.1-0.2-0.1-0.4l0,0l-6-16.9l15.8,1.2l5.5,16.6
			C252.5,349.1,247.4,348.9,242.6,348.7z"/>
		<path class="st1" d="M232.3,329.9c-0.1-0.3-0.4-0.6-0.8-0.6l-17.8-1.4c-0.3,0-0.6,0.1-0.8,0.4c-0.2,0.2-0.2,0.6-0.1,0.9l7.3,19.1
			c0,0.1,0.1,0.2,0,0.3c0,0.5,0.4,0.9,0.9,0.9c4.8,0.3,10.7,0.5,17.3,0.8l0,0c0.3,0,0.6-0.1,0.7-0.4c0.2-0.2,0.2-0.6,0.1-0.8
			L232.3,329.9z M221.9,347.8v-0.1l-6.8-17.8l15.8,1.2l6.2,17.4C231.3,348.3,226.2,348,221.9,347.8z"/>
		<path class="st1" d="M210.9,328.3c-0.1-0.3-0.4-0.6-0.8-0.6l-21-1.6c-0.3,0-0.6,0.1-0.8,0.4s-0.2,0.6-0.1,0.9
			c4.5,10.5,8.5,17.7,14.7,20.6c0.4,0.2,1.3,0.6,14.6,1.4c0,0,0,0,0.1,0c0.3,0,0.6-0.1,0.7-0.4c0.2-0.2,0.2-0.6,0.1-0.9L210.9,328.3
			z M203.7,346.3c-5.4-2.6-9.2-8.9-13.3-18.3l18.9,1.5l6.9,18C206,346.9,204.1,346.5,203.7,346.3z"/>
		<path class="st1" d="M318,336.6c-0.1-0.4-0.4-0.7-0.8-0.7l-17.9-1.4c-0.3,0-0.6,0.1-0.8,0.3c-0.2,0.2-0.3,0.5-0.2,0.8l4.3,15.4
			c0,0.1,0,0.3,0,0.4c-0.1,0.3,0,0.6,0.1,0.8c0.2,0.2,0.4,0.4,0.7,0.4c5.8,0.2,11.6,0.4,17.4,0.5l0,0c0.3,0,0.5-0.1,0.7-0.3
			c0.2-0.2,0.2-0.5,0.2-0.8L318,336.6z M304.5,350.9c0-0.1,0-0.2-0.1-0.3l0,0l-4-14.2l15.9,1.2l3.4,13.8
			C314.7,351.3,309.6,351.1,304.5,350.9z"/>
		<path class="st1" d="M275.2,333.3c-0.1-0.4-0.4-0.6-0.8-0.6l-17.8-1.4c-0.3,0-0.6,0.1-0.8,0.3c-0.2,0.2-0.2,0.6-0.1,0.8l5.8,17.2
			l0,0c0.1,0.2,0,0.4,0,0.5c-0.1,0.3,0,0.6,0.1,0.8c0.2,0.2,0.4,0.4,0.7,0.4c5.6,0.2,11.5,0.4,17.4,0.6l0,0c0.3,0,0.5-0.1,0.7-0.4
			c0.2-0.2,0.2-0.5,0.1-0.8L275.2,333.3z M263.2,349.5c0-0.1-0.1-0.3-0.1-0.4l-5.3-16l15.9,1.2l4.8,15.7
			C273.3,349.9,268.2,349.7,263.2,349.5z"/>
		<path class="st1" d="M338.6,337.6l-17.9-1.4c-0.3,0-0.6,0.1-0.8,0.3c-0.2,0.2-0.3,0.5-0.2,0.8l3.6,14.5c0,0.1,0,0.3,0,0.4
			c-0.1,0.3,0,0.6,0.1,0.8c0.2,0.2,0.4,0.4,0.7,0.4c5.9,0.2,11.7,0.4,17.4,0.5l0,0c0.3,0,0.5-0.1,0.7-0.3c0.2-0.2,0.2-0.5,0.2-0.8
			l-3.1-14.5C339.3,337.9,339,337.6,338.6,337.6z M325.1,351.6c0-0.1,0-0.1,0-0.2l-3.3-13.3l16,1.2l2.7,12.7
			C335.4,351.9,330.3,351.7,325.1,351.6z"/>
		<path class="st1" d="M208.6,325.5c0.3,0,0.5-0.1,0.7-0.4c0.2-0.2,0.2-0.6,0.1-0.9L196.8,291c-0.1-0.3-0.4-0.5-0.8-0.6l-21.7-2.1
			c-0.3,0-0.6,0.1-0.8,0.4c-0.2,0.2-0.2,0.6-0.1,0.9c5,13.1,8.3,21.5,9.7,25.1l0,0c1.2,3.1,2.4,6,3.5,8.6c0.1,0.3,0.4,0.5,0.8,0.6
			L208.6,325.5C208.5,325.5,208.5,325.5,208.6,325.5z M188.1,322.2c-1-2.5-2.1-5.2-3.2-8.1l0,0c-1.4-3.5-4.5-11.4-9.2-23.7l19.7,1.9
			l11.9,31.3L188.1,322.2z"/>
		<path class="st1" d="M296.6,334.9c-0.1-0.4-0.4-0.6-0.8-0.7l-17.8-1.4c-0.3,0-0.6,0.1-0.8,0.3c-0.2,0.2-0.2,0.5-0.2,0.8l5,16.3
			c0.1,0.2,0,0.4,0,0.5c-0.1,0.3,0,0.6,0.1,0.8c0.2,0.2,0.4,0.4,0.7,0.4c5.7,0.2,11.6,0.4,17.5,0.6l0,0c0.3,0,0.5-0.1,0.7-0.3
			c0.2-0.2,0.2-0.5,0.2-0.8L296.6,334.9z M283.9,350.3c0-0.1,0-0.3-0.1-0.4l-4.6-15.1L295,336l4.1,14.8
			C294,350.6,288.9,350.4,283.9,350.3z"/>
		<path class="st1" d="M152.8,179c0.3,0,0.5-0.1,0.7-0.3c0.2-0.3,0.3-0.6,0.2-0.9l-7.7-20.2c-0.1-0.2,0-0.4,0-0.5
			c0.1-0.2,0-0.5-0.1-0.7s-0.3-0.4-0.5-0.4l-24.5-7c-0.3-0.1-0.7,0-0.9,0.3c-0.2,0.3-0.3,0.6-0.2,0.9l8.4,21.8
			c0.1,0.4,0.5,0.6,0.9,0.6c0.1,0,0.3,0,0.4,0l23.1,6.3C152.6,179,152.7,179,152.8,179z M129.9,170.9c-0.1,0-0.2-0.1-0.3-0.1
			l-7.5-19.6l22.1,6.3c0,0.2,0.1,0.5,0.2,0.7l7.1,18.5L129.9,170.9z"/>
		<path class="st1" d="M194.4,288.4c0.3,0,0.5-0.1,0.7-0.4c0.2-0.2,0.2-0.6,0.1-0.9l-17.3-45.5c-0.1-0.3-0.4-0.5-0.7-0.6l-22.6-3.8
			c-0.3-0.1-0.6,0.1-0.8,0.3c-0.2,0.3-0.3,0.6-0.1,0.9c6.6,17.1,13,33.7,18.2,47.1c0.1,0.3,0.4,0.5,0.8,0.6L194.4,288.4
			C194.3,288.4,194.4,288.4,194.4,288.4z M173.3,284.5c-5-13-11.1-28.8-17.4-45.2l20.5,3.4l16.6,43.7L173.3,284.5z"/>
		<path class="st1" d="M236.2,201.4c0.1,0.3,0.3,0.5,0.6,0.6l23,6.3c0.1,0,0.2,0,0.2,0c0.2,0,0.5-0.1,0.6-0.3
			c0.2-0.2,0.3-0.6,0.2-0.9l-5.1-18.3c0-0.2,0-0.3,0-0.4c0.1-0.2,0-0.5-0.1-0.7s-0.3-0.4-0.5-0.4l-24-6.9c-0.3-0.1-0.7,0-0.9,0.2
			s-0.3,0.6-0.2,0.9L236.2,201.4z M254.1,188.9c0,0.2,0,0.3,0.1,0.5l4.7,16.8l-21-5.7l-5.4-17.7L254.1,188.9z"/>
		<path class="st1" d="M175.5,238.7c0.3,0,0.5-0.1,0.7-0.3s0.3-0.6,0.1-0.9l-21.1-55.3c-0.1-0.3-0.3-0.5-0.6-0.5l-23.9-6.5
			c-0.3-0.1-0.7,0-0.9,0.3s-0.3,0.6-0.2,0.9c6.5,16.9,14.5,37.7,22.4,58.1c0.1,0.3,0.4,0.5,0.7,0.6l22.6,3.8
			C175.4,238.7,175.5,238.7,175.5,238.7z M153.6,233.2c-7.5-19.5-15.2-39.5-21.5-55.9l21.7,5.9l20.3,53.4L153.6,233.2z"/>
		<path class="st1" d="M359.9,339.2l-17.9-1.4c-0.3,0-0.6,0.1-0.7,0.3c-0.2,0.2-0.3,0.5-0.2,0.8l2.9,13.6l0,0c0,0.1,0,0.2,0,0.3
			c-0.1,0.3,0,0.5,0.2,0.8c0.2,0.2,0.4,0.3,0.7,0.4c6,0.2,11.8,0.3,17.4,0.5l0,0c0.3,0,0.5-0.1,0.7-0.3c0.2-0.2,0.3-0.5,0.2-0.7
			l-2.4-13.5C360.6,339.5,360.3,339.2,359.9,339.2z M345.7,352.2C345.7,352.2,345.7,352.1,345.7,352.2l-2.7-12.5l16,1.2l2,11.7
			C356.1,352.5,351,352.3,345.7,352.2z"/>
		<path class="st1" d="M425.6,282.8l-25.2-4.2c-0.3,0-0.6,0-0.8,0.2c-0.2,0.2-0.3,0.5-0.3,0.7l2.5,28.6c0,0.4,0.4,0.8,0.8,0.8
			l22.4,2.2h0.1c0.2,0,0.4-0.1,0.6-0.2c0.2-0.2,0.3-0.4,0.3-0.7l0.3-26.5C426.4,283.3,426.1,282.9,425.6,282.8z M424.3,309.2
			l-20.7-2l-2.3-26.7l23.3,3.9L424.3,309.2z"/>
		<path class="st1" d="M464.8,260.8c-2.6,0.7-4.6,3-4.6,5.4c0,9-0.2,18.2-0.3,27v1c0,1.6,0.6,3,1.6,3.8c0.6,0.5,1.3,0.7,2.1,0.7
			c0.4,0,0.8-0.1,1.2-0.2c2.4-0.7,4.4-3.6,4.4-6.5l0,0v-0.5c0.2-8.9,0.4-18.2,0.4-27.3c0-1.2-0.5-2.2-1.3-2.9
			C467.5,260.7,466.2,260.5,464.8,260.8z M467.5,291.5v0.5c0,2.2-1.4,4.3-3.1,4.8c-0.6,0.2-1.2,0.1-1.7-0.2c-0.6-0.5-1-1.3-0.9-2.4
			v-1c0.1-8.9,0.3-18,0.3-27.1c0-1.6,1.5-3.2,3.2-3.6c0.3-0.1,0.6-0.1,0.8-0.1c0.5,0,0.9,0.1,1.2,0.4c0.4,0.3,0.6,0.8,0.6,1.4
			C467.8,273.3,467.7,282.6,467.5,291.5z"/>
		<path class="st1" d="M500.3,290.4c-0.9-0.7-1.9-0.8-3.1-0.5c-2.3,0.7-4.2,3.5-4.3,6.3v0.1c-0.5,9-1,18.3-1.4,27.4
			c-0.1,1.4,0.4,2.5,1.3,3.2c0.5,0.4,1.1,0.6,1.7,0.6c0.4,0,0.9-0.1,1.3-0.2c2.2-0.8,4.1-3.3,4.2-5.8c0.5-9,1.1-18.1,1.6-26.9v-0.4
			C501.7,292.5,501.2,291.2,500.3,290.4z M499.8,294.3c-0.6,8.8-1.2,18-1.6,27l0,0c-0.1,1.7-1.5,3.7-3,4.2c-0.4,0.1-1,0.2-1.4-0.1
			c-0.4-0.3-0.6-0.9-0.6-1.7c0.4-9.1,0.9-18.4,1.4-27.4v-0.1c0.1-2,1.5-4.2,3.1-4.6c0.2-0.1,0.4-0.1,0.6-0.1c0.3,0,0.6,0.1,0.8,0.3
			c0.5,0.4,0.7,1.2,0.7,2.1V294.3z"/>
		<path class="st1" d="M381.2,340.8l-17.9-1.4c-0.3,0-0.5,0.1-0.7,0.3c-0.2,0.2-0.3,0.5-0.2,0.8l2.2,12.7c0,0.1,0,0.2,0,0.3
			c0,0.3,0,0.5,0.2,0.7s0.4,0.3,0.7,0.3c6.1,0.2,11.9,0.3,17.3,0.5l0,0c0.3,0,0.5-0.1,0.7-0.3c0.2-0.2,0.3-0.5,0.2-0.7l-1.7-12.4
			C382,341.2,381.7,340.9,381.2,340.8z M366.3,352.8l-2-11.4l16,1.2l1.4,10.6C376.9,353.1,371.7,352.9,366.3,352.8z"/>
		<path class="st1" d="M476.6,257.8c-2.4,0.6-4.2,3-4.2,5.3c-0.1,9.1-0.3,18.3-0.5,27.2v0.5c0,1.7,0.5,3.1,1.6,3.9
			c0.6,0.4,1.2,0.6,1.9,0.6c0.3,0,0.7-0.1,1-0.2c2.2-0.7,4-3.5,4.1-6.3c0.3-8.5,0.6-18.2,0.7-27.5c0-1.3-0.4-2.3-1.3-3
			C479,257.6,477.8,257.4,476.6,257.8z M478.6,288.8c-0.1,2.1-1.4,4.2-2.9,4.7c-0.5,0.1-0.9,0.1-1.3-0.2c-0.6-0.4-0.9-1.3-0.9-2.4
			v-0.5c0.2-8.9,0.4-18.1,0.5-27.2c0-1.6,1.3-3.2,2.9-3.6c0.2-0.1,0.5-0.1,0.7-0.1c0.4,0,0.8,0.1,1,0.3c0.4,0.3,0.6,0.9,0.6,1.6
			C479.2,270.7,478.9,280.3,478.6,288.8z"/>
		<path class="st1" d="M491,255.4c-0.9-0.7-2-0.9-3.2-0.6c-2.3,0.6-4.1,2.9-4.2,5.4c-0.2,9.1-0.5,18.4-0.9,27.3v0.1
			c-0.1,1.7,0.5,3.1,1.5,3.9c0.5,0.4,1.1,0.6,1.8,0.6c0.3,0,0.7-0.1,1-0.2c2.2-0.7,4-3.4,4.2-6.2l0,0c0.4-8.9,0.8-18.1,1.1-27.3
			C492.3,257.2,491.8,256.1,491,255.4z M489.3,285.6c-0.1,2-1.4,4.1-2.9,4.6c-0.5,0.1-0.9,0.1-1.2-0.2c-0.5-0.4-0.8-1.3-0.8-2.4
			v-0.1c0.3-9,0.7-18.2,0.9-27.3c0-1.6,1.3-3.3,2.9-3.7c0.2-0.1,0.4-0.1,0.6-0.1c0.4,0,0.7,0.1,1,0.3c0.4,0.3,0.6,0.9,0.6,1.6
			C490.2,267.6,489.7,276.8,489.3,285.6z"/>
		<path class="st1" d="M263,208.7c0.1,0.3,0.3,0.5,0.6,0.6l23.1,6.3c0.1,0,0.2,0,0.2,0c0.2,0,0.5-0.1,0.6-0.3
			c0.2-0.2,0.3-0.5,0.2-0.9l-4.4-17.8c0-0.1,0-0.3,0-0.4c0.1-0.2,0-0.5-0.1-0.7s-0.3-0.4-0.5-0.4l-24-6.9c-0.3-0.1-0.6,0-0.9,0.2
			c-0.2,0.2-0.3,0.6-0.2,0.9L263,208.7z M281.6,196.7c0,0.1,0,0.3,0.1,0.4l0,0l4,16.4l-21.1-5.8l-4.8-17.2L281.6,196.7z"/>
		<path class="st1" d="M502.6,252.5c-0.9-0.7-2.2-1-3.5-0.6c-2.4,0.6-4.3,3-4.4,5.4c-0.3,9.2-0.8,18.3-1.3,27.1
			c-0.1,1.6,0.4,3,1.4,3.7c0.5,0.4,1.2,0.6,1.9,0.6c0.4,0,0.7-0.1,1.1-0.2c2.3-0.7,4.3-3.5,4.5-6.2c0.7-10.5,1.2-19,1.5-26.9
			C504,254.2,503.5,253.2,502.6,252.5z M500.6,282.3c-0.1,2-1.6,4.1-3.2,4.6c-0.5,0.2-1,0.1-1.4-0.2c-0.5-0.4-0.8-1.2-0.7-2.2
			c0.5-8.8,0.9-18,1.3-27.2c0.1-1.7,1.4-3.3,3.1-3.8c0.2-0.1,0.5-0.1,0.7-0.1c0.5,0,0.9,0.1,1.2,0.4c0.4,0.3,0.6,0.9,0.6,1.5
			C501.8,263.3,501.3,271.8,500.6,282.3z"/>
		<path class="st1" d="M524.8,205.6c-2.8-6.4-13.2-7.1-19.5-7.5l-1.2-0.1c-0.3,0-0.5,0.1-0.7,0.3l-2.6,2.6l0,0
			c-0.1,0.1-0.1,0.2-0.2,0.3c0,0,0,0,0,0.1s0,0.2,0,0.2v0.1v0.1l1,4.8v0.1c0.6,1.7,1.2,3.4,1.8,5c-0.2,0.3-0.3,0.6-0.2,0.9
			c-1.8,0.6-2.9,1.2-3.4,2c-0.1,0.2-0.2,0.4-0.2,0.6l-47,11.5c-0.1-0.1-0.3-0.1-0.4-0.1c-0.2,0-0.5,0-0.7,0.1
			c-0.1-0.1-0.3-0.1-0.5-0.1c-1.9-0.6-4.2-0.1-6.2,0.4c-0.6,0.2-1.2,0.3-1.7,0.4c-1.5,0.3-3,0.6-4.4,0.9c-2.9,0.7-5.8,1.3-8.7,1.5
			c-1-0.1-2.3-0.6-3.4-1.1c-0.5-0.2-1.1-0.5-1.5-0.6c-3.8-1.4-7-2.8-9.7-4.3c-0.3-0.2-0.7-0.4-1.1-0.6c-2.4-1.4-5.5-3.2-8-2.2
			c-0.2,0.1-0.3,0.2-0.4,0.3c-0.7,0.3-1.3,0.6-1.8,1c-0.1-0.1-0.2-0.1-0.3-0.1l-145-41.4c0-0.2-0.1-0.5-0.1-0.7l-16.1-50.5l7.2-1.3
			c0.3,0,0.5-0.2,0.6-0.4c0.1-0.2,0.2-0.5,0.1-0.8l-1.4-3.6c-0.2-0.4-0.6-0.6-1-0.6l-10.1,1.8c0-0.1,0-0.2,0-0.3l-2.9-10.5
			c3.7-0.7,7.1-1.4,10.1-2c0.5-0.1,0.8-0.6,0.7-1.1c-0.1-0.3-0.3-0.5-0.5-0.6c0-0.1,0-0.2,0-0.3c0.3-2.7,0.4-4.1,3.8-4.6v-0.1
			c0.2,0.1,0.5,0.1,0.8-0.1c0.4-0.3,0.5-0.8,0.3-1.2l-11.6-18.3c0.3-1.2,0.3-2.4-0.1-3.4c0-0.1,0.1-0.2,0.1-0.3
			c0.5-3.6-3.8-6-6.6-7.5c-0.5-0.3-1-0.5-1.4-0.8c-2.7-1.7-5.5-3.4-8.2-5.1c-3-1.9-6.1-3.9-9.3-5.7c-4.1-2.4-14.3-7.4-19.9-0.6
			c-0.8,1-2.1,2.9-2.3,5.3l-80.3,11c-0.2,0-0.3-0.1-0.5-0.1c-0.3-0.1-0.7,0.1-0.9,0.3l-42.7,5.8c-3.1-2-6.9-2.6-12-2
			c-3.4,0.4-6.1,2.2-7.8,5.1c-2.5,4.3-2.6,10.8-0.3,16.2c3,6.9,9.4,12,15.1,16.6c1.1,0.8,2.1,1.7,3.1,2.5c0.2,0.1,0.4,0.2,0.6,0.2
			c0.1,0,0.1,0,0.2,0c0.2,0.2,0.5,0.4,0.7,0.5c0.9,0.5,1.9,0.8,2.9,0.8s2-0.2,2.9-0.7c0,0,0,0,0.1-0.1c7.2,6.2,19.9,18.3,22.8,27.2
			c2.2,6.7,9,26.6,16.3,45.5c14.3,37,18.3,39,20.8,40.1c5.1,2.5,10.2,3.5,13.8,3.8c17.2,44.5,27.3,70.7,30,77.7
			c7.9,20,12.7,32.1,23.7,37.3c0.4,0.2,0.9,0.4,1.5,0.6c-3.3,1.6-5.7,3.3-7.1,4.5c-0.2,0.2-0.4,0.3-0.6,0.5
			c-17.1,16.1-102.7,97-108.4,105.4c-6.9,10.3-6,22.4-5.9,23.7c0.2,1.9,0.9,3.5,2.1,4.8v3.3c-1.6,0.3-2.6,0.7-3.2,1.2
			c-0.1,0-0.2,0-0.3,0l-4,1.3c0,0,0,0-0.1,0s-0.1,0.1-0.2,0.1c0,0-0.1,0-0.1,0.1c-0.1,0-0.1,0.1-0.1,0.2c0,0,0,0.1-0.1,0.1
			c0,0.1-0.1,0.2-0.1,0.2v0.1l0,0c-0.1,0.8-0.2,3.5-0.4,7c-1.3,0.4-2.5,1-3.7,1.8c-0.1,0-0.1,0.1-0.2,0.2
			c-3.9,4.8-5.7,11.9-4.6,18.8c1.7,11.2,9.9,19.5,18.8,19.5c0.7,0,1.4-0.1,2.1-0.2c0.7-0.1,1.5-0.3,2.2-0.5h0.1
			c10.5-2.8,15.8-11.4,14.1-23c-0.4-2.6-1.4-5.6-2.9-8.4c0,0,0,0,0.1,0c3-3.9,3.9-7.5,2.8-10l0.1-3.5c0,0,0,0,0-0.1v-0.1
			c0-0.1,0-0.2-0.1-0.3l0,0c0-0.1-0.1-0.2-0.2-0.2l0,0l-3.2-2.7c-0.4-0.9-1.7-1.4-4.1-1.8l0.1-2.8c0-0.1,0-0.1,0-0.2
			c1.5-1.7,2.4-4,2.2-6.5c0-0.1-0.5-7.4,3-12.7c4.5-6.3,67.1-66,105.6-102.2c1.9-1.4,17.1-11.7,31.9-1.4c4,2.8,12.4,9.9,25,21
			l-34,31.5c-1.5,1.4-2.5,3.4-2.7,5.5l-1.4,14.4c-0.3,2.9,0.9,5.6,3,7.4v3.1c-1.3,0.3-2.2,0.6-2.7,1.1c-0.1,0-0.1,0-0.2,0l-3.5,1.1
			c0,0,0,0-0.1,0s-0.1,0.1-0.2,0.1c0,0-0.1,0-0.1,0.1c-0.1,0-0.1,0.1-0.1,0.2c0,0,0,0.1-0.1,0.1c0,0.1-0.1,0.2-0.1,0.2v0.1l0,0
			c-0.1,0.7-0.2,3-0.4,6.1c-1.1,0.4-2.2,0.9-3.2,1.6c-0.1,0.1-0.1,0.1-0.2,0.2c-3.5,4.2-5,10.4-4.1,16.6c0.8,5.1,3.1,9.7,6.5,12.9
			c3,2.8,6.5,4.2,10,4.2c0.6,0,1.3,0,1.9-0.1c0.7-0.1,1.3-0.3,1.9-0.5h0.1c9.3-2.5,13.9-10.1,12.4-20.3c-0.3-2.3-1.2-4.9-2.5-7.3
			l0,0c2.6-3.5,3.5-6.6,2.4-8.8l0.1-3c0,0,0,0,0-0.1v-0.1c0-0.1,0-0.2-0.1-0.3l0,0c0-0.1-0.1-0.2-0.2-0.2l0,0l-2.8-2.3
			c-0.3-0.8-1.5-1.3-3.5-1.6l0.1-2.4c0-0.3-0.1-0.5-0.3-0.7c1.6-1.4,2.7-3.4,2.9-5.6l1-11.1l32.8-30.4
			c45.3,40.6,109.4,100.9,115.1,108.3c2,3.7,1.2,9.5,0.8,11.3c-0.7,2.6-0.1,5.3,1.5,7.3c0,0.1-0.1,0.2-0.1,0.3v3.9
			c-1.7,0.3-2.8,0.7-3.4,1.3c-0.1,0-0.2,0-0.3,0l-4.2,1.3c0,0,0,0-0.1,0s-0.1,0.1-0.2,0.1c0,0-0.1,0-0.1,0.1c-0.1,0-0.1,0.1-0.1,0.2
			c0,0,0,0.1-0.1,0.1c0,0.1-0.1,0.2-0.1,0.2v0.1l0,0c-0.1,0.9-0.3,3.7-0.4,7.5c-1.4,0.4-2.7,1.1-3.9,1.9c-0.1,0-0.1,0.1-0.2,0.2
			c-4.1,5.1-6,12.5-4.9,19.9c0.9,6.1,3.7,11.7,7.8,15.5c3.5,3.3,7.7,5,12,5c0.8,0,1.5-0.1,2.3-0.2c0.8-0.1,1.5-0.3,2.3-0.5h0.1
			c11.1-3,16.6-12,14.8-24.2c-0.4-2.8-1.5-6-3.1-8.8c0,0,0.1,0,0.1-0.1c3.1-4.2,4.2-7.9,2.9-10.5l0.1-3.7c0,0,0,0,0-0.1v-0.1
			c0-0.1,0-0.2-0.1-0.3l0,0c0-0.1-0.1-0.2-0.2-0.2l0,0l-3.4-2.8c-0.3-0.7-1.2-1.4-4.3-2l0.1-3c0-0.2-0.1-0.4-0.2-0.5
			c0.9-1,1.5-2.2,1.9-3.5c0.3-1.1,2.4-9.8-0.2-18.7c0.1-0.2,0.1-0.4,0-0.5c-0.2-0.4-0.3-0.8-0.5-1.2l82.1-27.6c0,0.3,0,0.6-0.1,0.9
			c-0.4,2.7,0.5,5.2,2.2,7.1c-0.2,0.2-0.3,0.4-0.3,0.7v3.3c-1.4,0.3-2.4,0.6-2.9,1.1c-0.1,0-0.2,0-0.2,0l-3.7,1.2c0,0,0,0-0.1,0
			s-0.1,0.1-0.2,0.1c0,0-0.1,0-0.1,0.1c-0.1,0-0.1,0.1-0.1,0.2c0,0,0,0.1-0.1,0.1c0,0.1-0.1,0.2-0.1,0.2v0.1l0,0
			c-0.1,0.8-0.2,3.2-0.4,6.5c-1.2,0.4-2.3,0.9-3.4,1.7c-0.1,0-0.1,0.1-0.2,0.2c-3.7,4.5-5.3,11-4.3,17.5c0.8,5.4,3.3,10.3,6.9,13.6
			c3.1,2.9,6.8,4.5,10.6,4.5c0.7,0,1.4,0,2-0.2c0.7-0.1,1.4-0.3,2-0.5h0.1c9.8-2.6,14.7-10.6,13.1-21.4c-0.4-2.4-1.3-5.2-2.7-7.7
			l0,0c2.8-3.6,3.6-6.9,2.6-9.2l0.1-3.2c0,0,0,0,0-0.1v-0.1c0-0.1,0-0.2-0.1-0.3l0,0c0-0.1-0.1-0.2-0.2-0.2l0,0l-3-2.4
			c-0.3-0.8-1.5-1.3-3.8-1.7l0.1-2.6c0-0.2-0.1-0.4-0.1-0.5c1.7-1.3,2.8-3.3,3.2-5.5c1.6-11.4-5.6-20.2-6.4-21.2l-82.5-98.6
			c2,0.2,5,0.3,7.1-0.2c4.1-1.1,8.8-4,9.5-4.4l78.3-29c0.1,0,0.2-0.1,0.3-0.2l0.1-0.1c0.1-0.1,0.3-0.2,0.4-0.3c0,0,0.1-0.1,0.1-0.2
			c0.1-0.1,0.1-0.2,0.2-0.2c0,0,0.1-0.1,0.1-0.2c0.1-0.1,0.1-0.2,0.1-0.3c0-0.1,0.1-0.1,0.1-0.2s0.1-0.2,0.1-0.3
			c0-0.1,0-0.2,0.1-0.3c0-0.1,0-0.1,0-0.2l6.3-94.3v-0.1v-0.4c1.7-2.5,2.1-5.1,2.4-7.9v-0.3c0.2-1.8,0.9-3.8,1.6-6
			C524.9,214.4,526.5,209.5,524.8,205.6z M500.9,216.6c1.4-0.3,2.8,0.5,3.2,1.8c0.2,0.6,0.1,1.3-0.3,1.9c-0.4,0.6-0.9,1-1.6,1.2
			l-47.3,11.6c-0.1-1.7-0.5-3.4-1.5-4.9L500.9,216.6z M505.8,218c-0.1-0.5-0.3-0.9-0.6-1.3c0.2,0.2,0.4,0.4,0.6,0.6
			c1.6,2.1,1.2,5.9,0.7,9.3c-0.4,2.5-2.6,6.2-4.4,6.4c-1,0.1-1.7-1.1-2.2-2.1c-0.7-1.6-0.7-3.8-0.6-5.7c0-0.3,0-0.6,0-0.9
			c0,0,0.1,0,0.1-0.1c0,0,0-0.1,0.1-0.1l3.2-0.8c1.2-0.3,2.1-1,2.7-2C505.9,220.3,506.1,219.2,505.8,218z M510.8,242
			c-0.2-0.2-0.5-0.2-0.8-0.2l-69.5,18.6c-0.4,0.1-0.7,0.5-0.7,0.9l-1.4,89.7l-5.4,2c0.1-0.8,0.2-1.6,0.2-2.5
			c0-5.2,0.8-71.7,1.2-96.1c0.5-0.1,1.1-0.2,1.7-0.3c0.3-0.1,0.5-0.3,0.6-0.5l74.2-18.1c0.9-0.2,1.9-0.3,2.8-0.6l-6.1,90.6l-1.9,0.7
			l5.5-83.4C511.2,242.5,511,242.2,510.8,242z M451.9,248c0.1-0.5,0.2-1,0.3-1.5c0-0.3,0.1-0.5,0.1-0.8h0.1c0.1,0,0.1,0,0.2,0
			l47.5-11.6c0.5,0.4,1,0.5,1.4,0.6c0.1,0.1,0.2,0.2,0.3,0.2c0.5,0.2,1,0.3,1.5,0.5L451.9,248z M454.8,235l42.7-10.4
			c0,0.2,0,0.4,0,0.6c0,2.1-0.1,4.5,0.8,6.5c0.2,0.4,0.3,0.7,0.5,1l-46.1,11.2c0.2-0.6,0.3-1.2,0.5-1.9
			C453.9,239.8,454.6,237.4,454.8,235z M453,233c0,0.4,0,0.8,0,1.2c0,0.1,0,0.1,0,0.2c-0.1,2.3-0.8,4.8-1.5,7.2
			c-0.3,1.2-0.7,2.3-0.9,3.4c-0.1,0.5-0.2,1-0.2,1.4c-0.1,0.8-0.2,1.5-0.6,2.2l-15.3,3.7c0-4.3,0-13.7-0.6-16.7
			c3.6-0.2,7.2-0.9,10.6-1.6c1.7-0.3,3.3-0.7,4.9-1.1c0.9-0.2,1.9-0.4,2.8-0.7C452.3,232.6,452.6,232.9,453,233z M407.2,222.5
			l0.5-0.2c1.7-0.2,4.1,1.2,5.9,2.2c0.4,0.2,0.8,0.5,1.2,0.7c2.8,1.5,6.1,3,10,4.4c0.5,0.2,0.9,0.4,1.5,0.6c0.9,0.4,1.8,0.8,2.7,1
			c0.2,0.2,0.4,0.3,0.6,0.3l0,0c0.2,0,0.4,0,0.6,0c0.1,0,0.3,0,0.4,0c0,0,0,0,0.1,0s0.2,0,0.3-0.1c2.9-0.2,5.8-0.9,8.6-1.5
			c1.4-0.3,2.9-0.7,4.3-0.9c0.6-0.1,1.2-0.3,1.8-0.4c1.9-0.5,4.2-1,5.5-0.4c0.6,0.7,1.1,1.4,1.4,2.2c-1.1,0.2-2.3,0.5-3.4,0.8
			c-1.6,0.4-3.2,0.8-4.9,1.1c-6.2,1.2-12.7,2.3-18.6,1c-6.4-1.5-13.2-5-19.1-8.1c-0.7-0.3-1.3-0.7-1.9-1
			C405.2,223.4,405.8,223.1,407.2,222.5z M403.8,225.7c0.6,0.3,1.3,0.7,1.9,1c6,3.2,12.9,6.8,19.5,8.3c2,0.5,4.1,0.6,6.2,0.6
			c0.2,0,0.4,0,0.6,0c0.4,1.2,0.6,9.4,0.6,17.1c-0.8,0-1.6,0-2.5-0.1c-4.1-0.5-7.9-1.5-12-2.6l-1.8-0.5c-2.4-0.7-4.9-1.4-7.4-1.8
			c-0.5-0.1-1.1-0.1-1.6-0.1c-0.9,0-1.8-0.1-2.5-0.4c0.2-4.4-0.1-9.2-0.9-12.9l-0.1-0.3C403.3,231.2,402.7,228.4,403.8,225.7z
			 M248,124.5l0.8,1.9l-7.2,1.3c-0.3,0-0.5,0.2-0.6,0.4c-0.1,0.2-0.2,0.5-0.1,0.7l16.3,51.3l-2.3-0.7l-16-50.3V129
			c0-0.2-0.2-0.4-0.4-0.6c-0.2-0.1-0.4-0.2-0.7-0.1l-19.7,3.5c-0.3,0-0.5,0.2-0.6,0.4s-0.2,0.5-0.1,0.7l13.6,39.6l-2.4-0.7
			l-13.2-38.6v-0.1c0-0.2-0.2-0.4-0.4-0.6c-0.2-0.1-0.4-0.2-0.7-0.2l-20.3,3.6c-0.3,0-0.5,0.2-0.6,0.4s-0.2,0.5-0.1,0.7l9.3,27.3
			l-2.4-0.7l-8.9-26.2c0,0,0-0.1,0-0.2c0-0.2-0.2-0.4-0.4-0.6c-0.2-0.1-0.4-0.2-0.7-0.1l-22.5,4c-0.3,0-0.5,0.2-0.6,0.4
			s-0.2,0.5-0.1,0.8l5.3,13.9l-2.4-0.7L165,142c0-0.1,0-0.1-0.1-0.2c-0.1-0.5-0.6-0.8-1-0.7l-25.7,4.6c-0.1,0-0.2,0.1-0.3,0.1
			l-4.6-1.3L248,124.5z M252.7,178.7l-19.9-5.7c0-0.3-0.1-0.5-0.1-0.8l-13.2-38.7l17.9-3.2L252.7,178.7z M226.3,171.1l-21.9-6.2
			c0-0.3-0.1-0.5-0.1-0.8l-9-26.4l18.5-3.3L226.3,171.1z M198,163.1l-23.8-6.8c0-0.3-0.1-0.6-0.2-0.9l0,0l-4.9-13l20.6-3.7
			L198,163.1z M167.6,154.4l-25.2-7.2l21.1-3.7L167.6,154.4z M131.8,143.4c-0.4,0.1-0.8,0.2-1.1,0.5l-12.9-3.7l-0.4-1.1
			c-0.1-0.2-0.2-0.5-0.4-0.8c0-0.1-0.1-0.5,0.2-1.1c0.6-1.2,4.7-7.2,31.4-10.2c22.8-2.5,53.3-7.4,77.1-11.7l4,10.6L131.8,143.4z
			 M236.5,124.5c0,0.1,0,0.1,0.1,0.2l-5.2,0.9l-4-10.6c2.1-0.4,4.2-0.8,6.2-1.1L236.5,124.5z M96.9,106c0.1-0.2,0.1-0.3,0.1-0.5
			c-0.7-3.1-4.4-4.7-7.7-6c-0.1,0-0.2-0.1-0.3-0.1l106.8-15.5c0,0.1,0.1,0.2,0.2,0.3c0.5,0.5,1.1,1,1.6,1.4c1,0.8,1.9,1.6,2.7,2.6
			c1.3,1.6,2.6,3,4.1,4.4c1.6,1.5,3.3,2.8,4.9,3.8c1.2,0.8,2.4,1.4,3.5,1.8c0.1,0,0.2,0.1,0.3,0.1c0.4,0,0.7-0.2,0.8-0.6
			c0-0.1,0-0.2,0-0.2c0.2,0,0.3,0,0.5,0c0.4,0,0.7,0,0.9,0c0.1,0,0.1,0,0.2-0.1l6.1,8.9c-19,3.6-46.9,8.3-74.1,11.3
			c-12.9,1.4-22.4,3.7-29,6.8c-0.1-0.1-0.3-0.3-0.5-0.4l-21.6-15c0.1-0.1,0.2-0.2,0.3-0.4C97.1,107.5,97.1,106.6,96.9,106z M95,108
			L95,108l-2.8-1.9c-0.3-0.2-0.7-0.4-1.1-0.5c1.6-0.2,3.1,0,3.8,0.6C95.1,106.3,95.5,106.7,95,108z M215.7,94.5
			c-0.9-1.3-0.6-2.7,0.7-3.7c1.3-0.9,3.2-0.6,4.1,0.8l8.9,12.5c0.1,0.2,0.2,0.4,0.3,0.6l-6.2,1.2L215.7,94.5z M224.6,94.2
			c0.3-0.2,0.7-0.4,1.2-0.7l0.1-0.1c0.5-0.3,1.1-0.6,1.7-0.9c0.4-0.2,0.9-0.5,1.3-0.7c0.3-0.2,0.6-0.4,1-0.5c0.5-0.3,1-0.5,1.5-0.8
			l5.3,12.8c-1.6,0.3-3.3,0.7-5.1,1c-0.1-0.4-0.3-0.9-0.6-1.2L224.6,94.2z M231.2,83.8c-0.9,0.9-1.3,2.1-1.3,3.4
			c0,0.6,0.2,1.2,0.4,1.8l-0.1,0.1c-0.4,0.2-0.8,0.5-1.3,0.7c-0.3,0.2-0.7,0.4-1,0.6c-0.4,0.2-0.8,0.4-1.2,0.7
			c-0.6,0.3-1.2,0.6-1.8,1l-0.1,0.1c-0.6,0.4-0.9,0.6-1.1,0.6l0,0c-0.1,0-0.1,0-0.2,0l-1.5-2c-1.5-2.2-4.4-2.7-6.6-1.2
			c-2.2,1.5-2.6,4-1.2,6.2v0.1c-0.9,0-1.9-0.2-2.4-0.7c-0.2-0.2-0.4-0.5-0.3-1.2c0.2-2,2.9-3.9,4.9-5.3c0.4-0.3,0.7-0.5,1-0.7
			c2.6-1.9,5.5-3.5,9.4-5.1l0.7-0.3c0.3-0.1,0.5-0.2,0.8-0.3c0.1,0,0.3-0.1,0.4-0.1l0,0c2.3-0.9,5.1-1.8,7-0.7
			c0.9,0.5,1.4,1.2,1.5,2.2C235.4,81.8,232.8,82.1,231.2,83.8z M194.9,63c4.8-5.8,13.9-1.3,17.6,1c3.1,1.9,6.2,3.8,9.2,5.7
			c2.7,1.7,5.4,3.4,8.2,5.1c0.4,0.2,0.9,0.5,1.5,0.8c1.7,0.9,4.1,2.2,5.2,3.8c-2.5-1.3-5.4-0.5-8,0.5c-0.4-0.4-0.7-0.8-1.2-1.1
			c-0.5-0.4-1-0.9-1.5-1.4c-1.6-1.5-3.5-3.2-5.5-4.1c-0.5-0.2-1,0-1.2,0.5s0,1,0.5,1.2c1.7,0.8,3.4,2.3,5,3.8c0.5,0.5,1.1,1,1.6,1.4
			c0.2,0.2,0.4,0.3,0.6,0.5l-0.6,0.2c-4.1,1.7-7.1,3.3-9.8,5.3c-0.3,0.2-0.6,0.5-1,0.7c-2.3,1.6-5.3,3.8-5.6,6.6c0,0.4,0,0.8,0,1.1
			c-1.4-0.9-2.9-2.1-4.3-3.4c-1.4-1.3-2.7-2.7-4-4.2c-0.9-1.1-1.9-2-2.9-2.8c-0.3-0.2-0.5-0.5-0.8-0.7l3.2-0.5
			c2.3-0.3,4.3-1.5,5.6-3.3c1.4-1.8,1.9-4.1,1.6-6.3c-0.6-4.2-4.2-7.3-8.5-7.3c-0.4,0-0.8,0-1.2,0.1l-5.7,0.8
			C193.2,65.6,193.9,64.3,194.9,63z M199,67.9c0.3,0,0.7-0.1,1-0.1c3.3,0,6.2,2.5,6.7,5.8c0.3,1.8-0.2,3.6-1.3,5s-2.7,2.4-4.4,2.6
			L174.7,85c1.1-3.2,1.8-9-0.3-12.3c-0.3-0.5-0.7-1-1.2-1.4L199,67.9z M169.4,71.9c0.1,0.1,0.3,0.2,0.5,0.2c1.3,0,2.3,0.5,2.9,1.6
			c1.8,2.9,0.9,9.1-0.2,11.6l-50.1,7.3c-0.1,0-0.3-0.1-0.4-0.1c-1,0.1-2,0.2-3,0.2c-0.4,0-0.7,0-1.1,0.1c0.6-3,0-6.9-1.7-10
			c-0.8-1.4-1.7-2.5-2.7-3.4L169.4,71.9z M110.7,79.9c1.5,0.6,2.9,1.9,4,3.8c1.7,3.1,2.2,7.2,1.2,9.8l0,0L85.4,98
			c-1-0.6-4.7-3.4-8-5.8c-4.7-3.4-7.4-5.4-8.9-6.5L110.7,79.9z M64.3,119.5L64.3,119.5c-0.4-0.2-0.8-0.5-1.2-0.8
			c-5.8-4.7-11.8-9.5-14.6-15.9c-2.1-4.8-2-10.8,0.2-14.6c1.4-2.5,3.6-3.9,6.4-4.2c4.1-0.5,7.3-0.1,9.9,1.2c0,0.1,0,0.1,0,0.2
			c0,0.4,0.3,0.6,0.6,0.7c0.9,0.5,6.5,4.6,10.6,7.6c8.4,6.2,8.5,6.2,8.9,6.2h0.1h0.3c0.9,0.5,1.9,0.9,3,1.3c1.9,0.8,3.9,1.6,5.3,2.7
			c-2.5-0.4-5.9,0.4-7.4,1c-0.1,0-0.2,0.1-0.2,0.2c-0.7,0.3-1.5,0.5-2.5,0.8c-6,2-11.2,4-13.4,6.5h-0.1c-0.4,0.3-0.8,0.6-1.3,0.9
			C66.8,114.7,64.2,116.5,64.3,119.5z M108.6,142.7l0.2,0.6c2.5,6.4,17.7,46.2,33.2,86.3c-2-0.5-3.8-1.2-5.5-2
			c-5.1-4.3-23.1-51.4-32.3-80.1c-3.5-11-16.9-23.8-24.1-30.1c1.3-0.5,2.6-1.2,3.8-1.8c1-0.6,2-1.1,3-1.5L87,114l23.4,16.2
			c-0.7,0.9-1.4,1.8-1.8,2.8C106.5,137.6,107.9,141.3,108.6,142.7z M85.7,112.7c-0.9,0.4-1.8,0.9-2.6,1.3c-1.4,0.8-2.9,1.6-4.4,2
			c0,0-0.1,0-0.1,0.1c-1.8-1.5-2.9-2.4-3.1-2.6c-0.7-0.6-1.6-0.9-2.5-1c2.7-2,8-3.8,11.5-5c0.5-0.2,1-0.4,1.5-0.5
			c-0.1,0.1-0.2,0.2-0.3,0.3C84.5,109,84.6,111.1,85.7,112.7z M67.5,121.7c-0.6-0.3-1.3-1-1.4-2.3c-0.1-1.2,0.7-2.2,1.8-3.1
			c-0.1,0.5-0.1,0.9-0.1,1.4c0.1,1.3,0.8,2.4,1.8,3.2c0.4,0.3,0.8,0.7,1.3,1.1C69.7,122.3,68.4,122.2,67.5,121.7z M81.3,499.5v0.2
			c0,0.3,0.2,0.6,0.5,0.8c-0.9-0.2-1.6-0.4-2-0.5C80,499.8,80.5,499.7,81.3,499.5z M73.6,532c1,1.8,2.5,2.2,3.5,2.2
			c0.5,0,1.1-0.1,1.7-0.3c1.8-0.7,3-3,3.4-4.9s1.2-5.1,3-9.2c0.1-0.2,0.2-0.4,0.3-0.6c1.2,1.8,2.1,3.9,2.5,6.2
			c1.4,7.2-1.7,13.8-6.8,14.8c-5.2,1-10.5-4-11.9-11.2c-1-5.2,0.3-10.1,3.2-12.9C72.3,523,72.5,529.9,73.6,532z M84.9,546.4
			c-8.8,1.3-17.2-6.7-18.9-17.8c-1-6.5,0.6-12.9,4.1-17.3c0.8-0.5,1.6-0.9,2.5-1.3c-0.1,1.2-0.1,2.5-0.1,3.8h-0.1
			c-4.2,2.9-6.1,9.1-4.9,15.5c1.4,7.4,6.8,12.8,12.3,12.8c0.5,0,1.1-0.1,1.6-0.2c6.1-1.2,9.8-8.8,8.3-16.9c-0.5-2.8-1.6-5.4-3.2-7.5
			l0,0c0.6-1,1.4-1.9,2.2-2.7c2.9,3.3,4.8,7.6,5.5,12.3c1,6.5-0.6,12.9-4.1,17.3C88.5,545.4,86.8,546.1,84.9,546.4z M99.8,524.9
			c0.6,4.2,0.9,13.2-6.6,18.3c2.7-4.6,3.8-10.5,2.9-16.4c-0.8-5-2.9-9.7-6-13.2c0.8-0.7,1.6-1.3,2.4-1.9l0.1,0.1
			C96.4,514.4,99.1,520.3,99.8,524.9z M97.6,514.6c-1.1-1.6-2.3-3-3.6-4c2.5-1.6,4.9-2.6,6.1-3C100.5,509.4,99.6,511.8,97.6,514.6z
			 M99.7,505.8c-2.6,1-12.4,5.1-16.1,13.3c-1.9,4.3-2.8,7.6-3.1,9.6c-0.3,1.6-1.3,3.2-2.2,3.5c-0.4,0.1-0.8,0.2-1.1,0.2
			c-0.5,0-1.3-0.1-1.9-1.3c-0.3-0.6-0.5-1.7-0.7-3.2c0.5,1.2,1.4,2,2.6,2c1.6,0,2.9-1.6,2.9-3.7c0-2.1-1.3-3.7-2.9-3.7
			c-1.3,0-2.4,1.1-2.8,2.6c-0.3-5.9,0.1-14.9,0.5-21.9c1.6,1.3,4.9,2.7,11.2,2.9c7,0.2,11.6-1.1,13.7-2L99.7,505.8z M76,526.2
			c0-1.1,0.6-1.9,1.1-1.9s1.1,0.8,1.1,1.9c0,1.1-0.6,1.9-1.1,1.9C76.6,528.1,76,527.3,76,526.2z M98.9,502.6c-2,0.8-6.4,2-12.9,1.8
			s-9.3-1.8-10.5-2.8l2.3-0.7c1.5,1.8,7.8,2,9.9,2c1.9,0,7.4-0.1,9.5-1.6L98.9,502.6z M92.5,500.7c-1.3,0.2-2.8,0.3-4.6,0.3
			c-2.3,0-4.2-0.2-5.6-0.4c0.4-0.1,0.8-0.4,0.8-0.9V496c1.6,1,3.4,1.5,5.4,1.4c1.4-0.1,2.6-0.6,3.7-1.3l-0.2,3.8
			C92,500.3,92.2,500.6,92.5,500.7z M96,500c-0.5,0.2-1.3,0.4-2.4,0.6c0.1-0.1,0.2-0.3,0.2-0.6v-0.6C94.9,499.6,95.6,499.8,96,500z
			 M226.7,456.4L226.7,456.4c0,0.2,0.1,0.4,0.2,0.5c-0.4-0.1-0.8-0.2-1.1-0.3C226,456.6,226.3,456.5,226.7,456.4z M220,484.8
			c0.9,1.7,2.2,2,3.2,2c0.5,0,1-0.1,1.6-0.3c1.6-0.6,2.7-2.7,3-4.4c0.3-1.7,1-4.4,2.6-8c0.1-0.1,0.1-0.2,0.2-0.4
			c1,1.5,1.7,3.3,2.1,5.2c1.2,6.2-1.4,12-5.9,12.9c-2.1,0.4-4.3-0.3-6.3-2.1c-2-1.8-3.4-4.6-4-7.6c-0.8-4.4,0.2-8.6,2.5-11
			C218.9,477,219,483,220,484.8z M230,497.2c-3.7,0.5-7.4-0.7-10.5-3.6c-3.2-2.9-5.3-7.2-6-11.9c-0.8-5.6,0.5-11.2,3.6-15.1
			c0.6-0.4,1.3-0.7,2-1c0,1-0.1,2-0.1,3.1l0,0c-3.7,2.5-5.4,8.1-4.3,13.7c0.7,3.4,2.3,6.5,4.6,8.6c1.9,1.8,4.1,2.7,6.3,2.7
			c0.5,0,1,0,1.5-0.1c5.4-1,8.7-7.8,7.3-15c-0.5-2.5-1.4-4.7-2.8-6.6c0.5-0.8,1.1-1.5,1.8-2.2c2.5,2.8,4.1,6.6,4.7,10.6
			c0.8,5.6-0.5,11.3-3.6,15.1C233.1,496.4,231.6,497,230,497.2z M242.9,478.5c0.5,3.6,0.8,11.1-5.3,15.6c2.2-4,3.1-9,2.3-14
			c-0.7-4.4-2.5-8.5-5.2-11.6c0.6-0.5,1.3-1.1,1.9-1.5c0,0,0,0,0.1,0.1C240,469.4,242.3,474.6,242.9,478.5z M241.1,469.3
			c-0.9-1.3-1.9-2.4-3-3.3c2.1-1.3,4-2.1,5-2.5C243.5,465,242.8,467,241.1,469.3z M242.8,461.7c-2.4,0.9-10.9,4.5-14.1,11.7
			c-1.7,3.8-2.4,6.7-2.8,8.4c-0.3,1.4-1.1,2.7-1.9,3c-0.3,0.1-0.7,0.2-0.9,0.2c-0.4,0-1-0.1-1.6-1.1c-0.2-0.4-0.4-1.1-0.5-2.1
			c0.5,0.8,1.2,1.3,2.1,1.3c1.5,0,2.7-1.5,2.7-3.3c0-1.9-1.2-3.3-2.7-3.3c-1,0-1.9,0.7-2.3,1.8c-0.2-5.2,0.1-12.6,0.5-18.4
			c1.5,1.1,4.4,2.3,9.7,2.4c6,0.2,10-0.9,11.9-1.7L242.8,461.7z M222.3,479.7c0-0.9,0.5-1.5,0.9-1.5s0.9,0.7,0.9,1.5
			c0,0.9-0.5,1.5-0.9,1.5C222.7,481.2,222.3,480.5,222.3,479.7z M237.9,456.7v-0.4c0.6,0.1,1.1,0.2,1.4,0.4
			c-0.4,0.1-0.9,0.3-1.5,0.4C237.9,456.9,237.9,456.8,237.9,456.7z M240.9,457.9l1.2,1c-1.8,0.7-5.6,1.7-11.1,1.5
			c-5.4-0.2-7.9-1.5-8.9-2.3l1.8-0.6c1.4,1.5,6.4,1.7,8.8,1.7C234.7,459.2,239.1,459.1,240.9,457.9z M236.3,457.2
			c-1,0.1-2.3,0.2-3.8,0.2c-1.8,0-3.3-0.1-4.5-0.3c0.2-0.2,0.4-0.4,0.4-0.7v-3.8c0.9,0.4,1.9,0.7,2.9,0.8c1.8,0.2,3.5-0.2,5-1
			l-0.2,4.2C236.1,456.9,236.2,457.1,236.3,457.2z M240.3,433.5c-0.2,0.2-0.3,0.4-0.3,0.6l-1.1,11.5c-0.3,3.7-3.6,6.5-7.4,6.1
			c-3.7-0.3-6.4-3.6-6.1-7.4l1.3-14.4c0.2-1.7,0.9-3.2,2.1-4.3L263,394l10.2,9L240.3,433.5z M391.8,537.1v0.3c0,0.5,0.4,0.9,0.9,0.9
			s0.9-0.4,0.9-0.9v-4.5c0.9,0.6,1.8,1.1,2.9,1.4c0.7,0.2,1.4,0.3,2.2,0.3c1.7,0,3.4-0.5,4.7-1.4l-0.2,4.5c0,0.4,0.2,0.7,0.6,0.9
			c-1.4,0.2-3,0.3-5,0.3c-4.7,0-7.6-0.6-8.7-1.1C390.4,537.5,390.9,537.3,391.8,537.1z M383.8,571.4c1.1,1.9,2.6,2.3,3.6,2.3
			c0.6,0,1.2-0.1,1.8-0.3c1.9-0.7,3.1-3.1,3.5-5.1s1.3-5.4,3.2-9.7c0.1-0.2,0.2-0.5,0.4-0.7c1.3,1.9,2.2,4.2,2.7,6.6
			c1.5,7.6-1.8,14.7-7.3,15.7c-2.6,0.5-5.3-0.4-7.7-2.6c-2.4-2.3-4.2-5.6-4.9-9.3c-1.1-5.5,0.3-10.8,3.4-13.7
			C382.4,561.8,382.5,569.2,383.8,571.4z M395.6,586.7c-4.5,0.7-9-0.9-12.8-4.4c-3.8-3.6-6.4-8.7-7.3-14.4c-1-6.8,0.6-13.7,4.4-18.4
			c0.9-0.6,1.8-1,2.7-1.4c-0.1,1.3-0.1,2.7-0.2,4.2h-0.1c-4.4,3-6.5,9.6-5.2,16.4c0.8,4.1,2.7,7.8,5.4,10.3c2.3,2.1,4.9,3.2,7.5,3.2
			c0.6,0,1.2-0.1,1.7-0.2c6.5-1.2,10.4-9.2,8.7-17.8c-0.6-2.9-1.7-5.7-3.4-7.9c0,0,0,0-0.1-0.1c0.7-1,1.5-2,2.4-2.9
			c3.1,3.4,5.2,8,5.9,13c1,6.8-0.6,13.7-4.4,18.4C399.5,585.7,397.6,586.4,395.6,586.7z M411.3,564c0.7,4.5,1,14.1-7.2,19.5
			c2.9-4.9,4.1-11.2,3.2-17.5c-0.8-5.3-3.1-10.3-6.4-14c0.8-0.7,1.7-1.4,2.6-2c0.1,0.1,0.1,0.1,0.2,0.2
			C407.8,552.8,410.6,559.1,411.3,564z M409.1,553.2c-1.1-1.7-2.5-3.2-3.9-4.3c2.7-1.7,5.3-2.8,6.5-3.3
			C412.1,547.5,411.2,550.2,409.1,553.2z M411.3,543.8c-2.7,1-13.1,5.3-17,14c-2,4.5-2.9,8-3.3,10.1c-0.3,1.7-1.4,3.4-2.4,3.8
			c-1.5,0.5-2.5,0.2-3.3-1.2c-0.4-0.6-0.6-2-0.8-3.8c0.4,1.4,1.5,2.4,2.8,2.4c1.7,0,3-1.7,3-3.8s-1.3-3.8-3-3.8
			c-1.5,0-2.7,1.3-3,3.1c-0.3-6.3,0-16,0.5-23.6c1.7,1.3,5.1,2.9,11.8,3.1c7.4,0.2,12.3-1.2,14.5-2.1L411.3,543.8z M386.1,565.4
			c0-1.2,0.6-2,1.2-2s1.2,0.8,1.2,2s-0.6,2-1.2,2C386.8,567.4,386.1,566.6,386.1,565.4z M410.5,540.4c-2.1,0.8-6.7,2.1-13.7,1.9
			c-7-0.2-10-2-11.1-3.1l2.6-0.8c1.5,1.9,8.2,2.1,10.5,2.1c2.1,0,7.9-0.1,10-1.6L410.5,540.4z M407.4,537.6
			c-0.5,0.2-1.5,0.5-2.8,0.7c0.2-0.2,0.4-0.4,0.4-0.7v-0.7C406.3,537.2,407,537.4,407.4,537.6z M405.2,527.7c-0.8,3-3.5,5.1-6.5,5.1
			c-0.6,0-1.1-0.1-1.7-0.2c-3.6-0.9-5.8-4.6-4.8-8.3c0.5-2.1,1.4-8.5-1-12.7c0,0,0-0.1-0.1-0.1c-5.4-7.1-68.4-66.4-113.7-107.1
			c0-0.1-0.1-0.3-0.2-0.4l-13.6-12c0,0-0.1,0-0.1-0.1c-13-11.4-21.6-18.7-25.8-21.6c-15.9-11.2-32.2,0.1-34,1.4c0,0-0.1,0-0.1,0.1
			C165.2,408.1,102.4,468,97.8,474.4c-3.9,5.8-3.4,13.7-3.4,13.8c0.3,3.7-2.4,7-6.1,7.3s-7-2.4-7.3-6.1c-0.1-1.3-0.9-12.8,5.6-22.6
			c5.5-8.3,91-89,108.1-105.1c0.1-0.1,0.3-0.3,0.5-0.4c2.4-1.9,5.6-3.8,8.9-5.3c0,0,0.1,0,0.1-0.1l37.1,0.7l0,0
			c1.5,0.8,2.9,1.7,4.2,2.6c4.3,3.1,14.1,11.2,28.2,23.7c0,0,0,0,0.1,0l11.2,9.8c0.1,0.1,0.1,0.3,0.2,0.4
			c40.5,36.2,100.7,92.4,114.7,108c0.2,0.2,0.4,0.3,0.7,0.3h0.1c1.5,1.4,2.7,3.2,3.6,5.1c-0.1,0.1-0.1,0.1-0.2,0.2
			c-0.1,0.2-0.1,0.5,0,0.7C407.9,516.7,405.5,526.6,405.2,527.7z M316.7,362.7l-30.8,28.5l-10.2-8.9l25.1-23.2l20.2,0.8
			C319.3,360.8,317.5,362.1,316.7,362.7z M324.2,360l70.5,2.7c0.3,1.5,0.9,2.9,1.9,4l87.6,104.8l-83.3,28
			c-14.3-15.6-70.6-68.3-110.6-104.2c0-0.2-0.1-0.3-0.3-0.5l-2.8-2.4l30.7-28.4C318.9,363.2,322.6,360.9,324.2,360z M274.3,381.1
			c-13.8-12.2-23.4-20.2-27.8-23.3c-0.4-0.3-0.8-0.6-1.3-0.9l53,2L274.3,381.1z M490.2,494L490.2,494c0,0.3,0.1,0.5,0.2,0.7
			c-0.6-0.1-1.1-0.2-1.4-0.4C489.3,494.2,489.7,494.1,490.2,494z M483.2,524c1,1.7,2.3,2.1,3.3,2.1c0.5,0,1.1-0.1,1.6-0.3
			c1.7-0.6,2.8-2.8,3.2-4.6c0.3-1.8,1.1-4.7,2.8-8.5c0.1-0.2,0.1-0.3,0.2-0.5c1.1,1.6,1.8,3.6,2.2,5.6c1.3,6.6-1.5,12.7-6.3,13.7
			c-2.2,0.4-4.6-0.4-6.7-2.3c-2.1-2-3.6-4.8-4.3-8.1c-0.9-4.7,0.2-9.2,2.8-11.8C482,515.7,482.1,522.1,483.2,524z M493.7,537.2
			c-3.9,0.6-7.8-0.8-11.1-3.8c-3.3-3.1-5.6-7.6-6.3-12.6c-0.9-6,0.5-11.9,3.8-16c0.7-0.5,1.4-0.8,2.2-1.1c0,1.1-0.1,2.2-0.1,3.4l0,0
			c-3.9,2.7-5.7,8.5-4.6,14.4c0.7,3.6,2.4,6.9,4.8,9.1c2,1.9,4.3,2.9,6.7,2.9c0.5,0,1,0,1.6-0.1c5.7-1.1,9.2-8.2,7.7-15.8
			c-0.5-2.6-1.5-5-3-7l0,0c0.6-0.8,1.2-1.6,1.9-2.4c2.6,3,4.4,7,5.1,11.3c0.9,6-0.5,11.9-3.8,16C497,536.3,495.4,536.9,493.7,537.2z
			 M507.4,517.4c0.6,3.8,0.8,12-5.9,16.7c2.4-4.2,3.4-9.6,2.6-15c-0.7-4.7-2.7-9-5.5-12.2c0.7-0.6,1.4-1.2,2.1-1.7l0.1,0.1
			C504.2,507.7,506.7,513.2,507.4,517.4z M505.5,507.8c-0.9-1.4-2-2.6-3.3-3.6c2.3-1.4,4.3-2.3,5.4-2.7
			C508,503,507.2,505.3,505.5,507.8z M507.3,499.7c-2.5,0.9-11.5,4.7-14.9,12.3c-1.8,4-2.6,7-2.9,8.9c-0.3,1.5-1.2,2.9-2,3.2
			c-0.4,0.1-0.7,0.2-1,0.2c-0.5,0-1.1-0.1-1.7-1.2c-0.3-0.5-0.4-1.3-0.6-2.5c0.5,0.9,1.3,1.5,2.3,1.5c1.5,0,2.7-1.5,2.7-3.5
			s-1.2-3.5-2.7-3.5c-1.1,0-2.1,0.8-2.5,2.1c-0.2-5.4,0.1-13.4,0.5-19.7c1.6,1.2,4.6,2.5,10.3,2.6c6.4,0.2,10.6-1,12.6-1.8
			L507.3,499.7z M485.5,518.6c0-1,0.5-1.7,1-1.7c0.4,0,0.9,0.7,0.9,1.7s-0.5,1.7-0.9,1.7C486,520.3,485.5,519.6,485.5,518.6z
			 M506.5,496.7c-1.9,0.7-5.9,1.8-11.8,1.6c-5.9-0.2-8.5-1.6-9.6-2.5l2-0.6c1.5,1.7,7.3,1.8,9.2,1.8c1.8,0,6.8-0.1,8.8-1.4
			L506.5,496.7z M500.5,495c-1.1,0.1-2.5,0.2-4.1,0.2c-2,0-3.6-0.1-4.9-0.3c0.3-0.2,0.5-0.4,0.5-0.8v-4.7c1,0.7,2.2,1.2,3.5,1.4
			c0.4,0.1,0.8,0.1,1.2,0.1c1.3,0,2.5-0.3,3.6-0.8l-0.2,4.2C500.2,494.5,500.3,494.8,500.5,495z M503.7,494.3
			c-0.4,0.2-1,0.3-1.9,0.5c0.1-0.1,0.1-0.3,0.1-0.4v-0.5C502.8,494,503.4,494.2,503.7,494.3z M497.5,463.5c0.8,0.9,7.5,9.2,6,19.7
			c-0.5,3.3-3.3,5.8-6.7,5.8c-0.3,0-0.6,0-1-0.1c-3.7-0.5-6.3-4-5.7-7.6c0.1-0.8,0.1-1.6,0-2.5c0-0.3-0.2-0.5-0.4-0.6
			c-0.2-0.1-0.5-0.2-0.8-0.1l-83.4,28c-0.9-1.8-2-3.6-3.4-5l83.9-28.2c0.3-0.1,0.5-0.3,0.6-0.6c0.1-0.3,0-0.6-0.2-0.8L398,365.6
			c-0.7-0.8-1.2-1.8-1.4-2.8l17.2,0.7L497.5,463.5z M511.3,327.5l-0.1,0.4v0.1l0.7,0.5l-0.8-0.4c0,0,0,0-0.1,0.1c0,0-0.1,0.1,0,0.1
			l-0.1,0.1h-0.1l-0.1,0.1l-78.4,29c-0.1,0-0.1,0.1-0.2,0.1c0,0-5,3.2-9.1,4.3c-3,0.8-8.6-0.1-8.6-0.1s0,0-0.1,0l0,0l-18.7-0.7l0,0
			l-71.6-2.7l0,0l-23.5-0.9l0,0l-56-2.1c-0.1-0.1-0.3-0.2-0.5-0.2l-40.8-0.8c-1.1-0.3-2-0.6-2.7-1c-10.3-4.9-15-16.7-22.8-36.4
			c-2.8-7-12.9-33.3-30.2-78.2c-0.1-0.3-0.4-0.5-0.8-0.6c-3.4-0.3-8.6-1.2-13.7-3.7c-1.9-0.9-5.8-2.8-19.9-39.2
			c-7.3-18.8-14.1-38.7-16.2-45.4c-3.4-10.6-20.1-25.5-26.3-30.4c-0.6-0.5-1-1.2-1.1-2s0.1-1.5,0.6-2.2c0.5-0.6,1.2-1,2-1.1
			s1.5,0.1,2.2,0.6c1,0.8,23.5,18.7,28.2,33.2c8.1,25,27,76.3,33,81c0.1,0,0.1,0.1,0.2,0.1c2.3,1.1,4.9,1.9,7.6,2.5
			c0.3,0.1,0.7,0,0.9-0.3s0.3-0.6,0.2-0.9c-15.6-40.6-31.3-81.3-33.8-87.8l-0.3-0.7v-0.1c-0.6-1.2-1.8-4.3,0-8.1
			c0.5-1.1,1.3-2.2,2.2-3.1c0.2-0.2,0.3-0.5,0.2-0.7c0-0.3-0.2-0.5-0.4-0.6l-24.4-17c-1.3-0.9-1.7-2.7-0.7-4.1
			c0.4-0.6,1.1-1.1,1.9-1.2s1.5,0,2.2,0.5l25.8,17.9c0.2,0.1,0.4,0.3,0.6,0.6c0.3,0.3,0.7,0.4,1.1,0.2c6.4-3.2,15.9-5.5,29-6.9
			c27.9-3.1,56.5-8,75.6-11.6l0,0l7.7-1.5l0,0c0.3,0,0.5-0.1,0.8-0.2h0.2l0,0c2.2-0.4,4.2-0.8,6.1-1.2c0.3-0.1,0.5-0.2,0.6-0.5
			c0.1-0.2,0.1-0.5,0-0.8l-5.9-14.2c0-0.1-0.1-0.2-0.2-0.3l0,0c0-0.2,0-0.4-0.1-0.6S232.3,88,232,88c-0.1-0.3-0.2-0.7-0.2-1
			c0-0.8,0.3-1.5,0.8-2.1c1.1-1.1,2.9-1.2,4.1-0.2l12.2,19.3c-3.6,0.7-3.8,2.8-4,5.4c0,0.1,0,0.2,0,0.4c-3.1,0.6-6.8,1.4-10.7,2.1
			c-24.6,4.5-60,10.4-85.7,13.2c-26.2,2.9-31.7,8.8-32.8,11.2c-0.6,1.3-0.3,2.5-0.1,2.8c0.1,0.2,0.2,0.4,0.3,0.5l0.6,1.5
			c0.1,0.3,0.3,0.5,0.6,0.5l10.1,2.9c0.1,0.2,0.3,0.4,0.5,0.4l274.8,78.4c-0.9,1.8-1.3,4.1-1.4,5.5l-4.8-1.4c-0.3-0.1-0.6,0-0.8,0.2
			c-0.2,0.2-0.3,0.5-0.3,0.8l1.4,16.5c0,0.4,0.3,0.7,0.7,0.8l5.6,1.5c0,0.2,0,0.4,0.2,0.6c1.1,1.3,2.8,1.4,4.4,1.5
			c0.5,0,1,0.1,1.4,0.1c2.4,0.4,4.9,1.1,7.3,1.7l1.8,0.5c4.1,1.1,8,2.2,12.3,2.7c0.8,0.1,1.5,0.1,2.2,0.1c0.2,0,0.3,0,0.5,0
			c-0.3,24.6-1.2,90.8-1.2,96c0,1.3-0.2,2.5-0.6,3.6c-0.1,0.3,0,0.7,0.2,0.9c0.2,0.2,0.4,0.3,0.6,0.3c0.1,0,0.2,0,0.3-0.1l7.6-2.8
			c0.3-0.1,0.6-0.5,0.6-0.8l1.4-89.7l67.6-18.1l-5.5,83.5c0,0.3,0.1,0.6,0.4,0.8c0.2,0.2,0.6,0.2,0.9,0.1l3.8-1.4
			c0.3-0.1,0.6-0.4,0.6-0.8l6.2-91.8c0.7-0.2,1.4-0.5,2.1-0.8l0,0L511.3,327.5z M403.1,245.6l-5-1.4l-1.3-14.6l4.6,1.3l0,0
			c0.1,1.2,0.4,2.3,0.6,3.5l0.1,0.3C402.8,237.8,403.1,241.8,403.1,245.6z M521.8,218.1c-0.7,2.3-1.4,4.4-1.7,6.4v0.3
			c-0.3,2.4-0.6,4.5-1.7,6.5c-1.1,0.6-2.4,1.2-3.8,1.6h-0.1l-3.7,0.9c-2.2,0.4-4.5,0.5-6.4,0.1c2-1.6,3.6-4.8,3.9-7
			c0.6-3.9,1-8-1-10.6c-0.8-1-1.8-1.7-3.2-2.1c2-0.6,4.8-1.2,6.7-1.5c3.6-0.7,5.8-1.2,6.8-1.8c1.1-0.7,2.1-1.4,2.2-2.5
			c0.1-1.1-0.6-2.1-1.4-2.9c-0.3-0.4-0.9-0.4-1.3,0c-0.4,0.3-0.4,0.9,0,1.3c0.8,0.9,0.9,1.3,0.9,1.4c-0.1,0.4-1,1-1.4,1.2
			c-0.8,0.5-3.6,1-6.2,1.6c-1.7,0.4-3.3,0.7-4.6,1c0,0,0,0,0-0.1c-0.1-0.2-0.2-0.3-0.3-0.4c-0.6-1.7-1.3-3.5-1.9-5.3l-0.6-2.6
			c1.8,0.8,3.9,1,6,1l0,0c0.5,0,0.9-0.4,0.9-0.9s-0.4-0.9-0.9-0.9c-2.1,0-4.3-0.2-6-1.3l1.5-1.5l0.8,0.1c5.8,0.4,15.6,1,17.9,6.4
			C524.6,209.6,523.2,213.9,521.8,218.1z"/>
		<path class="st1" d="M489.1,293.8c-0.8-0.6-1.8-0.8-2.8-0.5c-2.2,0.7-4,3.5-4.1,6.3l-0.1,1.3c-0.3,8.6-0.7,17.6-0.9,26.4
			c0,1.4,0.4,2.5,1.3,3.1c0.5,0.4,1.1,0.5,1.7,0.5c0.4,0,0.8-0.1,1.2-0.2c2.1-0.7,3.8-3.2,3.9-5.7c0.3-8.9,0.8-18,1.2-26.8v-0.8
			C490.7,295.9,490.1,294.5,489.1,293.8z M488.7,298.3l-1.2,26.8l0,0c-0.1,1.7-1.3,3.5-2.7,4c-0.4,0.1-0.9,0.2-1.3-0.1
			c-0.4-0.3-0.6-0.9-0.6-1.6c0.2-8.8,0.6-17.7,0.9-26.4v-1.3c0.1-2.1,1.4-4.2,2.8-4.7c0.2-0.1,0.3-0.1,0.5-0.1
			c0.3,0,0.5,0.1,0.7,0.2c0.5,0.4,0.8,1.3,0.8,2.3L488.7,298.3z"/>
		<path class="st1" d="M425.2,313.2l-22.1-2.2c-0.3,0-0.5,0.1-0.7,0.3c-0.2,0.2-0.3,0.5-0.3,0.7l2.4,27.8c0,0.4,0.4,0.8,0.8,0.8
			l19.3,1.5c0,0,0,0,0.1,0c0.2,0,0.4-0.1,0.6-0.2c0.2-0.2,0.3-0.4,0.3-0.7c0.1-6.8,0.2-16.6,0.3-27.1
			C426,313.6,425.7,313.2,425.2,313.2z M423.9,340.3l-17.6-1.4l-2.3-26l20.2,2C424.1,324.7,424,333.7,423.9,340.3z"/>
		<path class="st1" d="M424.8,344.2l-18.9-1.5c-0.3,0-0.5,0.1-0.7,0.3c-0.2,0.2-0.3,0.4-0.3,0.7l0.9,10.9h0.9l-0.9,0.1
			c0,0.5,0.4,0.9,0.9,0.9c9.2,0.2,14.7,0.4,14.7,0.4l0,0c0.1,0,0.3,0,0.4-0.1c1.1-0.5,3.8-2.1,3.8-5.4c0-0.8,0-2.7,0-5.5
			C425.7,344.6,425.3,344.2,424.8,344.2z M423.8,350.6c0,2-1.5,3.1-2.6,3.6c-1.1,0-6-0.2-13.6-0.3l-0.8-9.3l17.1,1.3
			C423.8,348.3,423.8,349.9,423.8,350.6z"/>
		<path class="st1" d="M402.5,342.5l-17.9-1.4c-0.3,0-0.5,0.1-0.7,0.3c-0.2,0.2-0.3,0.5-0.2,0.7l1.6,11.8c0,0,0,0.1,0,0.2
			c0,0.2,0.1,0.5,0.2,0.7c0.2,0.2,0.4,0.3,0.7,0.3c6.5,0.2,12.3,0.3,17.3,0.5l0,0c0.2,0,0.5-0.1,0.7-0.3c0.2-0.2,0.3-0.4,0.2-0.7
			l-1-11.3C403.3,342.8,403,342.5,402.5,342.5z M387,353.3l-1.4-10.4l16,1.2l0.8,9.6C397.9,353.6,392.7,353.5,387,353.3z"/>
		<path class="st1" d="M455,304.6c-1-0.8-2.3-1-3.7-0.5c-2.8,0.9-5.2,4-5.2,7v0.9c-0.1,9.1-0.2,18.5-0.3,27.8c0,1,0.4,1.9,1.2,2.5
			c0.6,0.5,1.4,0.7,2.3,0.7c0.7,0,1.4-0.1,2.2-0.4c2.8-1,4.9-3.4,4.9-5.8c0-9,0.2-18.2,0.3-27.1v-1.2
			C456.6,306.8,456.1,305.4,455,304.6z M454.8,309.5c-0.1,8.9-0.2,18.1-0.3,27.1l0,0c0,1.6-1.6,3.4-3.7,4.1
			c-1.2,0.4-2.3,0.4-2.9-0.1c-0.3-0.2-0.5-0.6-0.5-1c0-9.3,0.2-18.7,0.3-27.8v-0.9c0-2.2,1.9-4.7,4-5.3c0.3-0.1,0.6-0.1,0.9-0.1
			c0.5,0,0.9,0.1,1.2,0.4c0.6,0.5,0.9,1.3,0.9,2.3L454.8,309.5z"/>
		<path class="st1" d="M455.8,264.7c-1-0.8-2.5-1-4.2-0.6c-2.9,0.7-5.2,3.1-5.2,5.5c0,9.4-0.2,18.9-0.3,28.1v0.5
			c0,1.5,0.6,2.9,1.7,3.7c0.7,0.5,1.6,0.8,2.5,0.8c0.5,0,0.9-0.1,1.4-0.2c2.8-0.8,5-3.8,5-6.8l0,0v-1.4c0.1-8.8,0.2-17.9,0.3-26.9
			C457.1,266.3,456.6,265.4,455.8,264.7z M455,294.3v1.4c0,2.2-1.7,4.5-3.7,5.1c-0.9,0.3-1.7,0.2-2.4-0.3c-0.6-0.5-1-1.3-1-2.3v-0.5
			c0.1-9.2,0.2-18.8,0.3-28.1c0-1.5,1.7-3.2,3.8-3.7c0.4-0.1,0.8-0.1,1.1-0.1c0.6,0,1.2,0.2,1.5,0.4c0.4,0.3,0.6,0.7,0.6,1.3
			C455.3,276.4,455.1,285.5,455,294.3z"/>
		<path class="st1" d="M467.4,300.6c-0.9-0.7-2-0.8-3.1-0.5c-2.5,0.8-4.5,3.7-4.5,6.7v1.7c-0.1,8.7-0.3,17.6-0.3,26.5
			c0,1.2,0.5,2.2,1.3,2.8c0.6,0.4,1.3,0.6,2,0.6c0.5,0,1-0.1,1.6-0.3c2.4-0.8,4.2-3.2,4.2-5.6c0.1-9.2,0.3-18.5,0.5-27.6v-0.4
			C469,302.8,468.5,301.4,467.4,300.6z M467.2,304.8c-0.2,9-0.4,18.4-0.5,27.6l0,0c0,1.7-1.3,3.4-3,4c-0.8,0.3-1.5,0.2-2-0.1
			c-0.5-0.3-0.6-0.9-0.6-1.3c0.1-8.8,0.2-17.8,0.3-26.4v-1.7c0-2.1,1.6-4.4,3.3-5c0.2-0.1,0.4-0.1,0.6-0.1c0.3,0,0.6,0.1,0.9,0.3
			c0.6,0.4,0.9,1.3,0.9,2.4L467.2,304.8z"/>
		<path class="st1" d="M426.1,255.9l-28.2-7.7c-0.3-0.1-0.6,0-0.8,0.2c-0.2,0.2-0.3,0.5-0.3,0.8l2.3,26.5c0,0.4,0.3,0.7,0.7,0.8
			l25.6,4.3h0.1c0.2,0,0.4-0.1,0.6-0.2c0.2-0.2,0.3-0.4,0.3-0.7l0.3-23.1C426.7,256.3,426.5,256,426.1,255.9z M424.7,278.8l-23.9-4
			l-2.1-24.5l26.3,7.2L424.7,278.8z"/>
		<path class="st1" d="M478.5,297.1c-0.8-0.6-1.8-0.8-2.8-0.5c-2.3,0.7-4.1,3.5-4.2,6.4v1.5c-0.2,8.7-0.4,17.6-0.6,26.4
			c0,1.3,0.5,2.4,1.3,3c0.5,0.4,1.1,0.6,1.8,0.6c0.4,0,0.8-0.1,1.3-0.2c2.2-0.7,3.8-3.1,3.9-5.6c0.2-9.2,0.5-18.5,0.8-27.5v-0.3
			C480.1,299.3,479.5,297.9,478.5,297.1z M478.2,301.1l-0.8,27.6l0,0c0,1.7-1.2,3.4-2.7,3.9c-0.6,0.2-1.1,0.2-1.5-0.1
			c-0.4-0.3-0.6-0.8-0.6-1.5c0.1-8.8,0.3-17.7,0.6-26.4v-1.5c0.1-2.1,1.4-4.3,2.9-4.8c0.2-0.1,0.3-0.1,0.5-0.1
			c0.3,0,0.5,0.1,0.7,0.2c0.5,0.4,0.8,1.3,0.8,2.4L478.2,301.1z"/>
		<path class="st1" d="M356.7,304.4l19.5,1.9h0.1c0.2,0,0.5-0.1,0.6-0.3c0.2-0.2,0.3-0.5,0.2-0.7l-4.1-30.7
			c-0.1-0.4-0.4-0.7-0.7-0.8l-21.1-3.5c-0.3,0-0.6,0-0.8,0.3c-0.2,0.2-0.3,0.5-0.2,0.8l5.7,32.3C356,304,356.3,304.3,356.7,304.4z
			 M371.4,275.5l3.8,28.9l-17.7-1.7l-5.3-30.3L371.4,275.5z"/>
		<path class="st1" d="M265.7,295.4l19.1,1.9h0.1c0.3,0,0.5-0.1,0.7-0.3c0.2-0.2,0.3-0.5,0.2-0.8l-10.6-38.1
			c-0.1-0.3-0.4-0.6-0.7-0.6l-20.7-3.5c-0.3-0.1-0.6,0.1-0.8,0.3s-0.3,0.6-0.2,0.9l12.2,39.7C265.1,295.1,265.4,295.4,265.7,295.4z
			 M273.6,259.1l10.1,36.3l-17.2-1.7L254.9,256L273.6,259.1z"/>
		<path class="st1" d="M333.9,302.1l19.4,1.9h0.1c0.2,0,0.5-0.1,0.7-0.3c0.2-0.2,0.3-0.5,0.2-0.8l-5.7-32.5
			c-0.1-0.4-0.4-0.7-0.7-0.7l-21-3.5c-0.3,0-0.6,0.1-0.8,0.3c-0.2,0.2-0.3,0.5-0.2,0.8l7.3,34.1
			C333.2,301.8,333.5,302.1,333.9,302.1z M346.9,271.4l5.4,30.7l-17.6-1.7l-6.9-32.2L346.9,271.4z"/>
		<path class="st1" d="M288.4,297.6l19.2,1.9h0.1c0.3,0,0.5-0.1,0.7-0.3c0.2-0.2,0.3-0.5,0.2-0.8l-9-36.2c-0.1-0.3-0.4-0.6-0.7-0.7
			l-20.8-3.5c-0.3,0-0.6,0.1-0.8,0.3c-0.2,0.2-0.3,0.5-0.2,0.8l10.5,37.8C287.7,297.3,288,297.6,288.4,297.6z M298,263.2l8.5,34.4
			l-17.3-1.7l-10-35.9L298,263.2z"/>
		<path class="st1" d="M311.1,299.9l19.3,1.9h0.1c0.3,0,0.5-0.1,0.7-0.3c0.2-0.2,0.3-0.5,0.2-0.8l-7.3-34.4
			c-0.1-0.4-0.4-0.6-0.7-0.7l-20.9-3.5c-0.3,0-0.6,0.1-0.8,0.3c-0.2,0.2-0.3,0.5-0.2,0.8l8.9,36
			C310.4,299.6,310.7,299.8,311.1,299.9z M322.4,267.3l6.9,32.6l-17.4-1.7l-8.4-34L322.4,267.3z"/>
		<path class="st1" d="M314.8,225.4l-23-6.3c-0.3-0.1-0.6,0-0.9,0.2c-0.2,0.2-0.3,0.6-0.2,0.9l9.6,38.9c0.1,0.3,0.4,0.6,0.7,0.7
			l21,3.5h0.1c0.2,0,0.5-0.1,0.7-0.3c0.2-0.2,0.3-0.5,0.2-0.8l-7.7-36.2C315.4,225.8,315.2,225.5,314.8,225.4z M302,258.2l-9.1-36.9
			l20.9,5.7l7.3,34.4L302,258.2z"/>
		<path class="st1" d="M341.4,232.7l-23-6.3c-0.3-0.1-0.6,0-0.9,0.2c-0.2,0.2-0.3,0.5-0.3,0.8l7.6,35.8c0.1,0.4,0.4,0.6,0.7,0.7
			l21.1,3.6c0.1,0,0.1,0,0.1,0c0.2,0,0.5-0.1,0.6-0.3c0.2-0.2,0.3-0.5,0.2-0.8l-5.8-33.1C342,233.1,341.7,232.8,341.4,232.7z
			 M326.6,262.3l-7.2-33.8l21,5.7l5.5,31.3L326.6,262.3z"/>
		<path class="st1" d="M367.9,240l-23-6.3c-0.3-0.1-0.6,0-0.8,0.2c-0.2,0.2-0.3,0.5-0.3,0.8l5.7,32.7c0.1,0.4,0.4,0.7,0.7,0.7
			l21.3,3.6h0.1c0.2,0,0.5-0.1,0.6-0.3c0.2-0.2,0.3-0.5,0.3-0.8l-4-30C368.6,240.3,368.3,240.1,367.9,240z M351.2,266.4l-5.4-30.7
			l21.1,5.8l3.8,28.2L351.2,266.4z"/>
		<path class="st1" d="M288.2,218.2l-22.9-6.3c-0.3-0.1-0.6,0-0.9,0.2c-0.2,0.2-0.3,0.6-0.2,0.9l11.7,42.1c0.1,0.3,0.4,0.6,0.7,0.6
			l20.9,3.5c0.1,0,0.1,0,0.1,0c0.2,0,0.5-0.1,0.7-0.3c0.2-0.2,0.3-0.5,0.2-0.8l-9.7-39.3C288.8,218.5,288.5,218.2,288.2,218.2z
			 M277.5,254.1l-11.2-40l20.9,5.7l9.3,37.5L277.5,254.1z"/>
		<path class="st1" d="M371.4,240.9c-0.3-0.1-0.6,0-0.8,0.2c-0.2,0.2-0.3,0.5-0.3,0.8l3.9,29.6c0.1,0.4,0.4,0.7,0.7,0.8l21.4,3.6
			c0.1,0,0.1,0,0.1,0c0.2,0,0.4-0.1,0.6-0.2c0.2-0.2,0.3-0.5,0.3-0.7l-2.3-26.9c0-0.4-0.3-0.7-0.7-0.8L371.4,240.9z M395.5,273.9
			l-19.6-3.3l-3.7-27.6l21.1,5.8L395.5,273.9z"/>
		<path class="st1" d="M155.9,179.5c0.1,0.3,0.3,0.5,0.6,0.5l22.9,6.3c0.1,0,0.2,0,0.2,0c0.2,0,0.5-0.1,0.7-0.3s0.3-0.6,0.2-0.9
			l-7.1-19.7c-0.1-0.2,0-0.4,0-0.5c0.1-0.2,0-0.5-0.1-0.7s-0.3-0.4-0.5-0.4l-23.9-6.8c-0.3-0.1-0.7,0-0.9,0.3
			c-0.2,0.2-0.3,0.6-0.2,0.9L155.9,179.5z M171.6,165.3c0,0.2,0.1,0.4,0.1,0.7l6.5,18.1l-20.8-5.7l-7.3-19.2L171.6,165.3z"/>
		<path class="st1" d="M182.7,186.8c0.1,0.3,0.3,0.5,0.6,0.6l22.9,6.3c0.1,0,0.2,0,0.2,0c0.2,0,0.5-0.1,0.7-0.3s0.3-0.6,0.2-0.9
			l-6.4-19.2c0-0.1-0.1-0.3,0-0.5c0.1-0.5-0.1-1-0.6-1.1l-23.9-6.8c-0.3-0.1-0.7,0-0.9,0.3c-0.2,0.2-0.3,0.6-0.2,0.9L182.7,186.8z
			 M199.1,173.2c0,0.2,0.1,0.4,0.1,0.6l5.9,17.6l-20.9-5.7l-6.7-18.7L199.1,173.2z"/>
		<path class="st1" d="M59.8,91c-2.7,0-4.9,2.7-4.9,6s2.2,6,4.9,6s4.9-2.7,4.9-6S62.5,91,59.8,91z"/>
		<path class="st1" d="M243.1,293.2l19,1.9h0.1c0.3,0,0.5-0.1,0.7-0.3c0.2-0.2,0.3-0.5,0.2-0.8l-12.3-39.9c-0.1-0.3-0.4-0.6-0.7-0.6
			l-20.6-3.5c-0.3,0-0.6,0.1-0.8,0.3s-0.3,0.6-0.2,0.9l13.9,41.5C242.5,292.9,242.8,293.1,243.1,293.2z M249.3,255l11.7,38.1
			l-17.1-1.7l-13.2-39.6L249.3,255z"/>
		<path class="st1" d="M209.5,194.1c0.1,0.3,0.3,0.5,0.6,0.6l23,6.3c0.1,0,0.2,0,0.2,0c0.2,0,0.5-0.1,0.6-0.3
			c0.2-0.2,0.3-0.6,0.2-0.9l-5.8-18.8c0-0.1,0-0.3,0-0.4c0.1-0.2,0-0.5-0.1-0.7s-0.3-0.4-0.5-0.4l-24-6.8c-0.3-0.1-0.7,0-0.9,0.2
			s-0.3,0.6-0.2,0.9L209.5,194.1z M226.6,181c0,0.2,0,0.4,0.1,0.5l5.3,17.2l-20.9-5.7l-6.1-18.2L226.6,181z"/>
		<path class="st1" d="M208.2,196.3l-22.8-6.2c-0.3-0.1-0.7,0-0.9,0.3c-0.2,0.2-0.3,0.6-0.2,0.9l18.5,51.7c0.1,0.3,0.4,0.5,0.7,0.6
			l20.6,3.5h0.1c0.3,0,0.5-0.1,0.7-0.3s0.3-0.6,0.2-0.9L208.8,197C208.7,196.6,208.5,196.3,208.2,196.3z M204.3,241.7l-17.7-49.5
			l20.7,5.7l15.7,47L204.3,241.7z"/>
		<path class="st1" d="M225.8,249.2l-20.5-3.5c-0.3-0.1-0.6,0.1-0.8,0.3s-0.3,0.6-0.2,0.9l15.5,43.4c0.1,0.3,0.4,0.6,0.8,0.6l19,1.9
			h0.1c0.3,0,0.5-0.1,0.7-0.3c0.2-0.2,0.2-0.6,0.1-0.8l-14-41.8C226.4,249.5,226.1,249.3,225.8,249.2z M221.3,289.2l-14.8-41.4
			l18.5,3.1l13.3,40L221.3,289.2z"/>
		<path class="st1" d="M289.7,216c0.1,0.3,0.3,0.6,0.6,0.7l23.1,6.3c0.1,0,0.2,0,0.2,0c0.2,0,0.4-0.1,0.6-0.2
			c0.2-0.2,0.3-0.5,0.3-0.8l-3.7-17.4c0-0.1,0-0.2,0-0.4c0.1-0.2,0-0.5-0.1-0.7s-0.3-0.4-0.5-0.4l-24.1-6.9c-0.3-0.1-0.6,0-0.9,0.2
			c-0.2,0.2-0.3,0.6-0.2,0.9L289.7,216z M309.1,204.6c0,0.1,0,0.2,0,0.3l3.4,15.9l-21.2-5.8l-4.1-16.7L309.1,204.6z"/>
		<path class="st1" d="M362.5,337.4l18.1,1.4c0,0,0,0,0.1,0c0.2,0,0.5-0.1,0.7-0.3c0.2-0.2,0.3-0.5,0.2-0.7l-3.8-28.5
			c-0.1-0.4-0.4-0.7-0.8-0.8l-19.4-1.9c-0.3,0-0.6,0.1-0.7,0.3c-0.2,0.2-0.3,0.5-0.2,0.8l5.1,29.1
			C361.8,337,362.1,337.3,362.5,337.4z M376,310.1l3.6,26.7l-16.3-1.2l-4.8-27.2L376,310.1z"/>
		<path class="st1" d="M397,278l-21.2-3.6c-0.3,0-0.6,0-0.8,0.2c-0.2,0.2-0.3,0.5-0.3,0.8l4.1,30.4c0.1,0.4,0.4,0.7,0.8,0.8
			l19.7,1.9h0.1c0.2,0,0.5-0.1,0.6-0.3c0.2-0.2,0.3-0.5,0.3-0.7l-2.5-28.8C397.7,278.4,397.4,278.1,397,278z M380.5,304.9l-3.8-28.5
			l19.3,3.2l2.3,27L380.5,304.9z"/>
		<path class="st1" d="M384,339l18.1,1.4c0,0,0,0,0.1,0c0.2,0,0.5-0.1,0.6-0.3c0.2-0.2,0.3-0.4,0.3-0.7l-2.4-27.9
			c0-0.4-0.4-0.8-0.8-0.8l-19.5-1.9c-0.3,0-0.5,0.1-0.7,0.3c-0.2,0.2-0.3,0.5-0.2,0.7l3.8,28.5C383.2,338.6,383.5,339,384,339z
			 M398.9,312.4l2.3,26.1l-16.3-1.3l-3.5-26.6L398.9,312.4z"/>
		<path class="st1" d="M341,335.7l18,1.4c0,0,0,0,0.1,0c0.3,0,0.5-0.1,0.7-0.3c0.2-0.2,0.3-0.5,0.2-0.8l-5.1-29.1
			c-0.1-0.4-0.4-0.7-0.8-0.7l-19.3-1.9c-0.3,0-0.6,0.1-0.8,0.3c-0.2,0.2-0.3,0.5-0.2,0.8l6.3,29.6
			C340.3,335.4,340.6,335.7,341,335.7z M353.3,307.9l4.8,27.3l-16.2-1.2l-5.9-27.8L353.3,307.9z"/>
		<path class="st1" d="M343.1,230.5c0.1,0.3,0.3,0.6,0.6,0.7l23.2,6.3c0.1,0,0.2,0,0.2,0c0.2,0,0.4-0.1,0.6-0.2
			c0.2-0.2,0.3-0.5,0.3-0.8l-2.2-16.4l0,0c0-0.1,0-0.2,0-0.3c0.1-0.2,0-0.5-0.1-0.7s-0.3-0.4-0.5-0.4l-24.1-6.9
			c-0.3-0.1-0.6,0-0.8,0.2c-0.2,0.2-0.3,0.5-0.3,0.8L343.1,230.5z M364.1,220.3v0.1l2,15.1l-21.3-5.8L342,214L364.1,220.3z"/>
		<path class="st1" d="M369.7,237.8c0,0.4,0.3,0.7,0.7,0.7l23.2,6.3c0.1,0,0.2,0,0.2,0c0.2,0,0.4-0.1,0.6-0.2
			c0.2-0.2,0.3-0.5,0.3-0.8l-1.4-16c0-0.1,0-0.2,0-0.3c0.1-0.5-0.1-1-0.6-1.1l-24.2-6.9c-0.3-0.1-0.6,0-0.8,0.2
			c-0.2,0.2-0.3,0.5-0.3,0.8L369.7,237.8z M391.6,228.1L391.6,228.1l1.3,14.7l-21.4-5.8l-2-15.2L391.6,228.1z"/>
		<path class="st1" d="M316.4,223.3c0.1,0.3,0.3,0.6,0.6,0.7l23.1,6.3c0.1,0,0.2,0,0.2,0c0.2,0,0.4-0.1,0.6-0.2
			c0.2-0.2,0.3-0.5,0.3-0.8l-3-16.9c0-0.1,0-0.2,0-0.3c0.1-0.2,0-0.5-0.1-0.7s-0.3-0.4-0.5-0.4l-24.1-6.9c-0.3-0.1-0.6,0-0.9,0.2
			c-0.2,0.2-0.3,0.5-0.3,0.8L316.4,223.3z M336.6,212.4c0,0.1,0,0.2,0,0.2l2.7,15.5l-21.2-5.8l-3.4-16.2L336.6,212.4z"/>
		<path class="st1" d="M319.6,334.1l18,1.4c0,0,0,0,0.1,0c0.3,0,0.5-0.1,0.7-0.3c0.2-0.2,0.3-0.5,0.2-0.8l-6.3-29.7
			c-0.1-0.4-0.4-0.7-0.8-0.7l-19.2-1.9c-0.3,0-0.6,0.1-0.8,0.3c-0.2,0.2-0.3,0.5-0.2,0.8l7.5,30.2
			C318.9,333.8,319.2,334,319.6,334.1z M330.6,305.7l5.9,27.9l-16.2-1.2l-7-28.4L330.6,305.7z"/>
		<path class="st1" d="M233.6,327.5l17.9,1.4c0,0,0,0,0.1,0c0.3,0,0.5-0.1,0.7-0.3c0.2-0.2,0.2-0.6,0.1-0.8l-10.7-32
			c-0.1-0.3-0.4-0.6-0.8-0.6l-18.9-1.9c-0.3,0-0.6,0.1-0.8,0.3c-0.2,0.2-0.2,0.6-0.1,0.9l11.7,32.5
			C233,327.2,233.3,327.4,233.6,327.5z M240.2,296.7l10.1,30.2l-16-1.2l-11-30.6L240.2,296.7z"/>
		<path class="st1" d="M181.4,188.9l-22.8-6.2c-0.3-0.1-0.7,0-0.9,0.3s-0.3,0.6-0.2,0.9l20.9,54.9c0.1,0.3,0.4,0.5,0.7,0.6l20.6,3.5
			c0.1,0,0.1,0,0.1,0c0.3,0,0.5-0.1,0.7-0.3s0.3-0.6,0.2-0.9L182,189.6C182,189.2,181.7,189,181.4,188.9z M180,237.7L159.9,185
			l20.6,5.6l18,50.2L180,237.7z"/>
		<path class="st1" d="M211.4,325.2c0.1,0.3,0.4,0.6,0.8,0.6l17.9,1.4c0,0,0,0,0.1,0c0.3,0,0.5-0.1,0.7-0.4c0.2-0.2,0.2-0.6,0.1-0.8
			l-11.7-32.6c-0.1-0.3-0.4-0.6-0.8-0.6l-18.8-1.9c-0.3,0-0.6,0.1-0.8,0.3c-0.2,0.2-0.2,0.6-0.1,0.9L211.4,325.2z M217.7,294.5
			l11,30.8l-15.9-1.2L201,292.9L217.7,294.5z"/>
		<path class="st1" d="M197.3,288.1c0.1,0.3,0.4,0.5,0.8,0.6l18.9,1.9h0.1c0.3,0,0.5-0.1,0.7-0.3c0.2-0.2,0.2-0.6,0.1-0.9
			l-15.6-43.6c-0.1-0.3-0.4-0.5-0.7-0.6l-20.5-3.4c-0.3-0.1-0.6,0.1-0.8,0.3s-0.3,0.6-0.1,0.9L197.3,288.1z M200.7,246.8l15,41.8
			l-16.9-1.7l-16.5-43.2L200.7,246.8z"/>
		<path class="st1" d="M234.9,203.6l-22.9-6.3c-0.3-0.1-0.7,0-0.9,0.3c-0.2,0.2-0.3,0.6-0.2,0.9l16.2,48.5c0.1,0.3,0.4,0.5,0.7,0.6
			l20.7,3.5h0.1c0.3,0,0.5-0.1,0.7-0.3s0.3-0.6,0.2-0.9l-14-45.7C235.4,203.9,235.2,203.6,234.9,203.6z M228.6,245.8l-15.5-46.4
			l20.8,5.7l13.5,43.8L228.6,245.8z"/>
		<path class="st1" d="M261.6,210.9l-22.9-6.3c-0.3-0.1-0.7,0-0.9,0.2s-0.3,0.6-0.2,0.9l13.9,45.3c0.1,0.3,0.4,0.6,0.7,0.6l20.8,3.5
			c0.1,0,0.1,0,0.1,0c0.3,0,0.5-0.1,0.7-0.3s0.3-0.5,0.2-0.8l-11.8-42.5C262.1,211.2,261.9,210.9,261.6,210.9z M253,249.9
			l-13.3-43.2l20.8,5.7l11.3,40.7L253,249.9z"/>
		<path class="st1" d="M276.6,330.8l18,1.4c0,0,0,0,0.1,0c0.3,0,0.5-0.1,0.7-0.3c0.2-0.2,0.3-0.5,0.2-0.8l-8.6-30.9
			c-0.1-0.4-0.4-0.6-0.8-0.7l-19-1.9c-0.3,0-0.6,0.1-0.8,0.3c-0.2,0.2-0.3,0.5-0.2,0.8l9.7,31.4
			C275.9,330.5,276.2,330.7,276.6,330.8z M285.3,301.2l8.1,29.1l-16.1-1.2l-9.1-29.5L285.3,301.2z"/>
		<path class="st1" d="M255.1,329.1l17.9,1.4c0,0,0,0,0.1,0c0.3,0,0.5-0.1,0.7-0.3c0.2-0.2,0.2-0.5,0.2-0.8l-9.7-31.5
			c-0.1-0.3-0.4-0.6-0.8-0.6l-18.9-1.9c-0.3,0-0.6,0.1-0.8,0.3c-0.2,0.2-0.2,0.6-0.2,0.8l10.7,32
			C254.5,328.8,254.8,329.1,255.1,329.1z M262.8,299l9.1,29.6l-16-1.2l-10-30.1L262.8,299z"/>
		<path class="st1" d="M298.1,332.4l18,1.4c0,0,0,0,0.1,0c0.3,0,0.5-0.1,0.7-0.3c0.2-0.2,0.3-0.5,0.2-0.8l-7.5-30.3
			c-0.1-0.4-0.4-0.6-0.8-0.7l-19.1-1.9c-0.3,0-0.6,0.1-0.8,0.3c-0.2,0.2-0.3,0.5-0.2,0.8l8.6,30.8
			C297.4,332.1,297.7,332.4,298.1,332.4z M307.9,303.4l7,28.5l-16.1-1.2l-8.1-28.9L307.9,303.4z"/>
	</g>
	<path class="st1" d="M116.4,83c1.7,3.1,2.3,7,1.7,10c0.4,0,0.7,0,1.1-0.1c1-0.1,2-0.1,3-0.2c0.1,0,0.3,0,0.4,0.1l50.1-7.3
		c1.2-2.6,2-8.8,0.2-11.6c-0.7-1.1-1.6-1.6-2.9-1.6c-0.2,0-0.3-0.1-0.5-0.2l-55.8,7.6C114.7,80.5,115.6,81.6,116.4,83z"/>
	<g>
		<path class="st2" d="M402.1,223.3l-18.6-5.3l0,0l-2.8-0.8l0,0l-18.7-5.3l0,0l-2.8-0.8l0,0l-231.6-66c-0.2-0.1-0.4-0.2-0.5-0.4
			l-10.1-2.9c-0.3-0.1-0.5-0.3-0.6-0.5l-0.6-1.5c-0.1-0.2-0.2-0.4-0.3-0.5c-0.2-0.3-0.5-1.4,0.1-2.8c1.1-2.4,6.6-8.3,32.8-11.2
			c25.7-2.8,61.1-8.7,85.7-13.2c3.9-0.7,7.5-1.5,10.7-2.1c0-0.1,0-0.3,0-0.4c0.2-2.6,0.4-4.6,4-5.4l-12.2-19.3c-1.2-1-3-1-4.1,0.2
			c-0.5,0.6-0.8,1.3-0.8,2.1c0,0.4,0.1,0.7,0.2,1c0.2,0.1,0.4,0.2,0.6,0.4c0.1,0.2,0.1,0.4,0.1,0.6l0,0c0.1,0.1,0.2,0.2,0.2,0.3
			l5.9,14.2c0.1,0.2,0.1,0.5,0,0.8c-0.1,0.2-0.4,0.4-0.6,0.5c-1.8,0.4-3.9,0.8-6.1,1.2l0,0h-0.2c-0.3,0-0.5,0.1-0.8,0.2l0,0
			l-7.7,1.5l0,0c-19.1,3.6-47.7,8.5-75.6,11.6c-13.1,1.4-22.6,3.7-29,6.9c-0.4,0.2-0.8,0.1-1.1-0.2c-0.2-0.2-0.4-0.4-0.6-0.6
			l-25.8-17.9c-0.6-0.4-1.4-0.6-2.2-0.5c-0.8,0.1-1.4,0.6-1.9,1.2c-0.9,1.3-0.6,3.2,0.7,4.1l24.4,17c0.2,0.1,0.4,0.4,0.4,0.6
			c0,0.3-0.1,0.5-0.2,0.7c-0.9,1-1.7,2-2.2,3.1c-1.8,3.8-0.6,6.9,0,8.1v0.1l0.3,0.7c2.5,6.5,18.2,47.2,33.8,87.8
			c0.1,0.3,0.1,0.7-0.2,0.9c-0.2,0.3-0.5,0.4-0.9,0.3c-2.8-0.6-5.3-1.4-7.6-2.5c-0.1,0-0.1-0.1-0.2-0.1c-6-4.7-24.9-56-33-81
			c-4.7-14.5-27.2-32.4-28.2-33.2c-0.6-0.5-1.4-0.7-2.2-0.6c-0.8,0.1-1.5,0.5-2,1.1s-0.7,1.4-0.6,2.2c0.1,0.8,0.5,1.5,1.1,2
			c6.1,4.9,22.8,19.8,26.3,30.4c2.2,6.7,9,26.6,16.2,45.4c14,36.3,18,38.2,19.9,39.2c5.1,2.5,10.3,3.4,13.7,3.7
			c0.3,0,0.6,0.3,0.8,0.6c17.3,44.9,27.4,71.1,30.2,78.2c7.8,19.6,12.4,31.5,22.8,36.4c0.7,0.3,1.6,0.7,2.7,1l40.8,0.8
			c0.2,0,0.3,0.1,0.5,0.2l56,2.1l0,0l23.5,0.9l0,0l71.6,2.7l0,0l18.7,0.7l0,0c0,0,0,0,0.1,0s5.6,0.9,8.6,0.1c4-1.1,9-4.2,9.1-4.3
			c0.1,0,0.1-0.1,0.2-0.1l78.4-29c0,0,0.1,0,0.1-0.1h0.1c0,0,0.1,0,0.1-0.1c0,0,0,0,0-0.1l0.1-0.1l0.8,0.4l-0.7-0.5v-0.1l0.1-0.4
			l6.3-93.9l0,0c-0.7,0.3-1.3,0.6-2.1,0.8l-6.2,91.8c0,0.4-0.3,0.7-0.6,0.8l-3.8,1.4c-0.3,0.1-0.6,0.1-0.9-0.1
			c-0.2-0.2-0.4-0.5-0.4-0.8l5.5-83.5l-67.6,18.1L440,352c0,0.4-0.2,0.7-0.6,0.8l-7.6,2.8c-0.1,0-0.2,0.1-0.3,0.1
			c-0.2,0-0.5-0.1-0.6-0.3c-0.2-0.2-0.3-0.6-0.2-0.9c0.4-1.1,0.6-2.4,0.6-3.6c0-5.2,0.8-71.4,1.2-96c-0.2,0-0.3,0-0.5,0
			c-0.7,0-1.4,0-2.2-0.1c-4.2-0.5-8.1-1.5-12.3-2.7l-1.8-0.5c-2.4-0.7-4.8-1.3-7.3-1.7c-0.4-0.1-0.9-0.1-1.4-0.1
			c-1.6-0.1-3.3-0.2-4.4-1.5c-0.1-0.2-0.2-0.4-0.2-0.6l-5.6-1.5c-0.4-0.1-0.6-0.4-0.7-0.8l-1.4-16.5c0-0.3,0.1-0.6,0.3-0.8
			c0.2-0.2,0.5-0.3,0.8-0.2l4.8,1.4c0.1-1.3,0.5-3.6,1.4-5.4L402.1,223.3L402.1,223.3z M494.8,257.2c0.1-2.5,2-4.8,4.4-5.4
			c1.3-0.3,2.6-0.1,3.5,0.6c0.9,0.7,1.3,1.8,1.3,3c-0.4,7.9-0.8,16.5-1.5,26.9c-0.2,2.7-2.2,5.5-4.5,6.2c-0.4,0.1-0.7,0.2-1.1,0.2
			c-0.7,0-1.4-0.2-1.9-0.6c-1-0.8-1.5-2.1-1.4-3.7C494,275.5,494.4,266.3,494.8,257.2z M492.9,296.1c0.2-2.8,2.1-5.5,4.3-6.3
			c1.1-0.4,2.2-0.2,3.1,0.5c1,0.8,1.5,2.1,1.4,3.6v0.4c-0.6,8.8-1.1,18-1.6,26.9c-0.1,2.5-2,5-4.2,5.8c-0.4,0.2-0.9,0.2-1.3,0.2
			c-0.6,0-1.2-0.2-1.7-0.6c-0.9-0.7-1.4-1.8-1.3-3.2c0.4-9.2,0.9-18.4,1.4-27.4L492.9,296.1z M482.7,287.4
			c0.3-8.9,0.7-18.2,0.9-27.3c0.1-2.4,1.9-4.8,4.2-5.4c1.2-0.3,2.4-0.1,3.2,0.6c0.9,0.7,1.3,1.8,1.3,3.1c-0.3,9.2-0.7,18.4-1.1,27.3
			l0,0c-0.1,2.8-2,5.5-4.2,6.2c-0.3,0.1-0.7,0.2-1,0.2c-0.7,0-1.3-0.2-1.8-0.6c-1-0.8-1.6-2.2-1.5-3.9V287.4z M482.2,300.9l0.1-1.3
			c0.1-2.9,1.9-5.6,4.1-6.3c1-0.3,2-0.2,2.8,0.5c1,0.8,1.5,2.2,1.5,3.8v0.8c-0.4,8.8-0.8,17.9-1.2,26.8c-0.1,2.4-1.8,4.9-3.9,5.7
			c-0.4,0.1-0.8,0.2-1.2,0.2c-0.6,0-1.2-0.2-1.7-0.5c-0.9-0.7-1.4-1.8-1.3-3.1C481.5,318.4,481.8,309.5,482.2,300.9z M471.8,290.2
			c0.2-8.9,0.4-18.1,0.5-27.2c0-2.4,1.9-4.7,4.2-5.3c1.2-0.3,2.4-0.1,3.3,0.6s1.3,1.7,1.3,3c-0.2,9.4-0.5,19-0.7,27.5
			c-0.1,2.9-1.9,5.7-4.1,6.3c-0.3,0.1-0.7,0.2-1,0.2c-0.7,0-1.3-0.2-1.9-0.6c-1-0.8-1.6-2.2-1.6-3.9L471.8,290.2z M471.5,304.5V303
			c0.1-2.9,1.9-5.7,4.2-6.4c1-0.3,2-0.2,2.8,0.5c1,0.8,1.6,2.2,1.5,3.9v0.3c-0.3,9-0.6,18.4-0.8,27.5c-0.1,2.4-1.7,4.9-3.9,5.6
			c-0.4,0.1-0.9,0.2-1.3,0.2c-0.7,0-1.3-0.2-1.8-0.6c-0.9-0.6-1.4-1.7-1.3-3C471,322.1,471.2,313.1,471.5,304.5z M460,293.1
			c0.1-8.9,0.3-18,0.3-27c0-2.4,2-4.7,4.6-5.4c1.4-0.3,2.6-0.1,3.6,0.6c0.8,0.7,1.3,1.7,1.3,2.9c-0.1,9.1-0.2,18.4-0.4,27.3v0.5l0,0
			c-0.1,2.9-2,5.8-4.4,6.5c-0.4,0.1-0.8,0.2-1.2,0.2c-0.8,0-1.5-0.2-2.1-0.7c-1.1-0.8-1.7-2.2-1.6-3.8L460,293.1z M459.7,308.4v-1.7
			c0-2.9,2.1-5.9,4.5-6.7c1.2-0.4,2.3-0.2,3.1,0.5c1,0.8,1.6,2.2,1.6,3.8v0.4c-0.2,9-0.4,18.4-0.5,27.6c0,2.4-1.8,4.8-4.2,5.6
			c-0.5,0.2-1.1,0.3-1.6,0.3c-0.8,0-1.5-0.2-2-0.6c-0.8-0.6-1.3-1.6-1.3-2.8C459.4,326.1,459.6,317.1,459.7,308.4z M446.2,297.6
			c0.1-9.2,0.2-18.8,0.3-28.1c0-2.4,2.3-4.8,5.2-5.5c1.6-0.4,3.1-0.2,4.2,0.6c0.8,0.6,1.3,1.6,1.3,2.7c0,9-0.1,18.1-0.3,26.9v1.4
			l0,0c0,3-2.2,6-5,6.8c-0.5,0.1-1,0.2-1.4,0.2c-0.9,0-1.8-0.3-2.5-0.8c-1.1-0.8-1.7-2.2-1.7-3.7L446.2,297.6z M446,311.8v-0.9
			c0-3,2.4-6.1,5.2-7c1.4-0.4,2.7-0.2,3.7,0.5c1.1,0.8,1.7,2.2,1.6,3.7v1.2c-0.1,8.9-0.2,18.1-0.3,27.1c0,2.4-2.1,4.9-4.9,5.8
			c-0.7,0.3-1.5,0.4-2.2,0.4c-0.9,0-1.7-0.2-2.3-0.7c-0.8-0.6-1.2-1.5-1.2-2.5C445.8,330.3,445.9,320.9,446,311.8z M367.8,219.8
			c0.2-0.2,0.5-0.3,0.8-0.2l24.2,6.9c0.5,0.1,0.8,0.6,0.6,1.1c0,0.1,0,0.2,0,0.3l1.4,16c0,0.3-0.1,0.6-0.3,0.8
			c-0.2,0.1-0.4,0.2-0.6,0.2c-0.1,0-0.2,0-0.2,0l-23.2-6.3c-0.3-0.1-0.6-0.4-0.7-0.7l-2.3-17.1C367.4,220.3,367.5,220,367.8,219.8z
			 M228.5,250.9c-0.1-0.3,0-0.6,0.2-0.9c0.2-0.2,0.5-0.4,0.8-0.3l20.6,3.5c0.3,0.1,0.6,0.3,0.7,0.6l12.3,39.9c0.1,0.3,0,0.6-0.2,0.8
			c-0.2,0.2-0.4,0.3-0.7,0.3h-0.1l-19-1.9c-0.4,0-0.7-0.3-0.8-0.6L228.5,250.9z M240.3,292.4c-0.2,0.2-0.4,0.3-0.7,0.3h-0.1l-19-1.9
			c-0.3,0-0.6-0.3-0.8-0.6l-15.5-43.4c-0.1-0.3,0-0.6,0.2-0.9c0.2-0.2,0.5-0.4,0.8-0.3l20.5,3.5c0.3,0.1,0.6,0.3,0.7,0.6l14,41.8
			C240.5,291.8,240.5,292.2,240.3,292.4z M252.8,255c-0.1-0.3,0-0.6,0.2-0.9c0.2-0.2,0.5-0.3,0.8-0.3l20.7,3.5
			c0.3,0.1,0.6,0.3,0.7,0.6l10.6,38.1c0.1,0.3,0,0.6-0.2,0.8c-0.2,0.2-0.4,0.3-0.7,0.3h-0.1l-19.1-1.9c-0.4,0-0.7-0.3-0.8-0.6
			L252.8,255z M277.1,259.1c-0.1-0.3,0-0.6,0.2-0.8c0.2-0.2,0.5-0.3,0.8-0.3l20.8,3.5c0.4,0.1,0.6,0.3,0.7,0.7l9,36.2
			c0.1,0.3,0,0.6-0.2,0.8c-0.2,0.2-0.4,0.3-0.7,0.3h-0.1l-19.2-1.9c-0.4,0-0.7-0.3-0.8-0.7L277.1,259.1z M301.4,263.1
			c-0.1-0.3,0-0.6,0.2-0.8c0.2-0.2,0.5-0.3,0.8-0.3l20.9,3.5c0.4,0.1,0.7,0.3,0.7,0.7l7.3,34.4c0.1,0.3,0,0.6-0.2,0.8
			c-0.2,0.2-0.4,0.3-0.7,0.3h-0.1l-19.3-1.9c-0.4,0-0.7-0.3-0.8-0.7L301.4,263.1z M325.8,267.2c-0.1-0.3,0-0.6,0.2-0.8
			c0.2-0.2,0.5-0.3,0.8-0.3l21,3.5c0.4,0.1,0.7,0.4,0.7,0.7l5.7,32.5c0,0.3,0,0.6-0.2,0.8c-0.2,0.2-0.4,0.3-0.7,0.3h-0.1l-19.4-1.9
			c-0.4,0-0.7-0.3-0.8-0.7L325.8,267.2z M347.6,267.2c-0.2,0.2-0.4,0.3-0.6,0.3h-0.1l-21.1-3.6c-0.4-0.1-0.7-0.3-0.7-0.7l-7.6-35.8
			c-0.1-0.3,0-0.6,0.3-0.8c0.2-0.2,0.6-0.3,0.9-0.2l23,6.3c0.3,0.1,0.6,0.4,0.6,0.7l5.8,33.1C347.9,266.7,347.8,267,347.6,267.2z
			 M323.2,262.2c0.1,0.3,0,0.6-0.2,0.8c-0.2,0.2-0.4,0.3-0.7,0.3h-0.1l-21-3.5c-0.4-0.1-0.6-0.3-0.7-0.7l-9.6-38.9
			c-0.1-0.3,0-0.6,0.2-0.9c0.2-0.2,0.6-0.3,0.9-0.2l23,6.3c0.3,0.1,0.6,0.4,0.6,0.7L323.2,262.2z M298.6,258.1
			c0.1,0.3,0,0.6-0.2,0.8c-0.2,0.2-0.4,0.3-0.7,0.3h-0.1l-20.9-3.5c-0.3-0.1-0.6-0.3-0.7-0.6L264.3,213c-0.1-0.3,0-0.6,0.2-0.9
			c0.2-0.2,0.6-0.3,0.9-0.2l22.9,6.3c0.3,0.1,0.6,0.3,0.6,0.7L298.6,258.1z M274,253.9c0.1,0.3,0,0.6-0.2,0.8s-0.4,0.3-0.7,0.3H273
			l-20.8-3.5c-0.3-0.1-0.6-0.3-0.7-0.6l-13.9-45.3c-0.1-0.3,0-0.7,0.2-0.9s0.6-0.3,0.9-0.2l22.9,6.3c0.3,0.1,0.5,0.3,0.6,0.6
			L274,253.9z M249.6,249.8c0.1,0.3,0,0.6-0.2,0.9c-0.2,0.2-0.4,0.3-0.7,0.3h-0.1l-20.7-3.5c-0.3-0.1-0.6-0.3-0.7-0.6L211,198.4
			c-0.1-0.3,0-0.7,0.2-0.9s0.6-0.3,0.9-0.3l22.9,6.3c0.3,0.1,0.5,0.3,0.6,0.6L249.6,249.8z M225.1,245.6c0.1,0.3,0,0.6-0.2,0.9
			c-0.2,0.2-0.4,0.3-0.7,0.3h-0.1l-20.6-3.5c-0.3-0.1-0.6-0.3-0.7-0.6L184.3,191c-0.1-0.3,0-0.7,0.2-0.9s0.6-0.3,0.9-0.3l22.8,6.2
			c0.3,0.1,0.5,0.3,0.6,0.6L225.1,245.6z M200.7,241.5c0.1,0.3,0,0.6-0.2,0.9c-0.2,0.2-0.4,0.3-0.7,0.3h-0.1l-20.6-3.5
			c-0.3-0.1-0.6-0.3-0.7-0.6l-20.9-54.9c-0.1-0.3-0.1-0.7,0.2-0.9c0.2-0.3,0.6-0.3,0.9-0.3l22.8,6.2c0.3,0.1,0.5,0.3,0.6,0.6
			L200.7,241.5z M180.2,241.9c0.2-0.3,0.5-0.4,0.8-0.3l20.5,3.4c0.3,0.1,0.6,0.3,0.7,0.6l15.6,43.6c0.1,0.3,0.1,0.6-0.1,0.9
			c-0.2,0.2-0.4,0.3-0.7,0.3h-0.1l-18.9-1.9c-0.3,0-0.6-0.3-0.8-0.6L180,242.8C179.9,242.5,180,242.2,180.2,241.9z M198.9,291.2
			c0.2-0.2,0.5-0.4,0.8-0.3l18.8,1.9c0.3,0,0.6,0.3,0.8,0.6L231,326c0.1,0.3,0.1,0.6-0.1,0.8c-0.2,0.2-0.4,0.4-0.7,0.4
			c0,0,0,0-0.1,0l-17.9-1.4c-0.3,0-0.6-0.3-0.8-0.6L198.8,292C198.7,291.8,198.7,291.4,198.9,291.2z M221.2,294.2
			c-0.1-0.3-0.1-0.6,0.1-0.9c0.2-0.2,0.5-0.4,0.8-0.3l18.9,1.9c0.4,0,0.7,0.3,0.8,0.6l10.7,32c0.1,0.3,0,0.6-0.1,0.8
			c-0.2,0.2-0.4,0.3-0.7,0.3c0,0,0,0-0.1,0l-17.9-1.4c-0.4,0-0.7-0.3-0.8-0.6L221.2,294.2z M243.7,296.4c-0.1-0.3,0-0.6,0.2-0.8
			c0.2-0.2,0.5-0.4,0.8-0.3l18.9,1.9c0.4,0,0.7,0.3,0.8,0.6l9.7,31.5c0.1,0.3,0,0.6-0.2,0.8c-0.2,0.2-0.4,0.3-0.7,0.3c0,0,0,0-0.1,0
			l-17.9-1.4c-0.4,0-0.7-0.3-0.8-0.6L243.7,296.4z M266.2,298.6c-0.1-0.3,0-0.6,0.2-0.8c0.2-0.2,0.5-0.4,0.8-0.3l19,1.9
			c0.4,0,0.7,0.3,0.8,0.7l8.6,30.9c0.1,0.3,0,0.6-0.2,0.8c-0.2,0.2-0.4,0.3-0.7,0.3c0,0,0,0-0.1,0l-18-1.4c-0.4,0-0.7-0.3-0.8-0.6
			L266.2,298.6z M288.7,300.9c-0.1-0.3,0-0.6,0.2-0.8c0.2-0.2,0.5-0.3,0.8-0.3l19.1,1.9c0.4,0,0.7,0.3,0.8,0.7l7.5,30.3
			c0.1,0.3,0,0.6-0.2,0.8c-0.2,0.2-0.4,0.3-0.7,0.3c0,0,0,0-0.1,0l-18-1.4c-0.4,0-0.7-0.3-0.8-0.7L288.7,300.9z M311.3,303.1
			c-0.1-0.3,0-0.6,0.2-0.8c0.2-0.2,0.5-0.3,0.8-0.3l19.2,1.9c0.4,0,0.7,0.3,0.8,0.7l6.3,29.7c0.1,0.3,0,0.6-0.2,0.8
			c-0.2,0.2-0.4,0.3-0.7,0.3c0,0,0,0-0.1,0l-18-1.4c-0.4,0-0.7-0.3-0.8-0.7L311.3,303.1z M333.9,305.3c-0.1-0.3,0-0.6,0.2-0.8
			c0.2-0.2,0.5-0.3,0.8-0.3l19.3,1.9c0.4,0,0.7,0.3,0.8,0.7l5.1,29.1c0,0.3,0,0.6-0.2,0.8c-0.2,0.2-0.4,0.3-0.7,0.3c0,0,0,0-0.1,0
			l-18-1.4c-0.4,0-0.7-0.3-0.8-0.7L333.9,305.3z M356.6,307.5c0-0.3,0-0.6,0.2-0.8c0.2-0.2,0.5-0.3,0.7-0.3l19.4,1.9
			c0.4,0,0.7,0.4,0.8,0.8l3.8,28.5c0,0.3-0.1,0.5-0.2,0.7c-0.2,0.2-0.4,0.3-0.7,0.3c0,0,0,0-0.1,0l-18.1-1.4c-0.4,0-0.7-0.3-0.8-0.7
			L356.6,307.5z M379.3,309.7c0-0.3,0.1-0.5,0.2-0.7c0.2-0.2,0.5-0.3,0.7-0.3l19.5,1.9c0.4,0,0.8,0.4,0.8,0.8l2.4,27.9
			c0,0.3-0.1,0.5-0.3,0.7c-0.2,0.2-0.4,0.3-0.6,0.3c0,0,0,0-0.1,0l-18.1-1.4c-0.4,0-0.8-0.4-0.8-0.8L379.3,309.7z M400,308.2
			c-0.2,0.2-0.4,0.3-0.6,0.3h-0.1l-19.7-1.9c-0.4,0-0.7-0.4-0.8-0.8l-4.1-30.4c0-0.3,0.1-0.6,0.3-0.8c0.2-0.2,0.5-0.3,0.8-0.2
			L397,278c0.4,0.1,0.7,0.4,0.7,0.8l2.5,28.8C400.3,307.8,400.2,308.1,400,308.2z M377.2,305.2c0,0.3-0.1,0.5-0.2,0.7
			c-0.2,0.2-0.4,0.3-0.6,0.3h-0.1l-19.5-1.9c-0.4,0-0.7-0.3-0.8-0.7l-5.7-32.3c-0.1-0.3,0-0.6,0.2-0.8c0.2-0.2,0.5-0.3,0.8-0.3
			l21.1,3.5c0.4,0.1,0.7,0.4,0.7,0.8L377.2,305.2z M372.3,271.3c-0.2,0.2-0.4,0.3-0.6,0.3h-0.1l-21.3-3.6c-0.4-0.1-0.7-0.4-0.7-0.7
			l-5.7-32.7c-0.1-0.3,0.1-0.6,0.3-0.8c0.2-0.2,0.5-0.3,0.8-0.2l23,6.3c0.3,0.1,0.6,0.4,0.7,0.7l4,30
			C372.6,270.9,372.5,271.2,372.3,271.3z M340.3,212c0.2-0.2,0.6-0.3,0.8-0.2l24.1,6.9c0.2,0.1,0.4,0.2,0.5,0.4s0.1,0.5,0.1,0.7
			c0,0.1,0,0.2,0,0.3l0,0l2.2,16.4c0,0.3-0.1,0.6-0.3,0.8c-0.2,0.1-0.4,0.2-0.6,0.2c-0.1,0-0.2,0-0.2,0l-23.2-6.3
			c-0.3-0.1-0.6-0.4-0.6-0.7l-3.1-17.7C340,212.5,340.1,212.2,340.3,212z M312.8,204.1c0.2-0.2,0.6-0.3,0.9-0.2l24.1,6.9
			c0.2,0.1,0.4,0.2,0.5,0.4s0.1,0.5,0.1,0.7c0,0.1,0,0.2,0,0.3l3,16.9c0.1,0.3-0.1,0.6-0.3,0.8c-0.2,0.2-0.4,0.2-0.6,0.2
			c-0.1,0-0.2,0-0.2,0l-23.1-6.3c-0.3-0.1-0.6-0.4-0.6-0.7l-3.9-18.2C312.5,204.7,312.6,204.3,312.8,204.1z M285.3,196.3
			c0.2-0.2,0.6-0.3,0.9-0.2l24.1,6.9c0.2,0.1,0.4,0.2,0.5,0.4s0.1,0.5,0.1,0.7c0,0.1,0,0.3,0,0.4l3.7,17.4c0.1,0.3,0,0.6-0.3,0.8
			c-0.2,0.2-0.4,0.2-0.6,0.2c-0.1,0-0.2,0-0.2,0l-23.1-6.3c-0.3-0.1-0.6-0.3-0.6-0.7l-4.6-18.7C285,196.9,285.1,196.5,285.3,196.3z
			 M257.9,188.5c0.2-0.2,0.6-0.3,0.9-0.2l24,6.9c0.2,0.1,0.4,0.2,0.5,0.4s0.1,0.5,0.1,0.7c0,0.1,0,0.3,0,0.4l4.4,17.8
			c0.1,0.3,0,0.6-0.2,0.9c-0.2,0.2-0.4,0.3-0.6,0.3c-0.1,0-0.2,0-0.2,0l-23.1-6.3c-0.3-0.1-0.5-0.3-0.6-0.6l-5.4-19.2
			C257.5,189,257.6,188.7,257.9,188.5z M230.4,180.7c0.2-0.2,0.6-0.3,0.9-0.2l24,6.9c0.2,0.1,0.4,0.2,0.5,0.4s0.1,0.5,0.1,0.7
			c0,0.1-0.1,0.2,0,0.4l5.1,18.3c0.1,0.3,0,0.6-0.2,0.9c-0.2,0.2-0.4,0.3-0.6,0.3c-0.1,0-0.2,0-0.2,0l-23-6.3
			c-0.3-0.1-0.5-0.3-0.6-0.6l-6.1-19.8C230.1,181.2,230.2,180.9,230.4,180.7z M202.9,172.8c0.2-0.2,0.6-0.3,0.9-0.2l24,6.8
			c0.2,0.1,0.4,0.2,0.5,0.4s0.1,0.5,0.1,0.7c0,0.1,0,0.3,0,0.4l5.8,18.8c0.1,0.3,0,0.7-0.2,0.9s-0.4,0.3-0.6,0.3c-0.1,0-0.2,0-0.2,0
			l-23-6.3c-0.3-0.1-0.5-0.3-0.6-0.6l-6.8-20.3C202.6,173.4,202.7,173.1,202.9,172.8z M175.4,165c0.2-0.2,0.6-0.3,0.9-0.3l23.9,6.8
			c0.5,0.1,0.8,0.6,0.6,1.1c0,0.2,0,0.3,0,0.5l6.4,19.2c0.1,0.3,0,0.7-0.2,0.9s-0.4,0.3-0.7,0.3c-0.1,0-0.2,0-0.2,0l-22.9-6.3
			c-0.3-0.1-0.5-0.3-0.6-0.6l-7.4-20.8C175.1,165.6,175.2,165.2,175.4,165z M148,157.2c0.2-0.3,0.6-0.4,0.9-0.3l23.9,6.8
			c0.2,0.1,0.4,0.2,0.5,0.4s0.1,0.5,0.1,0.7c0,0.1-0.1,0.3,0,0.5l7.1,19.7c0.1,0.3,0,0.7-0.2,0.9s-0.4,0.3-0.7,0.3
			c-0.1,0-0.2,0-0.2,0l-22.9-6.3c-0.3-0.1-0.5-0.3-0.6-0.5l-8.1-21.3C147.7,157.8,147.7,157.4,148,157.2z M129,172.5
			c-0.4,0-0.8-0.2-0.9-0.6l-8.4-21.8c-0.1-0.3-0.1-0.7,0.2-0.9c0.2-0.3,0.6-0.3,0.9-0.3l24.5,7c0.2,0.1,0.4,0.2,0.5,0.4
			s0.1,0.5,0.1,0.7c0,0.1-0.1,0.3,0,0.5l7.7,20.2c0.1,0.3,0.1,0.7-0.2,0.9c-0.2,0.2-0.4,0.3-0.7,0.3c-0.1,0-0.2,0-0.2,0l-23.1-6.3
			C129.3,172.5,129.2,172.5,129,172.5z M152.1,234.3c-7.8-20.4-15.8-41.2-22.4-58.1c-0.1-0.3-0.1-0.7,0.2-0.9
			c0.2-0.3,0.6-0.4,0.9-0.3l23.9,6.5c0.3,0.1,0.5,0.3,0.6,0.5l21.1,55.3c0.1,0.3,0.1,0.6-0.1,0.9c-0.2,0.2-0.4,0.3-0.7,0.3h-0.1
			l-22.6-3.8C152.5,234.8,152.2,234.6,152.1,234.3z M171.9,285.5c-5.2-13.5-11.6-30-18.2-47.1c-0.1-0.3-0.1-0.6,0.1-0.9
			c0.2-0.2,0.5-0.4,0.8-0.3l22.6,3.8c0.3,0.1,0.6,0.3,0.7,0.6l17.3,45.5c0.1,0.3,0.1,0.6-0.1,0.9c-0.2,0.2-0.4,0.4-0.7,0.4h-0.1
			l-21.7-2.1C172.3,286.1,172,285.9,171.9,285.5z M186.6,323.3c-1.1-2.7-2.2-5.5-3.5-8.6l0,0c-1.4-3.6-4.7-12-9.7-25.1
			c-0.1-0.3-0.1-0.6,0.1-0.9c0.2-0.2,0.5-0.4,0.8-0.4l21.7,2.1c0.3,0,0.6,0.3,0.8,0.6l12.6,33.2c0.1,0.3,0.1,0.6-0.1,0.9
			c-0.2,0.2-0.4,0.4-0.7,0.4c0,0,0,0-0.1,0l-21.1-1.6C187,323.8,186.7,323.6,186.6,323.3z M218.4,348.9c-0.2,0.2-0.4,0.4-0.7,0.4
			c0,0,0,0-0.1,0c-13.2-0.8-14.2-1.2-14.6-1.4c-6.2-2.9-10.2-10.1-14.7-20.6c-0.1-0.3-0.1-0.6,0.1-0.9c0.2-0.3,0.5-0.4,0.8-0.4
			l21,1.6c0.3,0,0.6,0.3,0.8,0.6l7.6,19.9C218.6,348.3,218.5,348.6,218.4,348.9z M239.1,349.9c-0.2,0.2-0.4,0.4-0.7,0.4l0,0
			c-6.6-0.3-12.5-0.6-17.3-0.8c-0.5,0-0.9-0.4-0.9-0.9c0-0.1,0-0.2,0-0.3l-7.3-19.1c-0.1-0.3-0.1-0.6,0.1-0.9
			c0.2-0.2,0.5-0.4,0.8-0.4l17.8,1.4c0.4,0,0.7,0.3,0.8,0.6l6.9,19.2C239.3,349.4,239.3,349.7,239.1,349.9z M259.8,350.7
			c-0.2,0.2-0.4,0.4-0.7,0.4l0,0c-6.1-0.2-12-0.5-17.4-0.7c-0.3,0-0.5-0.1-0.7-0.4c-0.2-0.2-0.2-0.5-0.2-0.7c0-0.1,0-0.3,0-0.4l0,0
			l-6.5-18.2c-0.1-0.3-0.1-0.6,0.1-0.8c0.2-0.2,0.5-0.4,0.8-0.4l17.8,1.4c0.4,0,0.7,0.3,0.8,0.6l6.1,18.4
			C260,350.2,260,350.5,259.8,350.7z M280.4,351.5c-0.2,0.2-0.4,0.4-0.7,0.4l0,0c-6-0.2-11.8-0.4-17.4-0.6c-0.3,0-0.5-0.2-0.7-0.4
			c-0.2-0.2-0.2-0.5-0.1-0.8c0-0.1,0.1-0.3,0-0.5l0,0l-5.8-17.2c-0.1-0.3,0-0.6,0.1-0.8c0.2-0.2,0.5-0.4,0.8-0.3l17.8,1.4
			c0.4,0,0.7,0.3,0.8,0.6l5.4,17.5C280.7,350.9,280.6,351.3,280.4,351.5z M301.1,352.2c-0.2,0.2-0.4,0.3-0.7,0.3l0,0
			c-5.9-0.2-11.7-0.4-17.5-0.6c-0.3,0-0.5-0.2-0.7-0.4c-0.2-0.2-0.2-0.5-0.1-0.8c0-0.1,0.1-0.3,0-0.5l-5-16.3
			c-0.1-0.3,0-0.6,0.2-0.8c0.2-0.2,0.5-0.4,0.8-0.3l17.8,1.4c0.4,0,0.7,0.3,0.8,0.7l4.6,16.5C301.3,351.7,301.2,351.9,301.1,352.2z
			 M321.7,352.8c-0.2,0.2-0.4,0.3-0.7,0.3l0,0c-5.8-0.2-11.6-0.4-17.4-0.5c-0.3,0-0.5-0.2-0.7-0.4c-0.2-0.2-0.2-0.5-0.1-0.8
			c0-0.1,0.1-0.3,0-0.4l-4.3-15.4c-0.1-0.3,0-0.6,0.2-0.8c0.2-0.2,0.5-0.4,0.8-0.3l17.9,1.4c0.4,0,0.7,0.3,0.8,0.7l3.8,15.5
			C321.9,352.3,321.9,352.6,321.7,352.8z M342.3,353.4c-0.2,0.2-0.4,0.3-0.7,0.3l0,0c-5.7-0.2-11.5-0.3-17.4-0.5
			c-0.3,0-0.5-0.1-0.7-0.4c-0.2-0.2-0.2-0.5-0.1-0.8c0-0.1,0-0.3,0-0.4l-3.6-14.5c-0.1-0.3,0-0.6,0.2-0.8c0.2-0.2,0.5-0.3,0.8-0.3
			l17.9,1.4c0.4,0,0.7,0.3,0.8,0.7l3.1,14.5C342.5,353,342.5,353.2,342.3,353.4z M362.9,354.1c-0.2,0.2-0.4,0.3-0.7,0.3l0,0
			c-5.6-0.2-11.4-0.3-17.4-0.5c-0.3,0-0.5-0.1-0.7-0.4c-0.2-0.2-0.2-0.5-0.2-0.8c0-0.1,0-0.2,0-0.3l0,0l-2.9-13.6
			c-0.1-0.3,0-0.6,0.2-0.8c0.2-0.2,0.5-0.3,0.7-0.3l17.9,1.4c0.4,0,0.7,0.3,0.8,0.7l2.4,13.5C363.1,353.6,363.1,353.8,362.9,354.1z
			 M383.5,354.6c-0.2,0.2-0.4,0.3-0.7,0.3l0,0c-5.4-0.1-11.2-0.3-17.3-0.5c-0.3,0-0.5-0.1-0.7-0.3c-0.2-0.2-0.2-0.5-0.2-0.7
			c0-0.1,0-0.2,0-0.3l-2.2-12.7c0-0.3,0-0.6,0.2-0.8c0.2-0.2,0.5-0.3,0.7-0.3l17.9,1.4c0.4,0,0.8,0.4,0.8,0.8l1.7,12.4
			C383.7,354.2,383.7,354.4,383.5,354.6z M404.1,355.2c-0.2,0.2-0.4,0.3-0.7,0.3l0,0c-5-0.1-10.8-0.3-17.3-0.5
			c-0.3,0-0.5-0.1-0.7-0.3c-0.2-0.2-0.2-0.4-0.2-0.7c0-0.1,0-0.1,0-0.2l-1.6-11.8c0-0.3,0.1-0.5,0.2-0.7c0.2-0.2,0.4-0.3,0.7-0.3
			l17.9,1.4c0.4,0,0.8,0.4,0.8,0.8l1,11.3C404.4,354.8,404.3,355,404.1,355.2z M425.6,350.5c0,3.3-2.7,4.8-3.8,5.4
			c-0.1,0.1-0.2,0.1-0.4,0.1l0,0c0,0-5.5-0.1-14.7-0.4c-0.5,0-0.9-0.4-0.9-0.9l0.9-0.1h-0.9l-0.9-10.9c0-0.3,0.1-0.5,0.3-0.7
			c0.2-0.2,0.4-0.3,0.7-0.3l18.9,1.5c0.5,0,0.8,0.4,0.8,0.9C425.6,347.8,425.6,349.7,425.6,350.5z M425.7,341.1
			c0,0.2-0.1,0.5-0.3,0.7c-0.2,0.2-0.4,0.2-0.6,0.2c0,0,0,0-0.1,0l-19.3-1.5c-0.4,0-0.8-0.4-0.8-0.8l-2.4-27.8
			c0-0.3,0.1-0.5,0.3-0.7c0.2-0.2,0.5-0.3,0.7-0.3l22.1,2.2c0.5,0,0.8,0.4,0.8,0.9C425.9,324.6,425.8,334.3,425.7,341.1z
			 M426.1,310.2c0,0.3-0.1,0.5-0.3,0.7c-0.2,0.1-0.4,0.2-0.6,0.2h-0.1l-22.4-2.2c-0.4,0-0.8-0.4-0.8-0.8l-2.5-28.6
			c0-0.3,0.1-0.5,0.3-0.7c0.2-0.2,0.5-0.3,0.8-0.2l25.2,4.2c0.4,0.1,0.8,0.5,0.8,0.9L426.1,310.2z M397,248.2
			c0.2-0.2,0.5-0.3,0.8-0.2l28.2,7.7c0.4,0.1,0.7,0.5,0.7,0.9l-0.3,23.1c0,0.3-0.1,0.5-0.3,0.7c-0.2,0.1-0.4,0.2-0.6,0.2h-0.1
			l-25.6-4.3c-0.4-0.1-0.7-0.4-0.7-0.8l-2.3-26.5C396.7,248.7,396.8,248.4,397,248.2z M395.1,247.9l2.3,26.9c0,0.3-0.1,0.5-0.3,0.7
			c-0.2,0.2-0.4,0.2-0.6,0.2h-0.1l-21.4-3.6c-0.4-0.1-0.7-0.4-0.7-0.8l-3.9-29.6c0-0.3,0.1-0.6,0.3-0.8c0.2-0.2,0.5-0.3,0.8-0.2
			l23,6.3C394.8,247.2,395.1,247.5,395.1,247.9z"/>
		<path class="st2" d="M246.2,111.3l24.9,72l5.1,1.9l1.2,0.3L266.3,150c-0.1-0.3,0-0.7,0.2-0.9s0.6-0.3,0.9-0.2l15.4,4.9
			c0.3,0.1,0.5,0.3,0.6,0.6l11.8,36.4l0.9,0.2l-11.4-35.1c-0.1-0.3,0-0.7,0.2-0.9s0.6-0.3,0.9-0.2l20,6.3c0.3,0.1,0.5,0.3,0.6,0.6
			l10.5,35.3l0.9,0.2L307.6,163c-0.1-0.3,0-0.7,0.2-0.9s0.6-0.3,0.9-0.2l20,6.3c0.3,0.1,0.5,0.3,0.6,0.6l9.2,34.1l0.8,0.2l-8.9-33
			c-0.1-0.3,0-0.7,0.2-0.9s0.6-0.3,0.9-0.2l20,6.3c0.3,0.1,0.5,0.3,0.6,0.6l7.9,33l0.8,0.2l-7.6-31.9c-0.1-0.3,0-0.6,0.3-0.9
			c0.2-0.2,0.6-0.3,0.9-0.2l20,6.4c0.3,0.1,0.5,0.4,0.6,0.7l6.5,31.9l0.8,0.2l-6.3-30.9c-0.1-0.3,0-0.6,0.3-0.8
			c0.2-0.2,0.6-0.3,0.9-0.2l20.1,6.4c0.3,0.1,0.6,0.4,0.6,0.7l5.2,30.7l0.8,0.2l-5-29.8c-0.1-0.3,0.1-0.6,0.3-0.8
			c0.2-0.2,0.6-0.3,0.9-0.2l20.1,6.4c0.3,0.1,0.6,0.4,0.6,0.7l3.8,29.5c0.2,0.1,0.5,0.2,0.7,0.3c0,0,0,0,0.1,0l-3.7-28.7
			c0-0.3,0.1-0.6,0.3-0.8c0.2-0.2,0.6-0.3,0.8-0.2l20.1,6.4c0.3,0.1,0.6,0.4,0.6,0.8l1.8,21.4c0.2-0.1,0.5-0.1,0.7-0.2l-1.7-20.2
			c0-0.3,0.1-0.6,0.3-0.8c0.2-0.2,0.5-0.2,0.8-0.2l20.1,6.4c0.4,0.1,0.6,0.4,0.6,0.8l0.4,10.5l0.7-0.2l-0.3-9.4
			c0-0.3,0.1-0.6,0.4-0.7c0.2-0.2,0.5-0.2,0.8-0.1l18,5.7l2.1-0.5l2.3-1.1h-0.1c-0.4-0.1-0.6-0.5-0.6-0.9l0.2-13
			c0-0.3,0.1-0.6,0.4-0.7c0.2-0.2,0.5-0.2,0.8-0.1l10,3.3c0-0.1-0.1-0.2-0.1-0.3c-0.3-0.7-0.6-1.5-0.3-2.6l-0.2-0.7v-0.1v-0.1
			c0-0.1,0-0.2,0-0.2s0,0,0-0.1s0.1-0.2,0.2-0.3l0,0l1.4-1.4l-245.7-79.8c-0.2-0.1-0.4-0.2-0.5-0.5l-6.8-14.1v-0.1
			c-3.3,0.6-3.4,2-3.7,4.6c0,0.1,0,0.2,0,0.3c0.2,0.1,0.4,0.3,0.5,0.6c0,0.2,0,0.5-0.1,0.6C246.1,111.1,246.2,111.2,246.2,111.3z
			 M466.8,194.4c0.2-0.2,0.5-0.2,0.8-0.1l21.1,6.9c0.4,0.1,0.6,0.5,0.6,0.9l-0.2,13c0,0.3-0.1,0.5-0.4,0.7c-0.2,0.1-0.3,0.2-0.5,0.2
			c-0.1,0-0.2,0-0.3,0l-20.4-6.4c-0.4-0.1-0.6-0.4-0.6-0.8l-0.5-13.5C466.4,194.9,466.6,194.6,466.8,194.4z M443.2,186.8
			c0.2-0.2,0.5-0.2,0.8-0.1l21,6.8c0.4,0.1,0.6,0.4,0.6,0.8l0.5,13.5c0,0.3-0.1,0.6-0.4,0.7c-0.2,0.1-0.4,0.2-0.5,0.2s-0.2,0-0.3,0
			l-20.4-6.4c-0.3-0.1-0.6-0.4-0.6-0.8l-1.2-13.9C442.8,187.2,442.9,187,443.2,186.8z M419.5,179.1c0.2-0.2,0.6-0.3,0.9-0.2l21,6.8
			c0.3,0.1,0.6,0.4,0.6,0.8l1.2,14c0,0.3-0.1,0.6-0.3,0.8c-0.2,0.1-0.4,0.2-0.6,0.2c-0.1,0-0.2,0-0.3,0l-20.3-6.4
			c-0.3-0.1-0.6-0.4-0.6-0.7l-1.8-14.4C419.2,179.6,419.3,179.3,419.5,179.1z M395.9,171.4c0.2-0.2,0.6-0.3,0.9-0.2l20.9,6.8
			c0.3,0.1,0.6,0.4,0.6,0.7l1.8,14.5c0,0.3-0.1,0.6-0.3,0.8c-0.2,0.1-0.4,0.2-0.6,0.2c-0.1,0-0.2,0-0.3,0l-20.3-6.4
			c-0.3-0.1-0.6-0.4-0.6-0.7l-2.5-14.9C395.6,172,395.7,171.6,395.9,171.4z M372.3,163.8c0.2-0.2,0.6-0.3,0.9-0.2l20.9,6.8
			c0.3,0.1,0.6,0.4,0.6,0.7l2.5,14.9c0.1,0.3-0.1,0.6-0.3,0.8c-0.2,0.1-0.4,0.2-0.6,0.2c-0.1,0-0.2,0-0.3,0l-20.2-6.3
			c-0.3-0.1-0.5-0.4-0.6-0.7l-3.1-15.4C371.9,164.3,372,164,372.3,163.8z M348.7,156.1c0.2-0.2,0.6-0.3,0.9-0.2l20.8,6.8
			c0.3,0.1,0.5,0.4,0.6,0.7l3.1,15.4c0.1,0.3,0,0.6-0.3,0.8c-0.2,0.2-0.4,0.2-0.6,0.2c-0.1,0-0.2,0-0.3,0l-20.2-6.3
			c-0.3-0.1-0.5-0.3-0.6-0.6l-3.8-15.8C348.3,156.7,348.4,156.3,348.7,156.1z M325,148.5c0.2-0.2,0.6-0.3,0.9-0.2l20.8,6.7
			c0.3,0.1,0.5,0.3,0.6,0.6l3.8,15.9c0.1,0.3,0,0.6-0.3,0.9c-0.2,0.2-0.4,0.2-0.6,0.2c-0.1,0-0.2,0-0.3,0l-20.2-6.3
			c-0.3-0.1-0.5-0.3-0.6-0.6l-4.4-16.3C324.7,149,324.8,148.7,325,148.5z M301.4,140.8c0.2-0.2,0.6-0.3,0.9-0.2l20.7,6.7
			c0.3,0.1,0.5,0.3,0.6,0.6l4.4,16.3c0.1,0.3,0,0.7-0.2,0.9s-0.4,0.3-0.6,0.3c-0.1,0-0.2,0-0.3,0l-20.1-6.3
			c-0.3-0.1-0.5-0.3-0.6-0.6l-5-16.8C301.1,141.4,301.2,141,301.4,140.8z M277.8,133.1c0.2-0.2,0.6-0.3,0.9-0.2l20.7,6.7
			c0.3,0.1,0.5,0.3,0.6,0.6l5,16.8c0.1,0.3,0,0.7-0.2,0.9s-0.4,0.3-0.6,0.3c-0.1,0-0.2,0-0.3,0l-20.1-6.3c-0.3-0.1-0.5-0.3-0.6-0.6
			l-5.6-17.2C277.5,133.7,277.6,133.4,277.8,133.1z M259.3,127.1c0.2-0.2,0.6-0.3,0.9-0.2l15.5,5.1c0.3,0.1,0.5,0.3,0.6,0.6
			l5.6,17.3c0.1,0.3,0,0.7-0.2,0.9s-0.4,0.3-0.6,0.3c-0.1,0-0.2,0-0.3,0l-15.4-4.8c-0.3-0.1-0.5-0.3-0.6-0.6L259,128
			C258.9,127.7,259,127.3,259.3,127.1z"/>
		<path class="st3" d="M405,537.6c0,0.3-0.2,0.5-0.4,0.7c1.4-0.2,2.3-0.5,2.8-0.7c-0.4-0.2-1.1-0.4-2.4-0.7V537.6z"/>
		<path class="st3" d="M388.3,538.3l-2.6,0.8c1.1,1.1,4.1,2.9,11.1,3.1c7,0.2,11.6-1.1,13.7-1.9l-1.8-1.5c-2.1,1.5-8,1.6-10,1.6
			C396.5,540.4,389.7,540.3,388.3,538.3z"/>
		<path class="st2" d="M404.2,506.7c0-0.1,0.1-0.2,0.2-0.2c-0.9-1.9-2.1-3.8-3.6-5.1h-0.1c-0.3,0-0.5-0.1-0.7-0.3
			c-14-15.5-74.2-71.7-114.7-108c-0.1-0.1-0.2-0.2-0.2-0.4l-11.2-9.8c0,0,0,0-0.1,0c-14.1-12.5-23.9-20.6-28.2-23.7
			c-1.3-0.9-2.7-1.8-4.2-2.6l0,0l-37.1-0.7l-0.1,0.1c-3.3,1.5-6.5,3.3-8.9,5.3c-0.2,0.1-0.3,0.3-0.5,0.4
			c-17.1,16.1-102.6,96.8-108.1,105.1c-6.5,9.8-5.7,21.3-5.6,22.6c0.3,3.7,3.6,6.4,7.3,6.1c3.7-0.3,6.5-3.6,6.1-7.3
			c0-0.1-0.5-8,3.4-13.8c4.6-6.4,67.4-66.3,105.8-102.6c0,0,0.1,0,0.1-0.1c1.8-1.3,18.1-12.6,34-1.4c4.1,2.9,12.8,10.2,25.8,21.6
			c0,0,0.1,0,0.1,0.1l13.5,11.9c0.1,0.1,0.2,0.2,0.2,0.4c45.3,40.7,108.4,100.1,113.7,107.1c0,0,0,0.1,0.1,0.1
			c2.3,4.2,1.5,10.6,1,12.7c-0.9,3.6,1.2,7.3,4.8,8.3c0.6,0.1,1.1,0.2,1.7,0.2c3.1,0,5.8-2.1,6.5-5.1c0.3-1.1,2.7-11-1-20.1
			C404.1,507.2,404.1,506.9,404.2,506.7z"/>
		<path class="st3" d="M490.2,494L490.2,494c-0.5,0-0.9,0.1-1.1,0.2c0.3,0.1,0.8,0.3,1.4,0.4C490.3,494.4,490.2,494.2,490.2,494z"/>
		<path class="st3" d="M388.6,565.3c0-1.2-0.6-2-1.2-2s-1.2,0.8-1.2,2s0.6,2,1.2,2C387.9,567.3,388.6,566.5,388.6,565.3z"/>
		<path class="st2" d="M285.9,391.2l30.8-28.5c0.8-0.7,2.6-1.9,4.2-2.9l-20.2-0.8l-25.1,23.2L285.9,391.2z"/>
		<path class="st3" d="M482.1,509.3c-2.6,2.6-3.7,7.1-2.8,11.8c0.6,3.3,2.1,6.1,4.3,8.1c2,1.9,4.4,2.7,6.7,2.3
			c4.7-0.9,7.6-7,6.3-13.7c-0.4-2.1-1.2-4-2.2-5.6c-0.1,0.2-0.1,0.3-0.2,0.5c-1.7,3.8-2.5,6.7-2.8,8.5s-1.5,3.9-3.2,4.6
			c-0.6,0.2-1.1,0.3-1.6,0.3c-1,0-2.3-0.4-3.3-2.1C482.1,522,482,515.6,482.1,509.3z"/>
		<path class="st0" d="M403.7,550c-0.1,0-0.1-0.1-0.2-0.2c-0.9,0.6-1.8,1.3-2.6,2c3.3,3.7,5.6,8.6,6.4,14c0.9,6.3-0.2,12.6-3.2,17.5
			c8.2-5.4,7.9-15,7.2-19.5C410.6,559,407.8,552.7,403.7,550z"/>
		<path class="st3" d="M409.1,553.1c2.2-3,3.1-5.7,2.6-7.6c-1.2,0.5-3.8,1.6-6.5,3.3C406.6,549.9,407.9,551.4,409.1,553.1z"/>
		<path class="st3" d="M396.8,544c-6.7-0.2-10.1-1.8-11.8-3.1c-0.5,7.6-0.9,17.4-0.5,23.6c0.3-1.8,1.5-3.1,3-3.1c1.7,0,3,1.7,3,3.8
			s-1.3,3.8-3,3.8c-1.3,0-2.4-1-2.8-2.4c0.2,1.8,0.4,3.1,0.8,3.8c0.8,1.4,1.8,1.7,3.3,1.2c1-0.4,2-2,2.4-3.8
			c0.4-2.1,1.3-5.6,3.3-10.1c3.9-8.7,14.3-13,17-14v-1.8C409.1,542.8,404.2,544.2,396.8,544z"/>
		<path class="st0" d="M502.3,519.3c-0.6-4.3-2.4-8.3-5.1-11.3c-0.7,0.7-1.4,1.5-1.9,2.4l0,0c1.5,2,2.5,4.4,3,7
			c1.5,7.6-2,14.7-7.7,15.8c-0.5,0.1-1,0.1-1.6,0.1c-2.3,0-4.6-1-6.7-2.9c-2.4-2.2-4.1-5.4-4.8-9.1c-1.1-6,0.7-11.8,4.6-14.4l0,0
			c0-1.2,0.1-2.3,0.1-3.4c-0.8,0.3-1.5,0.7-2.2,1.1c-3.3,4.1-4.7,10-3.8,16c0.8,5,3,9.5,6.3,12.6s7.2,4.4,11.1,3.8
			c1.7-0.3,3.3-0.9,4.8-1.8C501.7,531.2,503.2,525.2,502.3,519.3z"/>
		<path class="st2" d="M138,146.1c0.1,0,0.2-0.1,0.3-0.1l25.7-4.6c0.5-0.1,1,0.2,1,0.7c0,0.1,0,0.1,0.1,0.2l4.9,12.9l2.4,0.7
			L167,142c-0.1-0.3-0.1-0.5,0.1-0.8c0.1-0.2,0.4-0.4,0.6-0.4l22.5-4c0.2,0,0.5,0,0.7,0.1s0.3,0.3,0.4,0.6c0,0.1,0,0.1,0,0.1
			l8.9,26.2l2.4,0.7l-9.3-27.3c-0.1-0.2-0.1-0.5,0.1-0.7c0.1-0.2,0.4-0.4,0.6-0.4l20.3-3.6c0.2,0,0.5,0,0.7,0.2
			c0.2,0.1,0.3,0.3,0.4,0.6v0.1l13.2,38.6l2.4,0.7L217.3,133c-0.1-0.2-0.1-0.5,0.1-0.7c0.1-0.2,0.4-0.4,0.6-0.4l19.7-3.5
			c0.2,0,0.5,0,0.7,0.1s0.3,0.3,0.4,0.6v0.1l16,50.3l2.3,0.7l-16.3-51.3c-0.1-0.2,0-0.5,0.1-0.7s0.4-0.4,0.6-0.4l7.2-1.3l-0.8-1.9
			L133.3,145L138,146.1z"/>
		<path class="st3" d="M505.5,507.7c1.8-2.5,2.5-4.7,2.2-6.3c-1.1,0.4-3.2,1.3-5.4,2.7C503.4,505,504.5,506.3,505.5,507.7z"/>
		<path class="st0" d="M405.5,566.1c-0.7-5-2.8-9.6-5.9-13c-0.9,0.9-1.7,1.9-2.4,2.9c0,0,0,0,0.1,0.1c1.6,2.3,2.8,5,3.4,7.9
			c1.7,8.6-2.2,16.6-8.7,17.8c-0.6,0.1-1.2,0.2-1.7,0.2c-2.6,0-5.2-1.1-7.5-3.2c-2.7-2.5-4.7-6.2-5.4-10.3
			c-1.3-6.8,0.8-13.3,5.2-16.4h0.1c0-1.4,0.1-2.8,0.2-4.2c-0.9,0.4-1.9,0.8-2.7,1.4c-3.8,4.7-5.4,11.5-4.4,18.4
			c0.9,5.7,3.4,10.9,7.3,14.4c3.8,3.5,8.3,5.1,12.8,4.4c2-0.3,3.8-1,5.5-2.1C404.9,579.8,406.6,573,405.5,566.1z"/>
		<path class="st0" d="M500.7,505.2L500.7,505.2c-0.8,0.4-1.5,1-2.2,1.6c2.9,3.3,4.8,7.6,5.5,12.2c0.8,5.4-0.2,10.7-2.6,15
			c6.7-4.7,6.4-12.9,5.9-16.7C506.7,513.1,504.2,507.6,500.7,505.2z"/>
		<path class="st3" d="M220.5,91.5c-0.9-1.3-2.7-1.7-4.1-0.8c-1.4,0.9-1.6,2.3-0.7,3.7l7.8,11.3l6.2-1.2c-0.1-0.2-0.2-0.4-0.3-0.6
			L220.5,91.5z"/>
		<path class="st3" d="M93.8,499.9c0,0.2-0.1,0.4-0.2,0.6c1.1-0.2,1.9-0.4,2.4-0.6c-0.4-0.2-1.1-0.4-2.1-0.6L93.8,499.9z"/>
		<path class="st3" d="M226.7,456.3L226.7,456.3c-0.4,0.1-0.7,0.1-0.9,0.2c0.3,0.1,0.6,0.2,1.1,0.3
			C226.8,456.7,226.7,456.5,226.7,456.3z"/>
		<path class="st3" d="M223.8,457.4L222,458c1,0.9,3.5,2.2,8.9,2.3c5.5,0.2,9.2-0.8,11.1-1.5l-1.2-1c-1.8,1.2-6.2,1.3-8.3,1.3
			C230.2,459.1,225.2,459,223.8,457.4z"/>
		<path class="st3" d="M88.5,497.2c-2,0.2-3.9-0.4-5.4-1.4v3.7c0,0.4-0.3,0.8-0.8,0.9c1.4,0.2,3.3,0.4,5.6,0.4
			c1.8,0,3.3-0.1,4.6-0.3c-0.3-0.2-0.5-0.5-0.4-0.8l0.2-3.8C91.1,496.7,89.9,497.1,88.5,497.2z"/>
		<path class="st0" d="M236.6,467L236.6,467c-0.7,0.4-1.4,0.9-2,1.4c2.7,3.1,4.6,7.2,5.2,11.6c0.7,5-0.1,10-2.3,14
			c6.1-4.5,5.9-12.1,5.3-15.6C242.3,474.5,240,469.3,236.6,467z"/>
		<path class="st3" d="M219,471c-2.4,2.4-3.4,6.6-2.5,11c0.6,3.1,2,5.8,4,7.6c1.9,1.8,4.1,2.5,6.3,2.1c4.5-0.9,7.1-6.6,5.9-12.9
			c-0.4-1.9-1.1-3.7-2.1-5.2c-0.1,0.1-0.1,0.2-0.2,0.4c-1.6,3.6-2.3,6.4-2.6,8c-0.3,1.7-1.4,3.8-3,4.4c-0.5,0.2-1.1,0.3-1.6,0.3
			c-0.9,0-2.2-0.4-3.2-2C219,482.9,218.9,476.9,219,471z"/>
		<path class="st3" d="M77.9,500.7l-2.3,0.7c1.1,1,3.9,2.6,10.5,2.8c6.5,0.2,10.9-1.1,12.9-1.8l-1.6-1.3c-2.1,1.4-7.5,1.6-9.5,1.6
			C85.7,502.7,79.4,502.5,77.9,500.7z"/>
		<path class="st3" d="M241.2,469.2c1.6-2.3,2.3-4.3,2-5.8c-1,0.4-2.9,1.2-5,2.5C239.3,466.8,240.3,467.9,241.2,469.2z"/>
		<path class="st0" d="M238.1,480.3c-0.6-4-2.3-7.8-4.7-10.6c-0.6,0.7-1.2,1.4-1.8,2.2c1.4,1.9,2.3,4.2,2.8,6.6
			c1.4,7.2-1.9,13.9-7.3,15c-0.5,0.1-1,0.1-1.5,0.1c-2.2,0-4.4-0.9-6.3-2.7c-2.3-2.1-3.9-5.2-4.6-8.6c-1.1-5.7,0.7-11.2,4.3-13.7
			l0,0c0-1.1,0.1-2.1,0.1-3.1c-0.7,0.3-1.4,0.6-2,1c-3.1,3.8-4.4,9.5-3.6,15.1c0.7,4.7,2.8,9,6,11.9c3.1,2.9,6.8,4.2,10.5,3.6
			c1.6-0.2,3.1-0.8,4.5-1.7C237.6,491.6,238.9,485.9,238.1,480.3z"/>
		<path class="st3" d="M224,479.6c0-0.9-0.5-1.5-0.9-1.5s-0.9,0.7-0.9,1.5c0,0.9,0.5,1.5,0.9,1.5S224,480.5,224,479.6z"/>
		<path class="st3" d="M238,456.2v0.4c0,0.1,0,0.2-0.1,0.3c0.7-0.1,1.2-0.2,1.5-0.4C239.1,456.5,238.6,456.3,238,456.2z"/>
		<path class="st0" d="M94.3,527c-0.7-4.7-2.7-9-5.5-12.3c-0.8,0.8-1.5,1.7-2.2,2.7l0,0c1.6,2.1,2.7,4.7,3.2,7.5
			c1.6,8.2-2.1,15.8-8.3,16.9c-0.5,0.1-1.1,0.2-1.6,0.2c-5.6,0-10.9-5.4-12.3-12.8c-1.2-6.4,0.7-12.6,4.9-15.5h0.1
			c0-1.3,0.1-2.6,0.1-3.8c-0.9,0.3-1.7,0.8-2.5,1.3c-3.6,4.4-5.1,10.9-4.1,17.3c1.7,11.1,10.1,19.1,18.9,17.8c1.8-0.3,3.6-0.9,5.2-2
			C93.7,539.9,95.2,533.4,94.3,527z"/>
		<path class="st3" d="M72.5,516c-2.9,2.7-4.2,7.7-3.2,12.9c1.4,7.2,6.7,12.2,11.9,11.2c5.2-1,8.2-7.7,6.8-14.8
			c-0.4-2.3-1.3-4.4-2.5-6.2c-0.1,0.2-0.2,0.4-0.3,0.6c-1.8,4.1-2.7,7.3-3,9.2c-0.4,1.9-1.6,4.2-3.4,4.9c-0.6,0.2-1.2,0.3-1.7,0.3
			c-1,0-2.4-0.4-3.5-2.2C72.5,529.8,72.3,522.9,72.5,516z"/>
		<path class="st3" d="M382.5,554.5c-3.1,2.9-4.5,8.2-3.4,13.7c0.7,3.7,2.5,7,4.9,9.3c2.4,2.2,5.1,3.1,7.7,2.6
			c5.5-1.1,8.7-8.1,7.3-15.7c-0.5-2.4-1.4-4.7-2.7-6.6c-0.1,0.2-0.2,0.5-0.4,0.7c-1.9,4.4-2.8,7.7-3.2,9.7c-0.4,2-1.6,4.4-3.5,5.1
			c-0.6,0.2-1.2,0.3-1.8,0.3c-1.1,0-2.6-0.4-3.6-2.3C382.5,569.1,382.4,561.7,382.5,554.5z"/>
		<path class="st3" d="M231,462.1c-5.3-0.2-8.2-1.4-9.7-2.4c-0.4,5.8-0.6,13.2-0.5,18.4c0.4-1.1,1.3-1.8,2.3-1.8
			c1.5,0,2.7,1.5,2.7,3.3c0,1.9-1.2,3.3-2.7,3.3c-0.9,0-1.6-0.5-2.1-1.3c0.1,1,0.3,1.7,0.5,2.1c0.6,1,1.2,1.1,1.6,1.1
			c0.3,0,0.6-0.1,0.9-0.2c0.8-0.3,1.6-1.6,1.9-3c0.3-1.8,1.1-4.7,2.8-8.4c3.2-7.1,11.7-10.8,14.1-11.7v-1.2
			C240.9,461.2,236.9,462.3,231,462.1z"/>
		<path class="st3" d="M403.8,538.3c-0.4-0.1-0.6-0.5-0.6-0.9l0.2-4.5c-1.4,0.9-3,1.4-4.7,1.4c-0.7,0-1.5-0.1-2.2-0.3
			c-1.1-0.3-2.1-0.8-2.9-1.4v4.5c0,0.5-0.4,0.9-0.9,0.9s-0.9-0.4-0.9-0.9V537c-0.9,0.2-1.5,0.4-1.8,0.5c1,0.5,4,1.1,8.7,1.1
			C400.7,538.6,402.4,538.5,403.8,538.3z"/>
		<path class="st3" d="M86,506.1c-6.3-0.2-9.5-1.6-11.2-2.9c-0.5,7.1-0.8,16-0.5,21.9c0.4-1.5,1.4-2.6,2.8-2.6
			c1.6,0,2.9,1.6,2.9,3.7c0,2.1-1.3,3.7-2.9,3.7c-1.1,0-2.1-0.8-2.6-2c0.2,1.5,0.4,2.6,0.7,3.2c0.7,1.2,1.4,1.3,1.9,1.3
			c0.3,0,0.7-0.1,1.1-0.2c0.9-0.3,1.9-1.9,2.2-3.5c0.4-2,1.2-5.3,3.1-9.6c3.6-8.2,13.5-12.3,16.1-13.3v-1.6
			C97.6,504.9,93,506.3,86,506.1z"/>
		<path class="st2" d="M228.9,425.5c-1.2,1.1-2,2.7-2.1,4.3l-1.3,14.4c-0.3,3.7,2.4,7,6.1,7.4c3.8,0.4,7-2.4,7.4-6.1l1-11.5
			c0-0.2,0.1-0.4,0.3-0.6l33-30.6l-10.2-9L228.9,425.5z"/>
		<path class="st3" d="M78.2,526.1c0-1.1-0.6-1.9-1.1-1.9S76,525,76,526.1c0,1.1,0.6,1.9,1.1,1.9S78.2,527.2,78.2,526.1z"/>
		<path class="st3" d="M97.6,514.5c2-2.8,2.8-5.3,2.4-7c-1.2,0.5-3.5,1.5-6.1,3C95.4,511.6,96.6,513,97.6,514.5z"/>
		<path class="st0" d="M92.6,511.7c-0.1,0-0.1-0.1-0.1-0.1c-0.8,0.6-1.6,1.2-2.4,1.9c3.1,3.5,5.3,8.2,6,13.2
			c0.9,5.9-0.2,11.8-2.9,16.4c7.6-5.1,7.3-14.1,6.6-18.3C99.1,520.3,96.4,514.3,92.6,511.7z"/>
		<path class="st3" d="M231.4,453.4c-1-0.1-2-0.4-2.9-0.8v3.8c0,0.3-0.2,0.6-0.4,0.7c1.2,0.2,2.7,0.3,4.5,0.3c1.5,0,2.7-0.1,3.8-0.2
			c-0.1-0.2-0.2-0.4-0.2-0.6l0.2-4.2C234.9,453.1,233.2,453.5,231.4,453.4z"/>
		<path class="st3" d="M81.3,499.6v-0.2c-0.7,0.2-1.2,0.3-1.5,0.4c0.4,0.2,1.1,0.4,2,0.5C81.5,500.3,81.3,500,81.3,499.6z"/>
		<path class="st2" d="M501.9,234.9c-0.1-0.1-0.2-0.1-0.3-0.2c-0.4-0.1-0.9-0.2-1.4-0.6l-47.5,11.6c-0.1,0-0.1,0-0.2,0h-0.1
			c0,0.3-0.1,0.5-0.1,0.8c-0.1,0.5-0.1,1-0.3,1.5l51.5-12.6C502.9,235.3,502.3,235.1,501.9,234.9z"/>
		<path class="st3" d="M502,494.2c0,0.2-0.1,0.3-0.1,0.4c0.8-0.1,1.5-0.3,1.9-0.5c-0.4-0.1-0.9-0.3-1.7-0.4L502,494.2z"/>
		<path class="st3" d="M487.4,518.5c0-1-0.5-1.7-0.9-1.7s-1,0.7-1,1.7s0.5,1.7,1,1.7C486.9,520.2,487.4,519.5,487.4,518.5z"/>
		<path class="st3" d="M487.2,495l-2,0.6c1.1,0.9,3.7,2.4,9.6,2.5c5.9,0.2,9.9-0.9,11.8-1.6l-1.4-1.1c-2,1.3-7,1.4-8.8,1.4
			C494.5,496.9,488.6,496.7,487.2,495z"/>
		<path class="st3" d="M494.7,500c-5.7-0.2-8.7-1.5-10.3-2.6c-0.4,6.3-0.7,14.3-0.5,19.7c0.4-1.2,1.4-2.1,2.5-2.1
			c1.5,0,2.7,1.5,2.7,3.5s-1.2,3.5-2.7,3.5c-1,0-1.8-0.6-2.3-1.5c0.1,1.2,0.3,2,0.6,2.5c0.6,1.1,1.3,1.2,1.7,1.2
			c0.3,0,0.6-0.1,1-0.2c0.8-0.3,1.7-1.7,2-3.2c0.4-1.9,1.1-4.9,2.9-8.9c3.4-7.6,12.4-11.4,14.9-12.3v-1.4
			C505.3,499,501.1,500.2,494.7,500z"/>
		<path class="st3" d="M496.8,490.8c-0.4,0-0.8,0-1.2-0.1c-1.3-0.2-2.5-0.7-3.5-1.4v4.7c0,0.3-0.2,0.6-0.5,0.8
			c1.3,0.2,2.9,0.3,4.9,0.3c1.6,0,3-0.1,4.1-0.2c-0.2-0.2-0.3-0.4-0.3-0.7l0.2-4.2C499.3,490.5,498.1,490.8,496.8,490.8z"/>
		<path class="st2" d="M396.6,362.7c0.2,1,0.7,2,1.4,2.8l88.5,105.8c0.2,0.2,0.3,0.5,0.2,0.8c-0.1,0.3-0.3,0.5-0.6,0.6l-83.9,28.2
			c1.4,1.4,2.5,3.2,3.4,5l83.4-28c0.3-0.1,0.5-0.1,0.8,0.1c0.2,0.1,0.4,0.4,0.4,0.6c0.1,0.9,0.1,1.7,0,2.5c-0.5,3.7,2,7.1,5.7,7.6
			c0.3,0,0.6,0.1,1,0.1c3.3,0,6.2-2.5,6.7-5.8c1.5-10.6-5.2-18.8-6-19.7l-83.7-100.1L396.6,362.7z"/>
		<path class="st2" d="M486.7,220.3l-0.4-0.1l-17.1,4.2c-0.1,0.2-0.3,0.4-0.6,0.4l-2.5,0.6c-0.3,0.1-0.5,0-0.7-0.1l-12,2.9
			c1,1.5,1.4,3.2,1.5,4.9l47.3-11.6c0.7-0.2,1.3-0.6,1.6-1.2c0.3-0.6,0.4-1.2,0.3-1.9c-0.4-1.4-1.8-2.2-3.2-1.8l-11.9,2.9l-1.6,0.8
			C487.1,220.3,486.9,220.3,486.7,220.3z"/>
	</g>
</g>
</svg>
