<?xml version="1.0" encoding="utf-8"?>
<!-- Generator: Adobe Illustrator 19.2.1, SVG Export Plug-In . SVG Version: 6.00 Build 0)  -->
<svg version="1.1" id="Слой_1" xmlns="http://www.w3.org/2000/svg" xmlns:xlink="http://www.w3.org/1999/xlink" x="0px" y="0px"
	 viewBox="0 0 213 216" style="enable-background:new 0 0 213 216;" xml:space="preserve">
<style type="text/css">
	.st0{fill:#333333;stroke:#777777;stroke-width:0.5;}
</style>
<path class="st0" d="M199.4,101.8l-12.1-1.9c-1.6-0.3-2.8-1.5-3.1-3.2c-0.2-1.5-0.5-3-0.8-4.4c-0.3-1.6,0.4-3.2,1.8-4l10.7-5.9
	c1.7-0.8,2.5-2.8,1.8-4.6l-1.9-5.1c-0.6-1.8-2.5-2.8-4.4-2.3l-12,2.3c-1.6,0.3-3.2-0.5-4-1.9c-0.7-1.3-1.4-2.6-2.2-3.9
	c-0.8-1.4-0.7-3.2,0.3-4.4l8-9.2c1.3-1.4,1.3-3.5,0.1-4.9l-3.5-4.2c-1.2-1.4-3.3-1.8-4.9-0.7l-10.5,6.3c-1.4,0.8-3.2,0.6-4.4-0.4
	c-1.1-1-2.3-1.9-3.4-2.9c-1.3-1-1.8-2.7-1.2-4.2l4.4-11.5c0.7-1.7,0.1-3.8-1.5-4.7l-4.7-2.7c-1.6-0.9-3.7-0.5-4.8,1l-7.7,9.6
	c-0.9,1.2-2.3,1.8-3.9,1.2c0,0-2.6-1.1-4.5-1.7c-1.5-0.5-2.6-1.9-2.6-3.6l0.2-12.2c0.1-1.9-1.2-3.6-3.1-3.9l-5.4-0.9
	c-1.9-0.3-3.7,0.8-4.2,2.6l-4,11.6c-0.5,1.5-2,2.6-3.6,2.5c-0.7,0-1.5,0-2.3,0c-0.7,0-1.5,0-2.3,0c-1.6,0-3.1-1-3.6-2.5l-4-11.6
	c-0.6-1.8-2.4-2.9-4.2-2.6l-5.4,0.9c-1.9,0.3-3.2,2-3.1,3.9l0.2,12.2c0,1.6-1,3-2.6,3.6c-1.1,0.4-3.4,1.3-4.5,1.7
	c-1.3,0.5-2.8,0.1-4.1-1.3l-7.3-9.4c-1.1-1.5-3.2-1.9-4.8-1l-4.7,2.7c-1.6,0.9-2.3,3-1.5,4.7l4.4,11.5c0.6,1.5,0.1,3.2-1.2,4.2
	c-1.2,0.9-2.3,1.9-3.4,2.9c-1.2,1.1-3,1.3-4.4,0.4L39,43.5c-1.6-1-3.7-0.7-4.9,0.7l-3.5,4.2c-1.2,1.4-1.2,3.6,0.1,4.9l8,9.2
	c1.1,1.2,1.2,3,0.3,4.4c-0.8,1.3-1.5,2.6-2.2,3.9c-0.8,1.4-2.4,2.2-4,1.9l-12-2.3c-1.9-0.4-3.7,0.6-4.4,2.3l-1.9,5.1
	c-0.6,1.8,0.1,3.8,1.8,4.6L27,88.3c1.4,0.8,2.1,2.4,1.8,4c-0.3,1.5-0.6,2.9-0.8,4.4c-0.2,1.6-1.5,2.9-3.1,3.2l-12.1,1.9
	c-1.9,0.2-3.3,1.8-3.3,3.7v5.4c0,1.9,1.4,3.5,3.3,3.7l12.1,1.9c1.6,0.3,2.8,1.5,3.1,3.2c0.2,1.5,0.5,3,0.8,4.4
	c0.3,1.6-0.4,3.2-1.8,4L16.3,134c-1.7,0.8-2.5,2.8-1.8,4.6l1.9,5.1c0.6,1.8,2.5,2.8,4.4,2.3l12-2.3c1.6-0.3,3.2,0.5,4,1.9
	c0.7,1.3,1.4,2.6,2.2,3.9c0.8,1.4,0.7,3.2-0.3,4.4l-8,9.2c-1.3,1.4-1.3,3.5-0.1,4.9l3.5,4.2c1.2,1.4,3.3,1.8,4.9,0.7l10.5-6.3
	c1.4-0.8,3.2-0.6,4.4,0.4c1.1,1,2.3,1.9,3.4,2.9c1.3,1,1.8,2.7,1.2,4.2l-4.4,11.5c-0.7,1.7-0.1,3.8,1.5,4.7l4.7,2.7
	c1.6,0.9,3.7,0.5,4.8-1l7.8-9.6c1-1.2,2.6-1.7,3.8-1.2c1.6,0.6,2.6,1,4.6,1.7c1.5,0.5,2.6,1.9,2.6,3.6l-0.2,12.2
	c-0.1,1.9,1.2,3.6,3.1,3.9l5.4,0.9c1.9,0.3,3.7-0.8,4.2-2.6l4-11.6c0.5-1.5,2-2.6,3.6-2.5c0.7,0,1.5,0,2.3,0c0.7,0,1.5,0,2.3,0
	c1.6,0,3.1,1,3.6,2.5l4,11.6c0.6,1.8,2.4,2.9,4.2,2.6l5.4-0.9c1.9-0.3,3.2-2,3.1-3.9l-0.2-12.2c0-1.6,1-3.1,2.6-3.6
	c1.9-0.6,3.2-1.2,4.5-1.6c1.2-0.4,2.7-0.5,3.8,1l7.9,9.7c1.1,1.5,3.2,1.9,4.8,1l4.7-2.7c1.6-0.9,2.3-3,1.5-4.7l-4.4-11.5
	c-0.6-1.5-0.1-3.2,1.2-4.2c1.2-0.9,2.3-1.9,3.4-2.9c1.2-1.1,3-1.3,4.4-0.4l10.5,6.3c1.6,1,3.7,0.7,4.9-0.7l3.5-4.2
	c1.2-1.4,1.2-3.6-0.1-4.9l-8-9.2c-1.1-1.2-1.2-3-0.3-4.4c0.8-1.3,1.5-2.6,2.2-3.9c0.8-1.4,2.4-2.2,4-1.9l12,2.3
	c1.9,0.4,3.7-0.6,4.4-2.3l1.9-5.1c0.6-1.8-0.1-3.8-1.8-4.6l-10.7-5.9c-1.4-0.8-2.1-2.4-1.8-4c0.3-1.5,0.6-2.9,0.8-4.4
	c0.2-1.6,1.5-2.9,3.1-3.2l12.1-1.9c1.9-0.2,3.3-1.8,3.3-3.7v-5.4C202.7,103.7,201.3,102,199.4,101.8L199.4,101.8z M71.8,155
	c-2.4,4.2-8.1,5-11.6,1.7c-12.8-12.2-20.8-29.4-20.8-48.5c0-19,7.9-36.1,20.6-48.3c3.5-3.3,9.2-2.6,11.6,1.6l26,44.8
	c0.6,1.2,0.6,2.6,0,3.7L71.8,155z M171.2,123.9c-7,29.4-33.4,51.2-64.9,51.2c-6.5,0-12.9-0.9-18.8-2.7c-4.6-1.3-6.7-6.7-4.3-10.8
	l25.8-44.9c0.6-1.2,1.9-1.9,3.2-1.9H164C168.8,114.7,172.3,119.2,171.2,123.9L171.2,123.9z M164,101.8h-51.9c-1.3,0-2.6-0.7-3.2-1.9
	l-26-44.8c-2.4-4.1-0.3-9.5,4.3-10.9c6-1.8,12.4-2.7,19.1-2.7c31.5,0,57.9,21.8,64.9,51.2C172.3,97.3,168.8,101.8,164,101.8z"/>
</svg>
