<?xml version="1.0" encoding="utf-8"?>
<!-- Generator: Adobe Illustrator 23.1.0, SVG Export Plug-In . SVG Version: 6.00 Build 0)  -->
<svg version="1.1" id="Слой_1" xmlns="http://www.w3.org/2000/svg" xmlns:xlink="http://www.w3.org/1999/xlink" x="0px" y="0px"
	 viewBox="0 0 546.6 252.4" style="enable-background:new 0 0 546.6 252.4;" xml:space="preserve">
<style type="text/css">
	.st0{fill:#005775;}
</style>
<path class="st0" d="M199.4,144l-12.1-1.9c-1.6-0.3-2.8-1.5-3.1-3.2c-0.2-1.5-0.5-3-0.8-4.4c-0.3-1.6,0.4-3.2,1.8-4l10.7-5.9
	c1.7-0.8,2.5-2.8,1.8-4.6l-1.9-5.1c-0.6-1.8-2.5-2.8-4.4-2.3l-12,2.3c-1.6,0.3-3.2-0.5-4-1.9c-0.7-1.3-1.4-2.6-2.2-3.9
	c-0.8-1.4-0.7-3.2,0.3-4.4l8-9.2c1.3-1.4,1.3-3.5,0.1-4.9l-3.5-4.2c-1.2-1.4-3.3-1.8-4.9-0.7L162.7,92c-1.4,0.8-3.2,0.6-4.4-0.4
	c-1.1-1-2.3-1.9-3.4-2.9c-1.3-1-1.8-2.7-1.2-4.2l4.4-11.5c0.7-1.7,0.1-3.8-1.5-4.7l-4.7-2.7c-1.6-0.9-3.7-0.5-4.8,1l-7.7,9.6
	c-0.9,1.2-2.3,1.8-3.9,1.2c0,0-2.6-1.1-4.5-1.7c-1.5-0.5-2.6-1.9-2.6-3.6l0.2-12.2c0.1-1.9-1.2-3.6-3.1-3.9l-5.4-0.9
	c-1.9-0.3-3.7,0.8-4.2,2.6l-4,11.6c-0.5,1.5-2,2.6-3.6,2.5c-0.7,0-1.5,0-2.3,0c-0.7,0-1.5,0-2.3,0c-1.6,0-3.1-1-3.6-2.5l-4-11.6
	c-0.6-1.8-2.4-2.9-4.2-2.6L86.5,56c-1.9,0.3-3.2,2-3.1,3.9l0.2,12.2c0,1.6-1,3-2.6,3.6c-1.1,0.4-3.4,1.3-4.5,1.7
	c-1.3,0.5-2.8,0.1-4.1-1.3l-7.3-9.4c-1.1-1.5-3.2-1.9-4.8-1l-4.7,2.7c-1.6,0.9-2.3,3-1.5,4.7l4.4,11.5c0.6,1.5,0.1,3.2-1.2,4.2
	c-1.2,0.9-2.3,1.9-3.4,2.9c-1.2,1.1-3,1.3-4.4,0.4L39,85.7c-1.6-1-3.7-0.7-4.9,0.7l-3.5,4.2c-1.2,1.4-1.2,3.6,0.1,4.9l8,9.2
	c1.1,1.2,1.2,3,0.3,4.4c-0.8,1.3-1.5,2.6-2.2,3.9c-0.8,1.4-2.4,2.2-4,1.9l-12-2.3c-1.9-0.4-3.7,0.6-4.4,2.3l-1.9,5.1
	c-0.6,1.8,0.1,3.8,1.8,4.6l10.7,5.9c1.4,0.8,2.1,2.4,1.8,4c-0.3,1.5-0.6,2.9-0.8,4.4c-0.2,1.6-1.5,2.9-3.1,3.2L12.8,144
	c-1.9,0.2-3.3,1.8-3.3,3.7v5.4c0,1.9,1.4,3.5,3.3,3.7l12.1,1.9c1.6,0.3,2.8,1.5,3.1,3.2c0.2,1.5,0.5,3,0.8,4.4
	c0.3,1.6-0.4,3.2-1.8,4l-10.7,5.9c-1.7,0.8-2.5,2.8-1.8,4.6l1.9,5.1c0.6,1.8,2.5,2.8,4.4,2.3l12-2.3c1.6-0.3,3.2,0.5,4,1.9
	c0.7,1.3,1.4,2.6,2.2,3.9c0.8,1.4,0.7,3.2-0.3,4.4l-8,9.2c-1.3,1.4-1.3,3.5-0.1,4.9l3.5,4.2c1.2,1.4,3.3,1.8,4.9,0.7l10.5-6.3
	c1.4-0.8,3.2-0.6,4.4,0.4c1.1,1,2.3,1.9,3.4,2.9c1.3,1,1.8,2.7,1.2,4.2l-4.4,11.5c-0.7,1.7-0.1,3.8,1.5,4.7l4.7,2.7
	c1.6,0.9,3.7,0.5,4.8-1l7.8-9.6c1-1.2,2.6-1.7,3.8-1.2c1.6,0.6,2.6,1,4.6,1.7c1.5,0.5,2.6,1.9,2.6,3.6l-0.2,12.2
	c-0.1,1.9,1.2,3.6,3.1,3.9l5.4,0.9c1.9,0.3,3.7-0.8,4.2-2.6l4-11.6c0.5-1.5,2-2.6,3.6-2.5c0.7,0,1.5,0,2.3,0c0.7,0,1.5,0,2.3,0
	c1.6,0,3.1,1,3.6,2.5l4,11.6c0.6,1.8,2.4,2.9,4.2,2.6l5.4-0.9c1.9-0.3,3.2-2,3.1-3.9l-0.2-12.2c0-1.6,1-3.1,2.6-3.6
	c1.9-0.6,3.2-1.2,4.5-1.6c1.2-0.4,2.7-0.5,3.8,1l7.9,9.7c1.1,1.5,3.2,1.9,4.8,1l4.7-2.7c1.6-0.9,2.3-3,1.5-4.7l-4.4-11.5
	c-0.6-1.5-0.1-3.2,1.2-4.2c1.2-0.9,2.3-1.9,3.4-2.9c1.2-1.1,3-1.3,4.4-0.4l10.5,6.3c1.6,1,3.7,0.7,4.9-0.7l3.5-4.2
	c1.2-1.4,1.2-3.6-0.1-4.9l-8-9.2c-1.1-1.2-1.2-3-0.3-4.4c0.8-1.3,1.5-2.6,2.2-3.9c0.8-1.4,2.4-2.2,4-1.9l12,2.3
	c1.9,0.4,3.7-0.6,4.4-2.3l1.9-5.1c0.6-1.8-0.1-3.8-1.8-4.6l-10.7-5.9c-1.4-0.8-2.1-2.4-1.8-4c0.3-1.5,0.6-2.9,0.8-4.4
	c0.2-1.6,1.5-2.9,3.1-3.2l12.1-1.9c1.9-0.2,3.3-1.8,3.3-3.7v-5.4C202.7,145.9,201.3,144.2,199.4,144L199.4,144z M71.8,197.2
	c-2.4,4.2-8.1,5-11.6,1.7c-12.8-12.2-20.8-29.4-20.8-48.5c0-19,7.9-36.1,20.6-48.3c3.5-3.3,9.2-2.6,11.6,1.6l26,44.8
	c0.6,1.2,0.6,2.6,0,3.7L71.8,197.2z M171.2,166.1c-7,29.4-33.4,51.2-64.9,51.2c-6.5,0-12.9-0.9-18.8-2.7c-4.6-1.3-6.7-6.7-4.3-10.8
	l25.8-44.9c0.6-1.2,1.9-1.9,3.2-1.9H164C168.8,156.9,172.3,161.4,171.2,166.1L171.2,166.1z M164,144h-51.9c-1.3,0-2.6-0.7-3.2-1.9
	l-26-44.8c-2.4-4.1-0.3-9.5,4.3-10.9c6-1.8,12.4-2.7,19.1-2.7c31.5,0,57.9,21.8,64.9,51.2C172.3,139.5,168.8,144,164,144z"/>
<g>
	<path class="st0" d="M225.8,92.9c-1.8,1.4-3.8,2.1-6.1,2.1c-2,0-3.5-0.4-4.6-1.3c-1.1-0.9-1.6-2.2-1.6-4c0-1.5,0.5-2.7,1.4-3.7
		c0.9-1,2.1-1.4,3.6-1.4c0.7,0,1.1,0.2,1.1,0.7c0,0-0.2,0.5-0.6,1.3c-0.4,0.8-0.6,1.7-0.6,2.5s0.2,1.4,0.6,1.8
		c0.4,0.4,1,0.6,1.7,0.6c2.8,0,4.9-2,6.5-6L216,62.9c-1.5-3-3.3-5.3-5.4-6.9l0.7-0.9h12.2l0.6,1.9l-1.2,0.3
		c-1.4,0.4-2.2,1.1-2.2,2.2c0,0.5,0.4,1.8,1.3,3.6l8,15.9l5.9-13c0.9-1.9,1.3-3.7,1.3-5.2c0-1.9-0.9-3.1-2.7-3.5l-1.2-0.3l0.6-1.9
		h10.4L245,56l-0.8,1c-0.9,1.1-1.9,2.9-3,5.4L230.9,85C229.5,88.9,227.7,91.5,225.8,92.9z"/>
	<path class="st0" d="M260,94.9c-3.9,0-7.1-1.3-9.6-4s-3.8-6.1-3.8-10.2c0-4.4,1.2-7.8,3.7-10.4c2.5-2.6,5.8-3.8,9.9-3.8
		c2.9,0,5.2,0.7,6.9,2c1.8,1.3,2.7,3.1,2.7,5.2c0,1.6-0.5,2.8-1.5,3.8S266,79,264.5,79c-0.7,0-1-0.2-1-0.5c0-0.1,0.1-0.3,0.3-0.7
		c0.2-0.3,0.4-0.8,0.7-1.5c0.2-0.7,0.4-1.4,0.4-2.3c0-1.4-0.5-2.6-1.4-3.4c-1-0.8-2.3-1.2-3.9-1.2c-2.2,0-3.9,1-5.3,3
		c-1.3,2-2,4.7-2,8c0,3.4,0.8,6,2.3,8c1.6,2,3.7,3,6.3,3c2.7,0,5.2-0.9,7.4-2.8c0.1-0.1,0.3-0.1,0.5-0.1c0.3,0,0.6,0.2,0.9,0.5
		c0.3,0.3,0.4,0.7,0.4,1s0,0.4-0.1,0.5C267.3,93.4,264,94.9,260,94.9z"/>
	<path class="st0" d="M280.8,94.1l-0.6-0.8l0.6-0.9c0.9-1.1,1.4-2.2,1.8-3.5c0.3-1.2,0.5-2.9,0.5-4.9V74c0-1.5-0.1-2.5-0.4-3
		c-0.2-0.5-0.7-0.7-1.3-0.7h-0.6c-1.8,0-3,0.3-3.7,0.8c-0.7,0.6-1.3,1.8-1.7,3.6l-0.4,1.1l-1.7-0.5v-8.9l0.9-0.7l0.8,0.7
		c0.9,0.7,2.9,1,5.7,1h9.7c2.9,0,4.8-0.3,5.7-1l0.8-0.7l0.9,0.7v8.9l-1.7,0.5l-0.3-1.1c-0.5-1.8-1.1-3-1.8-3.6
		c-0.7-0.6-1.9-0.8-3.6-0.8h-0.7c-0.7,0-1.1,0.2-1.3,0.7c-0.2,0.5-0.4,1.5-0.4,3v13.5c0,1.5,0.2,2.6,0.6,3.2
		c0.4,0.6,1.3,1.1,2.5,1.4l1.2,0.4l-0.6,1.7L280.8,94.1L280.8,94.1z"/>
	<path class="st0" d="M311.1,94.9c-2.7,0-5.1-1.2-7-3.5s-2.9-5.6-2.9-9.8c0-4.7,1.3-8.4,3.8-11.1c2.5-2.7,6-4.1,10.3-4.1
		c1.2,0,3,0.2,5.5,0.6c2.5,0.4,4.2,0.6,5.3,0.7l0.7,0.7l-0.8,1c-0.5,0.8-0.7,1.5-0.7,2.2v17.7c0,1.1,0.6,1.7,1.7,1.7
		c0.9,0,1.8-0.3,2.7-1l1.1,1.4c-2.1,2.3-4.1,3.5-6,3.5c-1.5,0-2.6-0.4-3.3-1.3c-0.7-0.9-1-2.4-1-4.4C317.9,93,314.7,94.9,311.1,94.9
		z M308.8,88.3c1.2,1.6,2.7,2.4,4.4,2.4c3,0,5.5-1.6,7.4-4.9V71.1c-1.6-1.1-3.3-1.6-5.3-1.6c-2.7,0-4.7,1-6.2,2.9
		c-1.4,2-2.2,4.7-2.2,8.3C307,84.1,307.6,86.7,308.8,88.3z"/>
	<path class="st0" d="M334.1,94.1l-0.6-1.7l1.1-0.4c1.3-0.4,2.1-0.8,2.5-1.4s0.6-1.6,0.6-3.2V73.6c0-1.5-0.2-2.6-0.6-3.2
		c-0.4-0.6-1.3-1.1-2.5-1.4l-1.1-0.4l0.6-1.6h10.8l0.6,0.8l-0.6,0.9c-1.5,2-2.2,4.8-2.2,8.4v1.8h13.1v-5.2c0-1.5-0.2-2.6-0.6-3.2
		c-0.4-0.6-1.3-1.1-2.5-1.4l-1.2-0.4l0.6-1.6h10.8l0.7,0.8l-0.7,0.9c-1.4,1.9-2.2,4.7-2.2,8.4v10.7c0,1.4,0.2,2.4,0.6,3
		c0.4,0.5,1.2,1,2.4,1.3l1,0.3l-0.5,1.6h-12.1l-0.6-1.7l1.2-0.4c1.3-0.4,2.1-0.8,2.5-1.4s0.6-1.6,0.6-3.2V82h-13.1v5.7
		c0,1.4,0.2,2.4,0.6,3c0.4,0.5,1.2,1,2.4,1.3l1.1,0.3l-0.5,1.6h-12.2V94.1z"/>
	<path class="st0" d="M393.4,91c-2.6,2.6-6,3.9-10.3,3.9s-7.7-1.3-10.2-3.9s-3.8-6-3.8-10.4s1.3-7.8,3.8-10.4
		c2.5-2.5,5.9-3.8,10.2-3.8c4.3,0,7.7,1.3,10.3,3.8c2.6,2.5,3.8,6,3.8,10.4S395.9,88.5,393.4,91z M377,88.9c1.5,2,3.5,3,6,3
		s4.5-1,6.1-3.1s2.4-4.8,2.4-8.1c0-1.7-0.2-3.4-0.6-5s-1.3-3.1-2.6-4.5s-2.9-2-4.9-2c-2.5,0-4.6,1.1-6.2,3.2
		c-1.6,2.1-2.4,4.9-2.4,8.3C374.7,84.2,375.5,86.9,377,88.9z"/>
	<path class="st0" d="M401.8,94.1l-0.6-1.8l1.1-0.3c1.3-0.3,2.1-0.7,2.6-1.3c0.4-0.6,0.6-1.7,0.6-3.3V71.7c0-0.8-0.4-1.2-1.1-1.2
		h-2.9l-0.6-1.9c1.4-0.6,3.4-1.1,5.9-1.5s4.9-0.6,7.2-0.6c8.7,0,13,2.5,13,7.4c0,2.7-1.3,4.8-3.8,6.3c3.8,1.1,5.6,3.2,5.6,6.4
		c0,5.1-4.1,7.6-12.4,7.6L401.8,94.1L401.8,94.1z M411.1,88.6c0.4,1,1,1.6,1.7,2s1.4,0.6,1.9,0.7c0.5,0.1,1.2,0.1,1.9,0.1
		c1.8,0,3.3-0.4,4.7-1.3c1.3-0.9,2-2.1,2-3.9c0-1.4-0.6-2.5-1.7-3.3c-1.2-0.8-2.7-1.2-4.7-1.3h-0.4c-1.1,0-2.1-0.2-2.9-0.5
		s-1.2-0.7-1.2-1.2c0-0.7,0.2-1,0.6-1c0,0,0.3,0.1,0.8,0.2c0.5,0.1,1.1,0.2,1.7,0.2c2,0,3.5-0.4,4.6-1.3c1.1-0.9,1.6-2.1,1.6-3.7
		c0-1.6-0.6-2.8-1.8-3.7c-1.2-0.9-3-1.3-5.4-1.3c-2.8,0-4.2,0.8-4.2,2.3V85C410.5,86.4,410.7,87.7,411.1,88.6z"/>
	<path class="st0" d="M434.8,94.1l-0.5-1.7l1.1-0.4c1.3-0.4,2.1-0.8,2.6-1.4c0.4-0.6,0.6-1.6,0.6-3.2V73.6c0-1.5-0.2-2.6-0.6-3.2
		c-0.4-0.6-1.3-1.1-2.6-1.4l-1.1-0.4l0.5-1.6h10.8l0.6,0.8l-0.6,0.9c-1.5,2.1-2.2,4.9-2.2,8.4v10.7c0,1.4,0.2,2.4,0.6,3
		c0.4,0.5,1.2,1,2.5,1.4l1.1,0.3l-0.5,1.6L434.8,94.1L434.8,94.1z M458,94.9c-1.5,0-2.7-0.4-3.7-1.2s-2-2-3-3.7l-3.8-6.3
		c-0.7-1-1.5-1.8-2.5-2.2c-0.2-0.1-0.2-0.3-0.2-0.6c0-0.7,0.3-1.1,0.9-1.1h1l4.3-5.9c0.7-1.1,1.1-2.2,1.1-3.1c0-0.7-0.1-1.3-0.4-1.9
		l-0.4-0.9l0.9-0.8h8.8l0.6,1.7l-1.1,0.3c-1.6,0.4-2.9,1.3-4,2.8l-6.2,8.6c1.6,0.8,2.7,1.9,3.3,3.3l4.2,6.9c0.6,1,1.2,1.5,1.8,1.5
		c0.7,0,1.4-0.2,2-0.7l0.9,1.5C461.3,94.2,459.8,94.9,458,94.9z"/>
	<path class="st0" d="M475.4,94.9c-2.7,0-5.1-1.2-7-3.5s-2.9-5.6-2.9-9.8c0-4.7,1.3-8.4,3.8-11.1c2.5-2.7,6-4.1,10.3-4.1
		c1.2,0,3,0.2,5.5,0.6c2.5,0.4,4.2,0.6,5.3,0.7l0.7,0.7l-0.8,1c-0.5,0.8-0.7,1.5-0.7,2.2v17.7c0,1.1,0.6,1.7,1.7,1.7
		c0.9,0,1.8-0.3,2.7-1l1.1,1.4c-2.1,2.3-4.1,3.5-6,3.5c-1.5,0-2.6-0.4-3.3-1.3c-0.7-0.9-1-2.4-1-4.4C482.3,93,479.1,94.9,475.4,94.9
		z M473.1,88.3c1.2,1.6,2.7,2.4,4.4,2.4c3,0,5.5-1.6,7.4-4.9V71.1c-1.6-1.1-3.3-1.6-5.3-1.6c-2.7,0-4.7,1-6.2,2.9
		c-1.4,2-2.2,4.7-2.2,8.3C471.3,84.1,471.9,86.7,473.1,88.3z"/>
</g>
</svg>
