<?xml version="1.0" encoding="utf-8"?>
<!-- Generator: Adobe Illustrator 23.1.0, SVG Export Plug-In . SVG Version: 6.00 Build 0)  -->
<svg version="1.1" id="Слой_1" xmlns="http://www.w3.org/2000/svg" xmlns:xlink="http://www.w3.org/1999/xlink" x="0px" y="0px"
	 viewBox="0 0 150.5 150.5" style="enable-background:new 0 0 150.5 150.5;" xml:space="preserve">
<style type="text/css">
	.st0{display:none;}
	.st1{display:inline;opacity:0.22;}
	.st2{fill:#49005B;}
	.st3{fill:#EBECEC;}
	.st4{fill:#005775;}
	.st5{fill:#FEFEFE;}
	.st6{fill:#A34029;}
	.st7{fill:#A34029;stroke:#A34029;stroke-width:3;stroke-miterlimit:10;}
</style>
<g class="st0">
	<g id="Слой_x0020_1" class="st1">
		<polygon class="st2" points="75.9,4 108.1,21.8 140.4,39.6 140.4,75.1 140.4,110.7 108.1,128.5 75.9,146.2 43.7,128.5 11.5,110.7 
			11.5,75.1 11.5,39.6 43.7,21.8 		"/>
		<polygon class="st3" points="75.9,6.5 107,23.7 138.1,40.8 138.1,75.1 138.1,109.5 107,126.6 75.9,143.8 44.8,126.6 13.7,109.5 
			13.7,75.1 13.7,40.8 44.8,23.7 		"/>
		<path class="st4" d="M75.9,10.1c0.9,0,1.5,0.2,1.9,0.4l27.9,15.4l29.7,16.4v32.8V108l-29.7,16.4l-29.8,16.4l-29.7-16.4L16.4,108
			V75.1V42.3l29.8-16.4L74,10.5C74.4,10.4,75,10.1,75.9,10.1z"/>
		<polygon class="st5" points="75.9,19.3 100.9,33.3 126,47.2 126,75.1 126,103.1 100.9,117 75.9,131 50.9,117 25.9,103.1 
			25.9,75.1 25.9,47.2 50.9,33.3 		"/>
		<polygon class="st2" points="107.1,47 82,117.2 69.8,117.2 44.7,47 57.5,47 76,102.5 94.3,47 		"/>
	</g>
</g>
<g>
	<path class="st6" d="M75.7,143.4c-0.8,0-1.7-0.2-2.5-0.7l-56.3-32.5c-1.5-0.9-2.4-2.5-2.4-4.3V41c0-1.8,0.9-3.4,2.4-4.3L73.2,4.3
		c1.5-0.9,3.4-0.9,4.9,0l56.3,32.5c1.6,0.9,2.5,2.6,2.4,4.3V106c0,1.8-0.9,3.4-2.4,4.3l-56.3,32.5C77.4,143.2,76.5,143.4,75.7,143.4
		z M75.7,5.6c-0.5,0-1,0.1-1.4,0.4L17.9,38.5C17,39,16.5,39.9,16.5,41v65c0,1.1,0.5,2,1.4,2.5L74.2,141c0.9,0.5,2,0.5,2.9,0
		l56.3-32.5c0.9-0.5,1.4-1.5,1.4-2.5V41c0.1-1-0.5-2-1.4-2.5L77.1,6C76.7,5.7,76.2,5.6,75.7,5.6z"/>
	<path class="st4" d="M75.7,138c-0.7,0-1.5-0.2-2.1-0.6L21.3,107c-1.2-0.8-1.8-2-1.8-3.4V43.3c0-1.3,0.7-2.7,1.8-3.4l0.2-0.1
		L73.6,9.7c1.3-0.8,2.9-0.8,4.2,0L130.2,40c1.1,0.7,1.8,2.1,1.8,3.4v60.4c0,1.3-0.7,2.7-1.8,3.4l-0.2,0.1l-52.3,30.2
		C77.1,137.8,76.4,138,75.7,138z M25.4,102.5l50.3,29.2l50.3-29.1V44.4l-50.3-29l-50.3,29V102.5z"/>
</g>
<path class="st7" d="M96.4,49.2c0-0.1-0.2-0.2-0.4-0.3h-0.6c-0.1,0-0.3,0-0.5,0.1c-0.3,0.1-0.4,0.3-0.4,0.3L75.7,99.4l-19-50.1
	c0-0.1-0.1-0.3-0.4-0.3c-0.2-0.1-0.4-0.1-0.5-0.1h-0.6c-0.2,0-0.4,0.1-0.4,0.3c0,0.1,0,0.2,0,0.2l20,52.9c0,0.1,0.1,0.2,0.3,0.3
	c0.1,0.1,0.2,0.1,0.5,0.1c0.2,0,0.4-0.1,0.5-0.1c0.2-0.1,0.3-0.3,0.3-0.3l20-52.9C96.4,49.4,96.5,49.3,96.4,49.2z"/>
</svg>
