<?xml version="1.0" encoding="utf-8"?>
<!-- Generator: Adobe Illustrator 19.2.1, SVG Export Plug-In . SVG Version: 6.00 Build 0)  -->
<svg version="1.1" id="Слой_1" xmlns="http://www.w3.org/2000/svg" xmlns:xlink="http://www.w3.org/1999/xlink" x="0px" y="0px"
	 viewBox="0 0 150.5 150.5" style="enable-background:new 0 0 150.5 150.5;" xml:space="preserve">
<style type="text/css">
	.st0{fill:url(#SVGID_1_);}
	.st1{fill:#EBECEC;}
	.st2{fill:url(#SVGID_2_);}
	.st3{fill:#FEFEFE;}
	.st4{fill:url(#SVGID_3_);}
</style>
<g id="Слой_x0020_1">
	
		<linearGradient id="SVGID_1_" gradientUnits="userSpaceOnUse" x1="-224.3067" y1="-1907.6389" x2="4322.249" y2="-1907.6389" gradientTransform="matrix(2.834646e-002 0 0 -2.834646e-002 17.8396 21.0663)">
		<stop  offset="0" style="stop-color:#949494"/>
		<stop  offset="1" style="stop-color:#C0C0C0"/>
	</linearGradient>
	<polygon class="st0" points="75.9,4 108.1,21.8 140.4,39.6 140.4,75.1 140.4,110.7 108.1,128.5 75.9,146.2 43.7,128.5 11.5,110.7 
		11.5,75.1 11.5,39.6 43.7,21.8 	"/>
	<polygon class="st1" points="75.9,6.5 107,23.7 138.1,40.8 138.1,75.1 138.1,109.5 107,126.6 75.9,143.8 44.8,126.6 13.7,109.5 
		13.7,75.1 13.7,40.8 44.8,23.7 	"/>
	
		<radialGradient id="SVGID_2_" cx="2137.6572" cy="-2029.3517" r="1070.9651" gradientTransform="matrix(3.859909e-002 0 0 -3.859909e-002 -7.8038 -3.19)" gradientUnits="userSpaceOnUse">
		<stop  offset="0" style="stop-color:#90271F"/>
		<stop  offset="1" style="stop-color:#68231C"/>
	</radialGradient>
	<polygon class="st2" points="75.9,9.5 105.7,25.9 135.4,42.3 135.4,75.1 135.4,108 105.7,124.4 75.9,140.8 46.2,124.4 16.4,108 
		16.4,75.1 16.4,42.3 46.2,25.9 	"/>
	<polygon class="st3" points="75.9,19.3 100.9,33.3 126,47.2 126,75.1 126,103.1 100.9,117 75.9,131 50.9,117 25.9,103.1 25.9,75.1 
		25.9,47.2 50.9,33.3 	"/>
	
		<radialGradient id="SVGID_3_" cx="2154.5571" cy="-2272.2341" r="683.8602" gradientTransform="matrix(3.827197e-002 0 0 -3.827197e-002 -7.1742 -4.8485)" gradientUnits="userSpaceOnUse">
		<stop  offset="0" style="stop-color:#90271F"/>
		<stop  offset="1" style="stop-color:#68231C"/>
	</radialGradient>
	<polygon class="st4" points="107.1,47 82,117.2 69.8,117.2 44.7,47 57.5,47 76,102.5 94.3,47 	"/>
</g>
</svg>
