<?xml version="1.0" encoding="utf-8"?>
<!-- Generator: Adobe Illustrator 23.1.0, SVG Export Plug-In . SVG Version: 6.00 Build 0)  -->
<svg version="1.1" id="Слой_2" xmlns="http://www.w3.org/2000/svg" xmlns:xlink="http://www.w3.org/1999/xlink" x="0px" y="0px"
	 viewBox="0 0 260 260.7" style="enable-background:new 0 0 260 260.7;" xml:space="preserve">
<style type="text/css">
	.st0{opacity:0.5;fill:url(#SVGID_1_);}
	.st1{fill:#7D2D00;}
</style>
<linearGradient id="SVGID_1_" gradientUnits="userSpaceOnUse" x1="22.2518" y1="130.2" x2="237.7482" y2="130.2">
	<stop  offset="0" style="stop-color:#005B7F"/>
	<stop  offset="0.5553" style="stop-color:#025C7F"/>
	<stop  offset="0.7554" style="stop-color:#096181"/>
	<stop  offset="0.8974" style="stop-color:#146984"/>
	<stop  offset="1" style="stop-color:#237387"/>
</linearGradient>
<path class="st0" d="M237.3,71.5c0-2.3-1.3-4.5-3.3-5.6l-101.2-58c-2-1.2-4.5-1.1-6.5,0L25.5,66.6c-2,1.2-3.2,3.3-3.2,5.6l0.4,116.7
	c0,2.3,1.3,4.5,3.3,5.6l101.2,58c2,1.2,4.5,1.1,6.5,0l100.8-58.7c2-1.2,3.2-3.3,3.2-5.6L237.3,71.5z M230,190.7l-95.8,55.8
	c-2,1.2-4.5,1.2-6.5,0l-96.2-55.1c-2-1.2-3.3-3.3-3.3-5.6L27.8,74.9c0-2.3,1.2-4.5,3.2-5.6l95.8-55.8c2-1.2,4.5-1.2,6.5,0l96.2,55.1
	c2,1.2,3.3,3.3,3.3,5.6l0.4,110.9C233.2,187.4,232,189.5,230,190.7z"/>
<path class="st1" d="M232.8,74.2c0-2.3-1.3-4.5-3.3-5.6l-96.2-55.1c-2-1.2-4.5-1.1-6.5,0L31,69.3c-2,1.2-3.2,3.3-3.2,5.6l0.4,110.9
	c0,2.3,1.3,4.5,3.3,5.6l96.2,55.1c2,1.2,4.5,1.1,6.5,0l95.8-55.8c2-1.2,3.2-3.3,3.2-5.6L232.8,74.2z M216.6,182.9l-82.5,48
	c-2,1.2-4.5,1.2-6.5,0l-82.8-47.4c-2-1.2-3.3-3.3-3.3-5.6l-0.3-95.4c0-2.3,1.2-4.5,3.2-5.6l82.5-48c2-1.2,4.5-1.2,6.5,0l82.8,47.4
	c2,1.2,3.3,3.3,3.3,5.6l0.3,95.4C219.8,179.6,218.6,181.7,216.6,182.9z"/>
<path class="st1" d="M76.2,81.6C75.7,82.3,76,83,76,83.1c14.3,39.9,28.6,79.8,42.9,119.7c0.1,0.2,0.2,0.6,0.7,0.9
	c0.5,0.3,1,0.3,1.2,0.3h18.6c0.1,0,0.6,0,1.1-0.3c0.4-0.3,0.5-0.7,0.6-0.9c14.3-39.9,28.7-79.9,43-119.8c0-0.1,0.3-0.8-0.2-1.4
	c-0.5-0.7-1.3-0.6-1.4-0.6c-6.3,0-12.6,0-18.9,0c-0.2,0-0.6,0-1,0.3c-0.5,0.3-0.7,0.8-0.7,0.9L130,177.9L98.1,82
	c0-0.1-0.2-0.5-0.5-0.7c-0.4-0.3-0.9-0.3-1.1-0.3c-6.3,0-12.5,0-18.8,0C77.7,80.9,76.8,80.8,76.2,81.6z"/>
<path class="st1" d="M134.5,206.7"/>
</svg>
