<?xml version="1.0" encoding="utf-8"?>
<!-- Generator: Adobe Illustrator 19.2.1, SVG Export Plug-In . SVG Version: 6.00 Build 0)  -->
<svg version="1.1" id="Слой_1" xmlns="http://www.w3.org/2000/svg" xmlns:xlink="http://www.w3.org/1999/xlink" x="0px" y="0px"
	 viewBox="0 0 100 100" style="enable-background:new 0 0 100 100;" xml:space="preserve">
<style type="text/css">
	.st0{fill:#333333;}
</style>
<g id="surface1">
	<path class="st0" d="M5.6,10.1v80.6C8,90,10.4,89,12.5,87.6V13.2C10.4,11.8,8,10.8,5.6,10.1z M94.4,10.1c-2.4,0.7-4.8,1.7-6.8,3.1
		v74.4c2.1,1.4,4.4,2.4,6.8,3.1V10.1z M48,12.8l-7.2,45.7l-9.9-35.5l-7.2,30.4l-4.4-11.6v14l5.8,15l6.5-27.3l10.6,39.6l6.5-43
		l9.6,41.3l10.2-37.5l6.5,28.3l5.8-13.3V46.3l-4.4,9.5l-7.2-33.1L58.9,60.3L48,12.8z"/>
</g>
</svg>
