<?xml version="1.0" encoding="utf-8"?>
<!-- Generator: Adobe Illustrator 23.1.0, SVG Export Plug-In . SVG Version: 6.00 Build 0)  -->
<svg version="1.1" id="Layer_1" xmlns="http://www.w3.org/2000/svg" xmlns:xlink="http://www.w3.org/1999/xlink" x="0px" y="0px"
	 viewBox="0 0 581.1 333.8" style="enable-background:new 0 0 581.1 333.8;" xml:space="preserve">
<style type="text/css">
	.st0{fill:#005775;}
	.st1{fill:#E4E4E4;}
	.st2{fill:#E4E4E4;stroke:#565555;stroke-miterlimit:10;}
	.st3{fill:#E4E4E4;stroke:#555555;stroke-miterlimit:10;}
	.st4{fill:#E5E5E5;}
</style>
<g>
	<path class="st0" d="M142.4,217.2l27,8.6l277.3,88.5l27,8.6c3.3,1.1,7.6,1.4,11.8,1s8.3-1.3,11.4-2.9l25.1-12.9
		c3.1-1.6,6.3-4.4,9-7.6c2.7-3.2,4.9-6.8,6-10.1l30.8-96.4c1-3.4,1.4-7.6,1-11.8c-0.3-4.2-1.4-8.3-3-11.4l-13-25
		c-1.6-3.1-4.4-6.3-7.6-9c-3.2-2.7-6.8-4.9-10.2-5.9l-27-8.6L230.7,33.8l-27-8.6c-3.3-1.1-7.6-1.4-11.8-1c-4.2,0.3-8.3,1.3-11.4,2.9
		l-25.1,12.9c-3.1,1.6-6.3,4.4-9,7.6c-2.7,3.2-4.9,6.8-6,10.1L109.6,154c-1.1,3.3-1.4,7.6-1,11.7c0.4,4.2,1.4,8.3,3,11.4l13,25
		c1.6,3.1,4.4,6.3,7.6,9C135.4,213.9,139,216.1,142.4,217.2z M166.3,101.4c3.6,1.1,6.4,3.7,8,6.8c1.6,3.2,2,6.9,0.9,10.5
		c-1.2,3.6-3.7,6.4-6.8,8.1c-3.2,1.6-6.9,2-10.5,0.9c-3.6-1.2-6.4-3.7-8.1-6.8c-1.6-3.2-2-6.9-0.9-10.5c1.2-3.6,3.7-6.4,6.8-8
		C158.9,100.7,162.6,100.2,166.3,101.4z"/>
	<path class="st1" d="M366.6,82.3l0.5-1.5l5.7,1.8l-0.5,1.5L366.6,82.3z M306.4,264.4l0.5-1.5l5.7,1.8l-0.5,1.5L306.4,264.4z
		 M355.1,78.7l0.5-1.5l5.7,1.8l-0.5,1.5L355.1,78.7z M294.9,260.7l0.5-1.5l5.7,1.8l-0.5,1.5L294.9,260.7z M343.7,75l0.5-1.5l5.7,1.8
		l-0.5,1.5L343.7,75z M283.4,257l0.5-1.5l5.7,1.8l-0.5,1.5L283.4,257z M332.2,71.4l0.5-1.5l5.7,1.8l-0.5,1.5L332.2,71.4z M272,253.4
		l0.5-1.5l5.7,1.8l-0.5,1.5L272,253.4z M320.7,67.7l0.5-1.5L327,68l-0.5,1.5L320.7,67.7z M260.5,249.7l0.5-1.5l5.7,1.8l-0.5,1.5
		L260.5,249.7z M309.3,64.1l0.5-1.5l5.7,1.8l-0.5,1.5L309.3,64.1z M249.1,246l0.5-1.5l5.7,1.8l-0.5,1.5L249.1,246z M297.8,60.4
		l0.5-1.5l5.7,1.8l-0.5,1.5L297.8,60.4z M237.7,242.4l0.5-1.5l5.7,1.8l-0.5,1.5L237.7,242.4z M286.4,56.8l0.5-1.5l5.7,1.8l-0.5,1.5
		L286.4,56.8z M226.2,238.7l0.5-1.5l5.7,1.8l-0.5,1.5L226.2,238.7z M274.9,53.1l0.5-1.5l5.7,1.8l-0.5,1.5L274.9,53.1z M214.7,235.1
		l0.5-1.5l5.7,1.8l-0.5,1.5L214.7,235.1z M263.5,49.4l0.5-1.5l5.7,1.8l-0.5,1.5L263.5,49.4z M203.2,231.4l0.5-1.5l5.7,1.8l-0.5,1.5
		L203.2,231.4z M252,45.8l0.5-1.5l5.7,1.8l-0.5,1.5L252,45.8z M191.8,227.8l0.5-1.5l5.7,1.8l-0.5,1.5L191.8,227.8z M240.6,42.1
		l0.5-1.5l5.7,1.8l-0.5,1.5L240.6,42.1z M180.3,224.1l0.5-1.5l5.7,1.8l-0.5,1.5L180.3,224.1z M229.1,38.5l0.5-1.5l5.7,1.8l-0.5,1.5
		L229.1,38.5z M168.9,220.5l0.5-1.5l5.7,1.8l-0.5,1.5L168.9,220.5z M217.7,34.8l0.5-1.5l5.7,1.8l-0.5,1.5L217.7,34.8z M157.5,216.8
		l0.5-1.5l5.7,1.8l-0.5,1.5L157.5,216.8z M206.3,31.2l0.5-1.5l5.7,1.8L212,33L206.3,31.2z M146.6,213.3c-0.2-0.1-0.5-0.1-0.7-0.2
		l0.6-1.5c0.2,0.1,0.4,0.1,0.6,0.2l5.1,1.6l-0.5,1.5L146.6,213.3z M195.4,29.9l-0.7,0.1l-0.2-1.6l0.7,0c1.9-0.2,3.7-0.2,5.4,0
		l-0.1,1.6C198.9,29.8,197.2,29.8,195.4,29.9z M140.5,210.2c-0.9-0.6-1.8-1.3-2.6-2c-0.7-0.6-1.4-1.2-2.1-1.9l1.1-1.1
		c0.6,0.6,1.3,1.2,2,1.8c0.8,0.7,1.7,1.3,2.5,2L140.5,210.2z M186.1,32.3l-2.5,1.3l-0.7-1.4l2.5-1.3c0.9-0.5,1.9-0.9,3.1-1.2
		l0.5,1.5C187.9,31.5,186.9,31.9,186.1,32.3z M131.8,201.4c-0.2-0.4-0.4-0.7-0.6-1.1l-2.2-4.3l1.4-0.7l2.2,4.3
		c0.2,0.3,0.3,0.7,0.6,1L131.8,201.4z M172.9,39.1l-0.7-1.4l5.3-2.7l0.7,1.4L172.9,39.1z M126.2,190.8l-2.8-5.3l1.4-0.7l2.8,5.3
		L126.2,190.8z M162.2,44.5l-0.7-1.4l5.3-2.7l0.7,1.4L162.2,44.5z M120.7,180.1l-2.5-4.7c-0.1-0.2-0.2-0.4-0.3-0.6l1.4-0.7
		c0.1,0.2,0.2,0.4,0.3,0.6l2.5,4.7L120.7,180.1z M153.8,51.3l-0.5,0.6l-1.2-1l0.5-0.6c1.2-1.4,2.4-2.7,3.8-3.8l1,1.2
		C156.1,48.8,154.9,50,153.8,51.3z M116.1,168.8c-0.2-1.1-0.3-2.2-0.4-3.3c-0.1-1-0.1-1.9-0.1-2.9l1.6,0c0,0.9,0.1,1.8,0.1,2.7
		c0.1,1,0.2,2.1,0.4,3.1L116.1,168.8z M148.8,59.5l-0.9,2.8l-1.5-0.5l0.9-2.8c0.3-1,0.8-2,1.3-3l1.4,0.7
		C149.5,57.8,149.1,58.7,148.8,59.5z M116.2,156.5c0.1-0.4,0.2-0.8,0.3-1.1l1.5-4.7l1.5,0.5l-1.5,4.7c-0.1,0.3-0.2,0.7-0.3,1
		L116.2,156.5z M128.6,117.7l1.8-5.7l1.5,0.5l-1.8,5.7L128.6,117.7z M124.2,131.2l1.8-5.7l1.5,0.5l-1.8,5.7L124.2,131.2z
		 M120.8,142.2l1.8-5.7l1.5,0.5l-1.8,5.7L120.8,142.2z M132.2,106.3l1.8-5.7l1.5,0.5l-1.8,5.7L132.2,106.3z M135.9,94.8l1.8-5.7
		l1.5,0.5l-1.8,5.7L135.9,94.8z M139.5,83.7l1.8-5.7l1.5,0.5l-1.8,5.7L139.5,83.7z M142.9,72.9l1.8-5.7l1.5,0.5l-1.8,5.7L142.9,72.9
		z"/>
	<path class="st1" d="M325.1,269.5l-0.5,1.5l-5.7-1.8l0.5-1.5L325.1,269.5z M385.3,87.5l-0.5,1.5l-5.7-1.8l0.5-1.5L385.3,87.5z
		 M336.5,273.2l-0.5,1.5l-5.7-1.8l0.5-1.5L336.5,273.2z M396.8,91.2l-0.5,1.5l-5.7-1.8l0.5-1.5L396.8,91.2z M348,276.8l-0.5,1.5
		l-5.7-1.8l0.5-1.5L348,276.8z M408.2,94.8l-0.5,1.5l-5.7-1.8l0.5-1.5L408.2,94.8z M359.5,280.5L359,282l-5.7-1.8l0.5-1.5
		L359.5,280.5z M419.7,98.5l-0.5,1.5l-5.7-1.8l0.5-1.5L419.7,98.5z M370.9,284.1l-0.5,1.5l-5.7-1.8l0.5-1.5L370.9,284.1z
		 M431.1,102.1l-0.5,1.5l-5.7-1.8l0.5-1.5L431.1,102.1z M382.4,287.8l-0.5,1.5l-5.7-1.8l0.5-1.5L382.4,287.8z M442.5,105.8l-0.5,1.5
		l-5.7-1.8l0.5-1.5L442.5,105.8z M393.8,291.4l-0.5,1.5l-5.7-1.8l0.5-1.5L393.8,291.4z M454,109.5l-0.5,1.5l-5.7-1.8l0.5-1.5
		L454,109.5z M405.3,295.1l-0.5,1.5l-5.7-1.8l0.5-1.5L405.3,295.1z M465.5,113.1l-0.5,1.5l-5.7-1.8l0.5-1.5L465.5,113.1z
		 M416.7,298.8l-0.5,1.5l-5.7-1.8l0.5-1.5L416.7,298.8z M477,116.8l-0.5,1.5l-5.7-1.8l0.5-1.5L477,116.8z M428.2,302.4l-0.5,1.5
		l-5.7-1.8l0.5-1.5L428.2,302.4z M488.4,120.4l-0.5,1.5l-5.7-1.8l0.5-1.5L488.4,120.4z M439.6,306.1l-0.5,1.5l-5.7-1.8l0.5-1.5
		L439.6,306.1z M499.9,124.1l-0.5,1.5l-5.7-1.8l0.5-1.5L499.9,124.1z M451.1,309.7l-0.5,1.5l-5.7-1.8l0.5-1.5L451.1,309.7z
		 M511.3,127.8l-0.5,1.5l-5.7-1.8l0.5-1.5L511.3,127.8z M462.5,313.4l-0.5,1.5l-5.7-1.8l0.5-1.5L462.5,313.4z M522.7,131.4l-0.5,1.5
		l-5.7-1.8l0.5-1.5L522.7,131.4z M474,317l-0.5,1.5l-5.7-1.8l0.5-1.5L474,317z M533.6,134.9c0.2,0.1,0.5,0.1,0.7,0.2l-0.6,1.5
		c-0.2-0.1-0.4-0.1-0.6-0.2l-5.1-1.6l0.5-1.5L533.6,134.9z M484.8,318.3l0.7-0.1l0.2,1.6l-0.7,0c-1.9,0.2-3.7,0.2-5.4,0l0.1-1.6
		C481.3,318.4,483.1,318.4,484.8,318.3z M539.7,138.1c0.9,0.6,1.8,1.3,2.7,2c0.7,0.6,1.4,1.2,2.1,1.9l-1.1,1.1
		c-0.6-0.6-1.3-1.2-2-1.8c-0.8-0.7-1.7-1.3-2.5-2L539.7,138.1z M494.1,315.9l2.5-1.3l0.7,1.4l-2.5,1.3c-0.9,0.5-1.9,0.9-3.1,1.2
		l-0.5-1.5C492.4,316.7,493.3,316.3,494.1,315.9z M548.3,146.7c0.2,0.4,0.4,0.7,0.6,1.1l2.2,4.3l-1.4,0.7l-2.2-4.3
		c-0.2-0.3-0.3-0.7-0.6-1L548.3,146.7z M507.3,309.2l0.7,1.4l-5.3,2.7l-0.7-1.4L507.3,309.2z M554,157.4l2.8,5.3l-1.4,0.7l-2.8-5.3
		L554,157.4z M518,303.7l0.7,1.4l-5.3,2.7l-0.7-1.4L518,303.7z M559.5,168.1l2.5,4.7c0.1,0.2,0.2,0.4,0.3,0.6l-1.5,0.7
		c-0.1-0.2-0.2-0.4-0.3-0.6l-2.5-4.7L559.5,168.1z M526.5,296.9l0.5-0.6l1.2,1l-0.5,0.6c-1.2,1.4-2.4,2.7-3.8,3.8l-1-1.2
		C524.1,299.4,525.3,298.2,526.5,296.9z M564.1,179.4c0.2,1.1,0.3,2.2,0.4,3.3c0.1,1,0.1,1.9,0.1,2.9l-1.6,0c0-0.9-0.1-1.8-0.1-2.7
		c-0.1-1-0.2-2.1-0.4-3.1L564.1,179.4z M531.4,288.7l0.9-2.8l1.5,0.5l-0.9,2.8c-0.3,1-0.8,2-1.3,3l-1.4-0.7
		C530.7,290.5,531.1,289.6,531.4,288.7z M564,191.7c-0.1,0.4-0.2,0.8-0.3,1.1l-1.5,4.7l-1.5-0.5l1.5-4.7c0.1-0.3,0.2-0.7,0.3-1
		L564,191.7z M551.7,230.5l-1.8,5.7l-1.5-0.5l1.8-5.7L551.7,230.5z M556,217l-1.8,5.7l-1.5-0.5l1.8-5.7L556,217z M559.5,206
		l-1.8,5.7l-1.5-0.5l1.8-5.7L559.5,206z M548,242l-1.8,5.7l-1.5-0.5l1.8-5.7L548,242z M544.3,253.4l-1.8,5.7l-1.5-0.5l1.8-5.7
		L544.3,253.4z M540.8,264.5l-1.8,5.7l-1.5-0.5l1.8-5.7L540.8,264.5z M537.4,275.3l-1.8,5.7l-1.5-0.5l1.8-5.7L537.4,275.3z"/>
	<g>
		<path class="st1" d="M178,125.8l-1.3-0.9c1.1-1.5,1.9-3.1,2.5-4.9l0-0.1l1.5,0.6C180.1,122.4,179.2,124.2,178,125.8z M180,114.3
			c0-1.9-0.3-3.7-1-5.5l1.5-0.5c0.7,2,1,4,1,6L180,114.3z M171,131.9c-0.8,0.5-1.8,0.8-2.7,1.1l-0.5-1.5c0.8-0.3,1.7-0.6,2.5-1
			c0.9-0.4,1.7-1,2.5-1.5l0.9,1.3C172.9,130.8,172,131.4,171,131.9z M176.5,103.8c-1.1-1.5-2.5-2.8-4-3.9l0.9-1.3
			c1.7,1.2,3.1,2.6,4.3,4.3L176.5,103.8z M156.3,133.1l0.5-1.5c1.8,0.6,3.7,0.8,5.6,0.8l0,1.6C160.3,134.1,158.3,133.8,156.3,133.1z
			 M162,96.6l0-1.6c2.1,0,4.1,0.3,6,0.9l-0.5,1.5C165.7,96.8,163.8,96.5,162,96.6z M150.8,130.5c-1.7-1.2-3.1-2.6-4.4-4.3l1.3-0.9
			c1.1,1.5,2.5,2.8,4,3.9L150.8,130.5z M153.8,98.6c-0.9,0.5-1.7,1-2.4,1.5l-0.9-1.3c0.8-0.6,1.7-1.1,2.6-1.6
			c0.9-0.5,1.9-0.9,2.8-1.2l0.5,1.5C155.6,97.8,154.7,98.2,153.8,98.6z M143.6,120.8c-0.7-2-1-4-1-6l1.6,0c0,1.9,0.3,3.7,1,5.5
			L143.6,120.8z M145,109l-0.1,0.2l-1.4-0.7c0.6-2,1.5-3.8,2.7-5.4l1.3,0.9C146.4,105.5,145.6,107.2,145,109z"/>
	</g>
	<g>
		<path class="st2" d="M136.3,93.5c-0.1-0.1-0.2-0.1-0.4-0.2C135.3,93.1,135.5,93.2,136.3,93.5z"/>
		<path class="st2" d="M156.4,111.6c3.2,0.3,4.3-0.7,4.7-1.8c0.1-0.2,0.1-0.3,0.1-0.5c0.2-2.2-3-5.1-5.9-6.7
			c-0.9,0.5-1.8,1.1-2.5,1.8c2,0.7,5.1,3.2,5.6,4.4c-0.3,0.1-0.8,0.1-1.8,0.1C127.8,106.6,9.8,45.5-11,40.8l-0.6,2.6
			C12.2,48.8,128.6,109.3,156.4,111.6z"/>
		<path class="st2" d="M0.6,98.4c13.5,0.3,47.6-0.6,87.3,3c27,2.5,54.3,7.9,66.3,15.1c0.9,0.5,1.2,0.9,1.4,1.1
			c-1.1,0.7-5.4,1-7.3,0.3c0.2,1,0.6,2,1,3c3.2,0.4,7.7,0,8.8-2c0.1-0.1,0.1-0.3,0.2-0.5c0.4-1,0-2.5-2.7-4.1
			C130.8,99.5,56.2,94.3,1,95.6L0.6,98.4z"/>
	</g>
	<path class="st3" d="M128.3,95c-1.5,0.3-4.2,2.3-5.8,5.3c-1.2,2.4-2.2,6.2,0.5,10.9l0.2-0.1l1.2-3.7c-0.5-1.8-0.4-3.5,0.3-5.2
		c0.6-1.4,1.6-2.5,2.4-3.3L128.3,95z"/>
</g>
<g>
	<path class="st4" d="M229.9,162.7l-0.6-1.5l1.4-1.1c1.8-1.2,3.2-2.7,4.2-4.3c1.1-1.6,2-3.9,3-6.9l7.2-23.3
		c1.6-5.2,1.7-9.7,0.4-13.3l-0.5-1.6l1.3-0.9l43.1,13.4l0.6,1.5l-1.4,1.1c-1.8,1.2-3.2,2.6-4.2,4.3c-1.1,1.6-2,3.9-3,6.9l-8.9,28.8
		c-0.7,2.2-0.8,3.8-0.5,4.8c0.4,1,1.3,2.1,3,3.1l1.5,0.9l-1.5,2.1l-18-5.6l-0.2-2.8l1.8,0.1c2.1,0,3.6-0.3,4.5-1s1.7-2.1,2.4-4.4
		l10.3-33.3c0.7-2.3,0.9-3.9,0.5-4.8c-0.4-0.9-1.5-1.7-3.5-2.3l-12.4-3.9c-1.9-0.6-3.3-0.6-4.1-0.1c-0.8,0.6-1.6,2-2.3,4.2
		l-10.3,33.3c-0.7,2.3-0.9,3.9-0.5,5c0.3,1,1.4,2.1,3.1,3.3l1.6,0.9l-1.7,2.3L229.9,162.7z"/>
	<path class="st4" d="M278.1,199l-0.6-1.3l1.2-0.9c2.3-1.8,4.1-4.7,5.4-8.8l11.1-35.8c0.4-1.4,0.2-2.3-0.7-2.9l-3.5-2.1l0.7-2.3
		c1-0.5,2.6-0.7,5-0.7c2.4,0,4.4,0.3,6,0.8c1.2,0.4,1.5,1.7,0.8,4l-0.1,0.3c4.1-2,8.1-2.5,12-1.2c5.2,1.6,8.7,4.5,10.6,8.6
		c1.9,4.1,1.9,8.9,0.3,14.3c-1.9,6.1-4.9,10.7-9.1,13.6c-4.2,2.9-8.9,3.5-14.2,1.9c-2.9-0.9-5.1-2.3-6.7-4.2
		c-0.4-0.4-0.5-0.9-0.3-1.6c0.4-1.2,0.9-1.7,1.7-1.5c0.1,0,0.5,0.4,1.5,1.1c0.9,0.7,2,1.3,3.3,1.7c3.3,1,6.3,0.4,9.2-1.8
		c2.9-2.2,5-5.6,6.4-10.1c1.3-4.3,1.4-8.1,0.3-11.3c-1.2-3.3-3.4-5.4-6.7-6.5c-3.1-0.9-6.1-0.8-9.1,0.3l-12.8,41.2
		c-0.6,1.9-0.8,3.3-0.6,4.2c0.2,0.9,0.8,1.7,2,2.3l1.4,0.8l-1.4,2L278.1,199z"/>
	<path class="st4" d="M339,197.6c-3.7-1.1-6.4-3.7-8-7.6c-1.6-3.9-1.6-8.7,0.2-14.4c2-6.3,5.2-10.8,9.8-13.4c4.6-2.6,9.8-3,15.7-1.2
		c1.6,0.5,4,1.5,7.2,3.1c3.2,1.6,5.5,2.6,6.9,3.2l0.7,1.2l-1.4,1c-1,0.9-1.6,1.8-1.9,2.6l-7.4,23.9c-0.5,1.5,0.1,2.5,1.6,3
		c1.2,0.4,2.6,0.3,4.1-0.2l0.8,2.3c-3.8,2.2-7,3-9.6,2.1c-2-0.6-3.3-1.7-3.8-3.2c-0.5-1.5-0.4-3.6,0.5-6.4
		C349,197.9,344,199.2,339,197.6z M338.6,187.7c0.9,2.7,2.6,4.4,5,5.1c4.1,1.3,8.1,0.1,12.1-3.6l6.2-19.9c-1.7-2.1-3.8-3.5-6.5-4.4
		c-3.6-1.1-6.8-0.7-9.6,1.4c-2.8,2-4.9,5.5-6.4,10.3C337.9,181.3,337.7,185,338.6,187.7z"/>
	<path class="st4" d="M370.5,206.2l-0.1-2.5l1.7,0c1.9,0.1,3.2-0.2,4-0.8s1.5-2,2.2-4l5.8-18.6c0.6-2.1,0.8-3.6,0.5-4.6
		c-0.3-1-1.3-2-2.8-3l-1.4-0.9l1.5-2l14.7,4.6l0.6,1.3l-1.2,0.9c-1.7,1.2-3,2.6-3.9,4.1c-1,1.5-1.9,3.6-2.7,6.4l-3.7,11.9l23.9-14.4
		c-0.1-1.4-1.1-2.8-3-4.1l-1.4-0.9l1.4-2l14.8,4.6l0.5,1.3l-1.2,0.9c-1.7,1.2-3,2.6-3.9,4.1c-1,1.5-1.9,3.6-2.7,6.4l-4.5,14.4
		c-0.6,2-0.8,3.4-0.4,4.3c0.3,0.9,1.2,1.8,2.8,2.9l1.3,0.8l-1.4,2l-16.6-5.1l0-2.5l1.7,0c1.9,0.1,3.2-0.2,4-0.8s1.5-2,2.2-4
		l5.1-16.4l-23.9,14.4c0,1.4,0.9,2.8,2.9,4l1.3,0.8l-1.4,2L370.5,206.2z M413,171.5c-2.4,0.6-5.4,0.3-9-0.8
		c-3.5-1.1-6.1-2.6-7.8-4.4c-1.7-1.8-2.2-3.8-1.5-6c0.5-1.6,1.4-2.7,2.8-3.3s2.7-0.7,4.2-0.3c0.9,0.3,1.2,0.8,1,1.4
		c0,0.1-0.3,0.5-0.9,1.1c-0.6,0.6-1.1,1.4-1.4,2.4c-0.8,2.7,0.7,4.6,4.6,5.9c4,1.2,6.4,0.6,7.2-2c0.3-1,0.4-2,0.3-2.9
		c-0.1-0.9-0.1-1.4-0.1-1.5c0.2-0.7,0.8-0.9,1.7-0.6c1.4,0.4,2.4,1.3,3.1,2.5s0.8,2.7,0.3,4.3C417,169.6,415.5,170.9,413,171.5z"/>
	<path class="st4" d="M436.3,227.7c-5.2-1.6-9-4.8-11.3-9.5c-2.3-4.7-2.6-9.8-0.9-15.4c1.8-5.9,5-10.1,9.4-12.5
		c4.4-2.4,9.4-2.8,15-1c3.9,1.2,6.7,3.1,8.5,5.6c1.8,2.6,2.3,5.3,1.4,8.1c-0.7,2.1-1.9,3.6-3.6,4.5c-1.8,0.9-3.7,1-5.8,0.4
		c-0.9-0.3-1.3-0.7-1.1-1.1c0-0.2,0.3-0.4,0.7-0.8c0.4-0.4,0.9-0.9,1.5-1.7c0.6-0.8,1.1-1.8,1.5-3c0.6-2,0.4-3.7-0.5-5.2
		c-1-1.5-2.5-2.6-4.8-3.3c-3-0.9-5.8-0.3-8.4,1.9c-2.6,2.2-4.7,5.5-6,10c-1.4,4.5-1.5,8.5-0.2,11.8c1.3,3.3,3.7,5.5,7.3,6.7
		c3.7,1.1,7.4,0.9,11.1-0.6c0.1-0.1,0.4-0.1,0.8,0.1c0.4,0.1,0.8,0.5,1,1.1c0.3,0.6,0.3,1.1,0.2,1.6c-0.1,0.4-0.2,0.6-0.4,0.6
		C446.9,228.8,441.7,229.4,436.3,227.7z"/>
</g>
</svg>
