<?xml version="1.0" encoding="utf-8"?>
<!-- Generator: Adobe Illustrator 19.2.1, SVG Export Plug-In . SVG Version: 6.00 Build 0)  -->
<svg version="1.1" id="Слой_2" xmlns="http://www.w3.org/2000/svg" xmlns:xlink="http://www.w3.org/1999/xlink" x="0px" y="0px"
	 viewBox="0 0 193.6 195.1" style="enable-background:new 0 0 193.6 195.1;" xml:space="preserve">
<style type="text/css">
	.st0{fill:#333333;}
</style>
<path class="st0" d="M88.2,97.6L76.3,83.1c2.7-2.2,5.5-4.5,8.3-6.8l7.5,9.1c4.3,5.3,12.1-1.1,7.8-6.4l-7.5-9.1
	c2.4-1.9,4.8-3.9,7.2-5.9l11.9,14.5L88.2,97.6z"/>
<path class="st0" d="M119.2,72.2l-11.9-14.5c2.5-2,5-4.1,7.4-6l5.8,7c4.3,5.3,12.1-1.1,7.8-6.4l-5.8-7c1.9-1.5,3.7-3,5.4-4.4
	l11.9,14.5L119.2,72.2z"/>
<path class="st0" d="M52.6,102.4l7.2,8.8c4.3,5.3,12.1-1.1,7.8-6.4L60.4,96c2.5-2,5.2-4.3,8.1-6.7L80.4,104l-42.8,35.1l-2.8-3.4
	c1.3-1.5,2.7-3.3,4-5.6c0.7-1.2,1.4-2.4,2.1-4c1.7-4,1.3-4.9,2.9-12c0.2-0.9,1.1-4.8,2.7-6.6c0.4-0.5,0.8-0.8,0.9-0.9
	C47.9,106.3,49.7,104.8,52.6,102.4z"/>
<path class="st0" d="M46.5,149.9L174.9,44.6c6.6-5.4-2.3-16.2-8.8-10.8L147.5,49l-11.8-14.5c2.8-2.3,5.2-4.3,7.2-5.9l6.6,8
	c4.3,5.3,12.1-1.1,7.8-6.4l-6.2-7.6c25.8-14.1,49.5,25.9,28,42.9l-95.2,79c-5.4,4.4-17.5,3.5-24.9,4.3c-4.7,0.5-7.9,2.8-9.6,4.4
	L46.5,149.9z"/>
<path class="st0" d="M41.9,160.1c-3.9,3.3-10.9,9.1-16.6,13.2C17,179.4-1.1,164.2,10,155c7.1-5.9,13.4-10.6,17-13.2L41.9,160.1z"/>
</svg>
