<?xml version="1.0" encoding="utf-8"?>
<!-- Generator: Adobe Illustrator 19.2.1, SVG Export Plug-In . SVG Version: 6.00 Build 0)  -->
<svg version="1.1" id="Слой_1" xmlns="http://www.w3.org/2000/svg" xmlns:xlink="http://www.w3.org/1999/xlink" x="0px" y="0px"
	 viewBox="0 0 113.4 113.4" style="enable-background:new 0 0 113.4 113.4;" xml:space="preserve">
<style type="text/css">
	.st0{fill:none;stroke:#333333;stroke-width:3;stroke-miterlimit:10;}
	.st1{fill:none;stroke:#333333;stroke-width:4;stroke-miterlimit:10;}
</style>
<path class="st0" d="M82.1,96.9l-32.8,9.2c-1.5,0.4-3.1-0.5-3.5-2L22.2,19.8c-0.4-1.5,0.5-3.1,2-3.5L57,7.2c1.5-0.4,3.1,0.5,3.5,2
	l23.6,84.3C84.5,94.9,83.6,96.4,82.1,96.9z"/>
<line class="st1" x1="22.3" y1="46" x2="32.2" y2="81.3"/>
<line class="st1" x1="17.4" y1="55" x2="23.8" y2="78"/>
<line class="st1" x1="12" y1="61.9" x2="15.4" y2="73.9"/>
<line class="st1" x1="73.8" y1="33.6" x2="83.7" y2="68.9"/>
<line class="st1" x1="82.9" y1="38.4" x2="89.4" y2="61.5"/>
<line class="st1" x1="91.3" y1="41.7" x2="94.6" y2="53.7"/>
</svg>
