<?xml version="1.0" encoding="utf-8"?>
<!-- Generator: Adobe Illustrator 19.2.1, SVG Export Plug-In . SVG Version: 6.00 Build 0)  -->
<svg version="1.1" id="图层_1" xmlns="http://www.w3.org/2000/svg" xmlns:xlink="http://www.w3.org/1999/xlink" x="0px" y="0px"
	 viewBox="0 0 2969.4 2057" style="enable-background:new 0 0 2969.4 2057;" xml:space="preserve">
<style type="text/css">
	.st0{opacity:0.51;}
	.st1{fill:none;stroke:#541616;stroke-width:0.5;stroke-miterlimit:10;}
	.st2{fill:none;stroke:#244047;stroke-width:0.5;stroke-miterlimit:10;}
</style>
<g class="st0">
	<path class="st1" d="M-597.9,1355.4c0,0,2.6,0.7,7.7,1.8c15.3,3.1,53,8.8,108.7,3c67.9-7,162.6-30.8,276.6-96.5
		c106.6-61.4,140.6-124,142-183.5c1.1-49-19.8-96-41-138.2c-21.1-42.3-42.4-79.8-41.7-110.2c0.4-18.2,8.9-34,30.1-46.3
		c21.2-12.3,54.8-21.4,105.8-26.6c35-3.6,78.2-5.5,131.1-5.3c98.2,0.2,204.9,45.7,287.4,91.2c82.5,45.6,140.9,91.3,142.2,92.2
		c210.1,142.4,361.1,490.4,691.9,456.2c24-2.5,48.9-7,74.9-13.7c187.4-48.4,343.9-76.7,475.6-90.2c327.7-33.8,502.3,23.2,619.6,86.2
		s177.2,131.6,275.3,121.4c41.4-4.3,89.9-22.6,152.5-61.4l0.1,0l0,0c0,0,2.6-1.4,7.4-4.3c34-20.5,177.9-115.1,306.9-317.4l1.3,0.6
		c-147.7,231.5-315,322.3-315.1,322.3l-0.3-0.6l0.4,0.6c-62.7,38.9-111.3,57.4-153.1,61.6c-99,10.1-159-58.7-276.1-121.5
		c-117.1-62.8-291.3-119.8-618.7-86c-131.6,13.6-288,41.8-475.4,90.2c-26,6.7-51.1,11.2-75.1,13.7
		c-332.1,34.2-483.1-314.6-692.9-456.4c-1.4-1-59.7-46.6-142.1-92.1c-82.4-45.6-189-90.8-286.8-91.1c-52.9-0.2-96,1.7-131,5.3
		c-50.9,5.3-84.4,14.3-105.1,26.4c-20.8,12.1-28.8,27.1-29.3,45.1c-0.7,29.8,20.4,67.4,41.6,109.6c21.1,42.3,42.2,89.3,41.1,138.7
		c-1.5,60.1-35.9,123.3-142.9,184.9c-114.2,65.7-209.3,89.6-277.2,96.6c-74.6,7.7-116.9-4.9-117-4.9L-597.9,1355.4"/>
	<path class="st1" d="M-596.4,1301.5c0,0,0.7,0.2,2.3,0.8c10.4,3.3,57,16.2,132.2,8.4c63.8-6.6,148.1-28,248.4-82.9
		c102.8-56.4,139.1-115.5,146.1-173.1c0.7-5.2,0.9-10.3,1.1-15.5c1-43.5-14.4-85.2-30-123s-31.3-71.9-30.6-100.3
		c0.4-20,9.1-37.2,31.6-50.7c22.4-13.5,58.5-23.3,113.9-29.1c31.7-3.3,69.7-5.2,115.2-5.6c95-0.9,198.5,40.6,280.1,83.2
		c40.8,21.3,76.2,43,102.3,59.7c26.1,16.8,43,28.7,46.6,30.7c19,10,35,24.6,52.2,38.6c195.5,159.6,342,452.3,651,420.3
		c14.3-1.5,29-3.6,44.2-6.6c130.7-25.4,246.2-42.5,348.8-53c361-37.3,562.7,6.3,699.1,56.6c136.3,50.3,207.2,107.1,306.5,96.9
		c48-5,102.8-25.6,175.1-70.3l0,0l0,0c0,0,2.5-1.5,7.4-4.4c33.6-20.9,176.7-116.4,312.3-310.1l1.2,0.7
		c-155.1,221.7-320.1,315-320.2,315l-0.4-0.6l0.4,0.6c-72.3,44.9-127.5,65.6-175.8,70.6c-100,10.2-170.9-46.8-307.1-97
		c-136.1-50.2-337.6-93.8-698.3-56.5c-102.6,10.6-218.2,27.7-348.7,53c-15.1,3-29.9,5.1-44.3,6.6
		c-310.2,31.9-456.7-261.4-652.1-420.6c-17.1-14-33.2-28.6-51.9-38.5c-3.9-2-20.6-14-46.7-30.8C437,824.4,275.4,730.6,133.6,731.9
		c-45.4,0.4-83.4,2.3-115,5.6c-55.3,5.7-91.2,15.6-113.3,28.9s-30.3,29.9-30.9,49.4c-0.7,27.9,15,61.9,30.6,99.8
		c15.6,37.9,31.2,79.6,30.1,123.5c-0.1,5.1-0.4,10.4-1.1,15.6c-7.1,58-43.7,117.8-147,174.3c-100.4,55-185,76.5-249,83.2
		c-86.1,8.8-135-9.3-135.1-9.2L-596.4,1301.5"/>
	<path class="st1" d="M-594.9,1247.6c0,0,0.8,0.4,2.5,1c11.7,4.5,64.1,22.3,148.8,13.6c59.1-6.1,133.8-25.1,221.3-70.5
		c99.9-51.9,138.3-108.1,150.1-164c2.3-10.7,3.4-21.4,3.7-31.8c1.8-74.8-41.5-143.1-40.4-194.6c0.5-22,9.3-41.1,33.1-56
		c23.8-14.9,62.5-25.9,123-32.1c27.9-2.9,60.5-4.8,98.4-5.6c91.8-2,192,35.6,272.8,75.4c80.7,39.7,142,81.7,155.7,88.6
		c19,9.6,35.2,23.9,52.4,37.5c103.4,81,190.2,195.7,290.9,286.1c100.8,90.3,215.2,156.2,373.8,139.9c3.6-0.4,7.1-0.7,10.5-1.2
		c39.7-4.9,77.9-9.3,114.9-13.1c866.7-89.3,1005.7,121.9,1214.2,100.4c57.9-6,121.1-29.8,207.1-83c0,0,2.5-1.5,7.3-4.5
		c33.3-21.1,175.6-117.6,317.6-302.8l1.2,0.7c-162.5,211.9-325.3,307.7-325.4,307.7c-86,53.2-149.5,77.2-207.7,83.2
		c-209.6,21.5-347.6-189.6-1214.2-100.4c-36.9,3.8-75.2,8.2-114.8,13.1c-3.5,0.5-7.1,0.8-10.6,1.2c-159.2,16.4-274-49.8-374.8-140.2
		c-100.8-90.4-187.6-205.2-290.9-286c-17.4-13.6-33.4-27.9-52.2-37.4c-13.9-7-75.1-48.9-155.7-88.6
		c-80.7-39.7-180.8-77.1-272.2-75.2c-37.9,0.8-70.4,2.7-98.3,5.5c-60.5,6.2-98.9,17.2-122.3,31.9c-23.4,14.7-31.8,33-32.3,54.8
		c-1.3,50.9,42.1,119.3,40.4,194.6c-0.2,10.6-1.4,21.3-3.7,32c-11.9,56.3-50.8,113.1-151,165.1c-87.7,45.5-162.7,64.6-221.9,70.6
		c-97.1,10-152-14.7-152-14.7L-594.9,1247.6"/>
	<path class="st1" d="M-593.4,1193.7c0,0,0.9,0.5,2.7,1.3c12.9,6,70.5,29.5,164.2,19.9c53.8-5.6,119.6-22,195.6-59.1
		c96.9-47.3,137.3-100.6,154.1-155c5.3-17,7.6-33.9,8-50.3c1.5-61-23.6-116.8-22.6-161.7c0.5-24.7,9.2-46.1,34.4-62.9
		c25.3-16.8,67-29.1,133.9-36c23.7-2.4,50.6-4.2,81-5.3c177.2-6.1,387.8,134.7,428,154.3c19,9.3,35.3,23.3,52.8,36.4
		c213.7,160.4,346.2,451.1,655.3,435.7c876-43.3,1079.8,101.5,1288.2,79.9c74-7.7,148.7-36.2,254.4-101.5c0,0,2.4-1.6,7.2-4.6
		c33.1-21.6,174.4-118.9,323-295.5l1.1,0.7c-169.9,202.1-330.4,300.4-330.5,300.5c-105.9,65.4-180.8,94.1-255.2,101.8
		c-209.3,21.6-412.4-123.3-1288.3-80c-310.3,15.2-442.8-276-656.3-436C620,863.1,603.7,849.2,585,840
		c-40.3-19.8-250.9-160.2-427.4-154.1c-30.4,1-57.2,2.8-80.8,5.2C10,697.9-31.5,710.3-56.3,726.8c-24.8,16.5-33.1,37.3-33.7,61.7
		C-91.1,833-65.9,889-67.4,950.2c-0.4,16.5-2.7,33.5-8,50.7c-17,54.7-57.9,108.5-155.1,155.9c-76.2,37.2-142.1,53.7-196.2,59.3
		c-107.3,11.1-167.6-21.4-167.7-21.4L-593.4,1193.7"/>
	<path class="st1" d="M-591.8,1139.7c0,0,1,0.6,3,1.7c13.9,7.6,76.1,37.7,178.2,27.1c48.3-5,105.7-19.1,171.1-48.9
		c93.9-42.8,136.4-93,158.3-145.9c10.4-25.1,14.1-49.6,14.7-73.2c1-44.2-9.1-85.2-8.3-120.5c0.7-28.3,8.6-53.1,35.2-72.5
		c26.6-19.5,71.8-33.7,147.1-41.5c18.9-2,39.7-3.5,62.6-4.7c171-8.2,374.7,119.4,427.5,144.7c18.9,9.1,35.3,22.6,53.1,35.2
		c218.5,156.8,342.2,437.3,635.4,446.7c760.9,24.5,1018.8,103.9,1222,83c103.4-10.7,192.7-47.2,327.2-130.4c0,0,2.4-1.6,7.1-4.7
		c32.6-22,173.2-120.2,328.2-288.2l1.1,0.8c-177.3,192.2-335.6,293.1-335.7,293.1c-134.6,83.1-224.2,119.9-328,130.5
		c-203.7,21-461.4-58.4-1222.2-83c-294.2-9.6-418-290.4-636.2-446.8c-17.8-12.7-34.1-26.2-52.9-35.1
		C543.5,782,340,654.7,169.7,662.8c-22.9,1.1-43.7,2.6-62.5,4.6C32,675.1-12.9,689.4-39,708.4s-33.8,43.2-34.5,71.4
		c-0.9,35,9.4,76,8.3,120.4c-0.5,23.7-4.4,48.4-14.8,73.7c-22,53.1-64.9,103.8-159.1,146.8c-65.6,29.9-123.1,44.1-171.6,49
		c-117.1,12.1-182-29-182.1-29L-591.8,1139.7"/>
	<path class="st1" d="M-590.3,1085.8c0,0,1.1,0.8,3.1,2.1c14.7,9.4,80.8,46.7,191,35.4c42.8-4.4,92.2-16.2,147.9-39.7
		c90.7-38.3,135.4-85.5,162.3-136.8c20-38.2,24.2-75.1,25-109.5c0.5-18.5-0.2-36.3,0.3-53c0.8-35.2,5.8-66.2,33.2-90.8
		c27.4-24.4,76.7-42.3,166-51.5c13.6-1.4,28-2.6,43.5-3.6C346.7,628,543.3,742.7,609,773.5c18.9,8.8,35.6,21.9,53.4,34.1
		c223.4,153.2,338.7,424.1,615.5,457.6c633.5,76.8,922.5,121.2,1126.7,100.1c153.9-15.8,259.8-68.8,429.1-173.4l0.4,0.6l-0.4-0.6
		c0,0,2.4-1.6,7.1-4.8c32.4-22.3,172-121.4,333.4-280.9l1,0.9c-184.6,182.4-340.7,285.9-340.8,285.9l0,0l0,0
		c-169.3,104.5-275.5,157.7-429.8,173.6c-204.7,21.1-493.6-23.3-1127.1-100c-277.8-33.7-393.1-305-616.1-457.8
		c-17.9-12.2-34.5-25.3-53.2-34C542.4,743.8,346,629.3,181.9,639.8c-15.4,1-30,2.2-43.5,3.6c-89.1,9.1-138.1,27-164.9,51
		s-31.8,54.6-32.7,89.7c-0.4,16.7,0.2,34.5-0.3,53c-0.8,34.5-5.1,71.6-25.2,110.1c-27.1,51.6-72.2,99.2-163.2,137.6
		c-55.9,23.6-105.5,35.3-148.4,39.8c-126.5,13-195-37.7-195.1-37.7L-590.3,1085.8"/>
	<path class="st1" d="M-588.9,1031.9c0,0,1.1,1,3.3,2.6c15.4,11.5,84.7,56.8,202.7,44.6c37.2-3.8,79.2-13.3,126-31.4
		c87.7-34,134.5-78.1,166.4-127.8c47-73,33.9-138.3,51.2-191c8.6-26.3,25-49.5,60.2-68.7C56,641,110,626,194,615.4
		c2.2-0.3,4.3-0.5,6.5-0.8c157.4-16.2,342.3,90.4,420.1,126c18.8,8.6,35.7,21.1,53.8,32.9c228.3,149.7,335.3,411.9,595.6,468.7
		c526.5,115,818.9,151.1,1025.7,129.8c215.3-22.2,338.1-106.6,536.6-228.8l0.4,0.6l-0.4-0.6c0,0,2.4-1.7,7-4.8
		c32.1-22.6,170.9-122.6,338.8-273.5l0.9,0.9c-192.1,172.5-345.9,278.6-345.9,278.6l0,0l0,0c-198.3,122.3-321.6,206.9-537.3,229.1
		c-207.2,21.3-499.6-14.8-1026.2-129.8c-261.1-57.1-368-319.5-596.1-468.7c-18.1-11.9-34.9-24.3-53.5-32.9
		C542.1,706.5,357.1,600,200.5,616.2c-2.2,0.2-4.3,0.4-6.5,0.7c-84,10.5-137.7,25.6-172.5,44.6c-52.2,28.4-62.2,65.3-68.1,109.2
		c-5.8,43.9-7.4,94.6-42.7,149.8c-32.1,50.1-79.4,94.4-167.3,128.5c-46.9,18.1-89.1,27.7-126.3,31.6c-135.3,14-206.9-47.5-207-47.4
		L-588.9,1031.9"/>
	<path class="st1" d="M-587.4,978c0,0,1.1,1.1,3.4,3.1c16,13.7,87.9,67.7,213.3,54.7c31.6-3.3,66.7-10.7,105-24.2
		c84.6-29.7,133.5-70.5,170.5-118.7c54.2-70.5,50.9-133.3,73.4-185c11.2-25.8,29.1-48.7,63.5-68.2c34.6-19.4,85.9-35.3,164.3-47.2
		c4.7-0.7,9.4-1.3,14.2-1.8c149.4-15.4,322.9,77.5,411.9,117.4c18.7,8.4,35.8,20.4,54,31.8c233.3,145.9,331.9,400.3,575.7,479.5
		c453,147.6,736.3,187.6,943.6,166.2c267.8-27.6,408.7-157.7,625.3-291.1l0.4,0.6l-0.3-0.5c0,0,2.4-1.8,6.9-5
		c31.7-23,169.6-123.9,344.1-266.2l0.9,1c-199.5,162.7-351.1,271.3-351.1,271.3l0,0l0,0c-216.4,133.3-357.6,263.7-626.1,291.4
		c-207.6,21.4-491-18.7-944.2-166.2c-244.4-79.7-343-334.2-576-479.7c-18.2-11.4-35.3-23.4-53.8-31.7
		c-89.1-39.9-262.6-132.6-411.2-117.3c-4.7,0.5-9.5,1.1-14.1,1.9c-78.4,11.9-129.5,27.8-163.8,47C-9,669.9-22.6,706.2-33.8,748.9
		c-11,42.8-19.4,91.6-60.3,144.8c-37.3,48.4-86.5,89.6-171.3,119.3c-38.5,13.5-73.7,21.1-105.5,24.4
		c-144,14.8-217.7-58.1-217.8-58.2L-587.4,978"/>
	<path class="st1" d="M-585.9,924.1c0,0,1.1,1.3,3.5,3.6c16.3,16,90.2,79.4,223.1,65.8c26-2.7,54.4-8.3,85.1-17.9
		c81.3-25.4,132.4-63,174.5-109.6C-38.4,798.1-32,737.4-4.3,686.7s76.6-91,222.5-117.1c7.3-1.4,14.8-2.3,22.3-3.1
		c141.2-14.5,303.5,65.3,403.3,109.1c18.7,8.2,35.9,19.7,54.3,30.7c238.3,142.2,328.2,389.5,555.8,490.6
		c402.6,178.9,674.9,227.1,881.1,205.9c306.7-31.6,467.5-217.2,694.4-356.8l0.4,0.6l-0.3-0.5c0,0,149.4-111.2,356.2-264.1l0.8,1
		c-103.4,76.4-192.4,142.4-255.7,189.3c-31.6,23.5-56.8,42.2-74,54.9c-17.2,12.8-26.5,19.7-26.6,19.7l0,0l-0.1,0
		c-226.5,139.2-387.7,325.2-695.1,356.9c-206.6,21.3-479.1-27.1-881.8-206c-228.1-101.4-318-348.8-555.9-490.6
		c-18.5-11-35.7-22.4-54.2-30.6c-99.8-43.9-262.1-123.6-402.6-109c-7.5,0.8-14.9,1.8-22.2,3.1C72.8,597,24.5,636.8-2.9,687
		c-27.5,50.3-34,111.4-95.8,179.6c-42.3,46.8-93.8,84.7-175.3,110.1c-30.7,9.6-59.2,15.3-85.4,18C-512,1010.4-587,925.1-587,925
		L-585.9,924.1"/>
	<path class="st1" d="M-584.3,870.1c0,0,1.2,1.5,3.5,4.2c16.6,18.6,91.7,92.1,232.1,77.6c20.5-2.1,42.4-6.1,65.8-12.4
		c78.1-21.1,131.3-55.5,178.6-100.6C-35.7,773.6-19.7,710.4,13,658.4c32.7-52,82.3-92.6,217.3-112.1c4.7-0.7,9.4-1.3,14.2-1.8
		c137-14.1,296.5,48.9,410.9,98c18.6,7.9,36.1,18.9,54.7,29.5c243.3,138.4,324.1,379.5,535.9,501.5
		c365.1,210.5,627.2,268.9,832,247.8c335-34.5,517.7-281.7,750-424.3l0.4,0.6l-0.4-0.5c0,0,147.1-113.7,361.5-256.8l0.7,1
		C3083,812.9,2992.7,877,2929.2,923.3c-31.8,23.1-56.9,41.9-74,54.7c-8.6,6.4-15.2,11.4-19.6,14.8c-4.4,3.4-6.7,5.1-6.7,5.1l-0.1,0
		l0,0c-231.9,142.4-414.9,390.1-750.8,424.6c-205.3,21.1-467.5-37.3-832.8-248c-212.3-122.4-293-363.4-535.9-501.5
		c-18.5-10.6-36.1-21.5-54.6-29.4c-114.4-49-273.7-111.9-410.2-97.9c-4.7,0.5-9.5,1.1-14.2,1.8C95.4,567.1,46.6,607.2,14.2,658.8
		c-32.5,51.6-48.7,115.1-117.6,180.8c-47.5,45.2-101.1,79.7-179.4,100.9c-23.5,6.3-45.5,10.3-66.1,12.5
		c-161.2,16.7-236.7-82.2-236.8-82.3L-584.3,870.1"/>
	<path class="st1" d="M-582.9,816.2c0,0,1.2,1.7,3.6,4.8c16.7,21.3,92.5,105.5,240.5,90.3c15-1.6,30.7-4.1,47.2-7.9
		c74.8-17.1,130.2-48.1,182.7-91.5C-33.1,749.2-7.4,687.8,30.4,636.6c37.8-51.3,87.9-92,212-113.3c7.9-1.3,15.9-2.4,24-3.3
		C395,506.8,542.9,557.9,667,609.9c18.5,7.7,36.2,18.3,55,28.4c248.4,134.5,319.4,370,515.9,512.5
		c334.9,242.8,587.5,312.1,791.1,291.1c355.9-36.6,562.5-349.4,797.6-493.6l0.4,0.6l-0.4-0.5c0,0,145-116.3,366.7-249.6l0.6,1.1
		c-110.8,66.6-202.3,128.9-266.3,174.6c-31.9,22.8-57,41.6-74.1,54.5c-8.5,6.5-15.1,11.5-19.5,15c-4.4,3.5-6.6,5.2-6.7,5.2l0,0l0,0
		c-234.6,143.8-441.4,457-798.2,493.8c-204.1,21-456.9-48.4-792-291.3C1040,1008.9,969.1,773.5,721.1,639.4
		c-18.8-10.1-36.4-20.7-54.9-28.3c-124-52-271.8-103-399.9-89.7c-8,0.8-16.1,1.9-23.9,3.3c-123.8,21.3-173.3,61.7-211,112.6
		s-63.5,112.5-139.6,175.6c-52.6,43.5-108.3,74.7-183.4,91.8c-16.6,3.8-32.3,6.4-47.4,7.9C-509,930-584.2,817-584.2,816.9
		L-582.9,816.2"/>
	<path class="st1" d="M-581.4,762.3c0,0,1.2,2,3.6,5.5c16.6,24.1,92.7,119.9,248.8,103.7c9.4-1,19-2.3,28.9-4.1
		c71.5-13,129.2-40.5,186.8-82.4c83-60.3,118.3-119.9,161.2-170.3c42.9-50.5,93.6-91.6,206.7-114.4c11.7-2.4,23.6-4.2,35.6-5.4
		c119.8-12.4,256.3,28.2,388.5,82.3c18.4,7.5,36.4,17.4,55.3,27.3c253.5,130.6,314,360.9,496,523.5
		c308.5,275.6,552.5,356.2,754.8,335.3c371.8-38.3,604.3-419,840.3-563.7l0.4,0.6l-0.4-0.5c0.1,0,142.8-118.9,372-242.4l0.6,1.1
		c-114.5,61.7-207.4,122.2-271.7,167.4c-32.2,22.5-57.1,41.3-74,54.3c-8.5,6.5-14.9,11.7-19.3,15.2c-4.3,3.5-6.5,5.3-6.5,5.3l-0.1,0
		l-0.1,0c-235.4,144.2-468.1,525.5-841,564c-203,20.9-447.3-59.9-755.9-335.7c-182.4-163-242.8-393-495.8-523.4
		c-19-9.8-36.8-19.7-55.2-27.2c-132-54-268.4-94.5-387.8-82.2c-12,1.2-23.9,3.1-35.5,5.4C141.8,524.3,91.7,565,48.9,615.3
		C6.1,665.6-29.4,725.4-112.7,785.8c-57.8,42-115.7,69.7-187.4,82.7c-10,1.8-19.6,3.1-29,4.1C-508.4,891.1-582.6,763-582.6,762.9
		L-581.4,762.3"/>
	<path class="st1" d="M-579.9,708.4c0,0,1.1,2.2,3.5,6.1c16.4,27.3,92.2,135.1,257,118.1c3.6-0.4,7-0.7,10.6-1.3
		c68.3-9.1,128.1-33.1,190.8-73.2c90.2-57.8,135.2-115.7,183.3-165.4c48-49.7,99.2-91.1,201.3-115.2c16.1-3.9,32.6-6.6,49.4-8.3
		c110.5-11.3,236.2,20.3,374.2,75.5c18.4,7.3,36.5,16.7,55.6,26.1c258.7,126.7,307.9,351.9,476.1,534.5
		c284.3,308.8,520,400.9,721.4,380.2c192.1-19.8,353.2-142.2,495.8-277.8s266.6-284.3,384.6-356.6l0.3,0.6l-0.4-0.5
		c0.1,0,140.7-121.5,377.2-235.2l0.5,1.3c-118.2,56.8-212.4,115.5-277.1,160c-32.3,22.2-57.3,41-74.2,54.1
		c-8.4,6.6-14.8,11.8-19.1,15.4c-4.3,3.5-6.5,5.4-6.5,5.4l0,0l-0.1,0c-117.6,71.9-241.6,220.6-384.3,356.3
		c-142.7,135.7-304.2,258.5-496.7,278.3c-202,20.8-438.1-71.7-722.5-380.6c-168.4-183-217.6-407.9-475.8-534.3
		c-19.1-9.4-37.1-18.8-55.5-26C551.6,490.7,426,459.1,316,470.3c-16.8,1.7-33.2,4.4-49.3,8.3c-101.8,24.1-152.5,65.1-200.5,114.7
		s-93.1,107.9-183.5,165.8c-62.8,40.3-123,64.4-191.6,73.5c-3.5,0.5-7.1,0.8-10.6,1.3c-189.1,19.5-261.7-124.8-261.7-124.8
		L-579.9,708.4"/>
	<path class="st1" d="M-578.4,654.5c0,0,1.1,2.5,3.2,6.8c15.2,30.6,86.1,151.7,249.4,134.9c2.8-0.3,5.4-0.6,8.2-0.9
		c65.1-8.4,127.1-25.7,194.9-64.2c97.4-55.3,152-111.7,205.2-160.8s104.9-90.8,196.1-116c20.9-5.8,42.6-9.8,64.9-12.1
		c100.9-10.4,216.7,14.5,358.2,69.6c18.4,7.1,36.7,16,55.9,25c263.8,122.7,301.3,342.9,456.1,545.6
		c261.3,342,489.1,445.8,689.5,425.1c196.8-20.3,367.9-160.6,519-313.9c151.2-153.4,282.4-319.6,400-391.3l0.4,0.6l-0.4-0.5
		c0.1,0,138.4-124.1,382.4-227.9l0.4,1.3c-122,51.8-217.4,108.7-282.4,152.7c-32.5,22-57.4,40.7-74.2,54
		c-8.4,6.6-14.7,11.9-18.9,15.4c-4.3,3.6-6.4,5.5-6.4,5.5l-0.1,0l0,0c-117.2,71.4-248.4,237.6-399.6,391s-322.5,294.1-520,314.4
		c-201.2,20.7-429.4-83.5-690.8-425.6c-155.1-203-192.4-422.8-455.7-545.2c-19.3-9-37.5-17.7-55.9-24.9
		c-141.4-55.1-257.1-80-357.6-69.6c-22.3,2.3-43.8,6.3-64.6,12.1C188,480.9,136.6,522.2,83.4,571.2c-53.2,49-108,105.7-205.6,161
		c-68.1,38.6-130.3,56-195.6,64.4c-2.8,0.4-5.5,0.7-8.2,0.9c-93.8,9.7-157.4-25.9-197.3-64c-40-38-56.6-78.5-56.6-78.5L-578.4,654.5
		"/>
	<path class="st1" d="M-577,600.5c0,0,1,2.5,3,7c14.3,31.2,82,155.8,247.7,151.7c9.8-0.2,19.7-0.8,29.6-1.9
		c52.8-5.5,108-22.2,169.4-53.2C-22.7,651.5,41.6,596.4,99.9,547.9s110.5-90.4,190.7-116.5c25.8-8.4,52.7-14.2,81-17.1
		c91.6-9.5,199.1,10.7,341.7,64.9c18.3,7,36.9,15.3,56.3,23.8c269.1,118.5,294.1,333.6,436.2,556.6
		c239.1,375.1,458.9,490.6,658.6,470c200.6-20.7,381.5-178.9,541.1-350c159.8-171,298.3-354.7,415.1-426l0.4,0.6l-0.4-0.5
		c0.1,0,136.2-126.7,387.6-220.7l0.3,1.3c-125.5,47-222.3,102-287.7,145.4c-32.7,21.7-57.5,40.4-74.2,53.7
		c-8.4,6.7-14.6,12-18.8,15.6c-4.2,3.7-6.3,5.6-6.3,5.6l-0.1,0l-0.1,0c-116.4,71-255,254.6-414.9,425.8
		c-159.8,171.1-340.7,329.7-542.2,350.5c-200.5,20.6-420.7-95.3-659.8-470.6C1062.2,837,1037.2,622.4,768.7,504.1
		c-19.4-8.5-37.9-16.8-56.2-23.7c-142.5-54.2-249.9-74.3-341-64.8c-28.2,2.9-54.9,8.6-80.7,17c-79.9,26.2-132,67.8-190.2,116.3
		C42.4,597.3-22.1,652.4-126.8,705.4c-61.6,31.1-116.9,48-169.9,53.4c-10.1,1-20,1.7-29.8,1.9c-190.4,4.5-251.9-159.4-252-159.4
		L-577,600.5"/>
	<path class="st1" d="M-575.5,546.6c0,0,0.9,2.6,2.7,7.3c13,32.6,75.3,163.4,238,169.3c15.7,0.6,32,0.1,48.9-1.6
		c46.2-4.8,97-18.6,154.1-44.3C91.7,576.4,163.7,462.1,302.8,408.2c30.1-11.7,61.5-19.5,95.9-23.1c83.4-8.6,184.3,8.6,326.4,61.2
		c18.2,6.8,37,14.5,56.6,22.7c274.6,113.9,286.6,324.2,416.2,567.6c217.5,408,429.5,534.9,628.4,514.5
		c203.8-21,394.2-197.1,562.6-385.9c168.3-188.7,314.5-389.8,430.5-460.6l0.4,0.6l-0.5-0.4c0.1,0,134.1-129.3,392.9-213.5l0.3,1.3
		c-129.2,42-227.3,95.3-293.1,138c-32.9,21.4-57.7,40.1-74.2,53.5c-8.3,6.7-14.5,12.1-18.6,15.7c-4.2,3.7-6.3,5.7-6.3,5.7l0,0.1
		l-0.1,0.1c-115.4,70.2-261.7,271.4-430.1,460.1c-168.5,188.7-359.1,365.3-563.7,386.4c-199.8,20.6-412.2-107-629.7-515.1
		c-129.8-243.6-141.7-453.3-415.7-567c-19.6-8.1-38.3-15.8-56.5-22.6c-141.9-52.7-242.7-69.7-325.7-61.2
		c-34.3,3.6-65.5,11.4-95.5,23.1C164.8,462.8,92.6,577.1-131.2,678.2c-57.4,25.7-108.4,39.7-154.7,44.5c-17,1.8-33.3,2.2-49.1,1.7
		c-186.7-6.8-241.8-177.4-241.8-177.4L-575.5,546.6"/>
	<path class="st1" d="M-574,492.7c0,0,1,3.4,3.1,9.3c7.4,20.7,29.2,72.4,75.2,116c46,43.7,116,79.5,220.2,68.8
		c40.9-4.2,87.1-15.6,139.1-36.5C15.9,589,109.8,520,188.5,463.9S331,364.6,422.9,355.1c86.6-9,198.1,12.1,370.6,80.1
		c139.7,55,209.4,133.8,258.9,231.6c49.4,97.8,78.6,215,137.4,347c196.1,440.4,400.6,578.9,598.5,558.5
		c206.4-21.3,406.4-215.3,583.6-421.6S2703,725.9,2818,655.9l0.4,0.6l-0.4-0.5c0.1-0.1,131.9-131.9,398.1-206.2l0.2,1.3
		c-132.9,37.1-232.3,88.6-298.4,130.7c-33,21.1-57.8,39.9-74.2,53.3c-8.3,6.8-14.4,12.1-18.5,15.9c-4.1,3.7-6.2,5.8-6.2,5.8l0,0.1
		l-0.1,0c-114.2,69.5-268.5,288-445.6,494.4c-177.2,206.3-377.5,400.8-584.7,422.1c-199,20.5-403.7-118.7-599.9-559.2
		c-58.8-132.1-88-249.2-137.4-346.9c-49.4-97.7-118.8-176-258.3-231c-172.4-67.9-283.8-88.9-369.9-80
		c-91.5,9.5-154.9,52.4-233.6,108.5C110.5,520.9,16.6,590-136,651.4c-52.2,21-98.4,32.4-139.6,36.7
		c-119.6,12.4-194.6-36.5-239.6-88.2c-45-51.8-60.2-106.7-60.2-106.8L-574,492.7"/>
</g>
<g class="st0">
	<path class="st2" d="M2942.9,2545c0,0-3.1-0.3-9-1.3c-17.6-3-60.3-12.2-118.9-39.3c-71.3-33-166.3-92.3-268.7-198.8
		c-95.7-99.5-112.2-172-94.5-228.9c14.7-46.8,52.6-83.1,89.3-114.8c36.6-31.8,71.9-59,81-88.1c5.5-17.4,1.4-35.7-17.6-55.5
		c-18.9-19.9-52.5-41.5-106.2-66.3c-36.8-17-83.1-35.5-140.5-56c-106.6-37.9-237-36.4-341.3-25.4c-104.3,11-182.5,31.6-184.2,32
		c-274.2,53.1-550.9,323.7-898.7,162.8c-25.2-11.6-50.8-25.6-76.8-42c-187.4-118.5-347.9-206-486.4-270.1
		C26,1394-182,1380.1-329.6,1394.1c-147.7,14-234.9,55.6-338,7.9c-43.6-20.2-90.1-56.3-145.4-117.3h-0.1l0,0c0,0-2.4-2.3-6.7-7
		c-30.2-32.6-155.6-178-229.9-419.6l-1.5,0.1c85.1,276.5,237,427.3,237.1,427.4l0.5-0.4l-0.6,0.4c55.4,61.2,102.2,97.5,146.1,117.8
		c104.1,48.1,191.6,6.2,338.9-7.7c147.4-13.9,354.9-0.1,699.1,159c138.4,64,298.8,151.4,486.3,270.1c26.1,16.5,51.7,30.4,77,42.1
		c349.2,161.3,626.1-109.9,899.8-162.7c1.8-0.3,79.8-20.9,184.1-31.9c104.2-11.1,234.5-12.5,340.6,25.3
		c57.4,20.4,103.6,38.9,140.3,55.9c53.5,24.8,86.9,46.3,105.5,65.8s22.5,36.9,17.2,54c-8.9,28.5-44.1,55.8-80.8,87.6
		c-36.7,31.8-74.8,68.1-89.6,115.3c-18,57.4-1.1,130.7,94.9,230.4c102.6,106.6,197.9,166.1,269.4,199.2
		c78.4,36.3,128.4,40.8,128.4,40.8L2942.9,2545"/>
	<path class="st2" d="M2958.8,2493.4c0,0-0.9,0-2.7-0.2c-12.4-0.9-67.1-6.8-146.1-43.3c-67.1-31-151.6-84.1-242.5-175
		c-93.3-93.3-113.3-163.4-102.2-220.5c1-5.2,2.3-10.2,3.8-15.1c13-41.6,43.3-75,72.5-104.7c29.2-29.8,57.3-55.8,65.8-82.9
		c6-19,2.2-38.8-17.8-60.3s-55.8-44.8-114.1-71.8c-33.3-15.4-73.9-32-123.1-50c-102.8-37.7-228.5-38.7-330.9-30.1
		c-51.2,4.3-96.6,11.1-130.4,16.8c-33.7,5.8-55.9,10.5-60.5,10.9c-23.8,2.1-46,9.7-69.1,16.3c-263.9,75-517.8,295.1-842.7,144.8
		c-15.1-6.9-30.4-14.8-45.8-23.4c-133.5-74.8-253.3-135.9-361.2-185.7c-379.4-175.5-612.3-212.7-776.4-218
		c-164.3-5.4-259.6,20.9-364-27.4c-50.5-23.3-103.3-64.2-167.1-134.6l0,0l0,0c0,0-2.3-2.3-6.6-7.1c-29.7-32.8-153.9-178.8-238-414.8
		l-1.5,0.2c96.3,270.1,244.9,422.4,245,422.5l0.5-0.4l-0.6,0.4c63.9,70.6,116.9,111.6,167.8,135.1c105.2,48.6,200.6,22.1,364.6,27.6
		c164,5.4,396.6,42.5,775.8,217.9c107.8,49.9,227.6,111,361.1,185.7c15.5,8.7,30.8,16.5,45.9,23.5
		c326.1,150.7,580.3-69.9,843.8-144.7c23.1-6.7,45.2-14.2,68.8-16.3c4.9-0.4,26.9-5.2,60.6-10.9c101.2-17.2,306.9-43.1,460.3,13.2
		c49.1,18,89.7,34.6,122.9,49.9c58.2,26.9,93.8,50.2,113.5,71.3c19.6,21.1,23.2,40,17.4,58.8c-8.3,26.7-36.3,52.7-65.5,82.5
		c-29.2,29.8-59.6,63.2-72.7,105.1c-1.6,4.9-2.9,10-3.9,15.2c-11.2,57.6,9.2,128.5,102.8,222c91,91,175.8,144.3,243.1,175.4
		c90.5,41.8,149.4,43.7,149.5,43.7L2958.8,2493.4"/>
	<path class="st2" d="M2974.7,2441.8c0,0-1.1,0-3.1,0c-14.2-0.3-76.8-3.8-165.8-44.9c-62.1-28.7-137-75.7-217.2-152.7
		c-91.5-87.9-114.9-156-109.6-213.5c1-11,3.2-21.5,6.4-31.5c22.3-71.5,91.5-119.2,106.9-168.5c6.6-21,3.3-42.5-17.7-65.9
		s-59.4-48.8-123-78.2c-29.3-13.6-64.1-28-104.9-43.5c-99-37.5-219.9-40.9-320.4-34.7c-100.4,6.2-180.6,22.1-197.7,23.3
		c-23.7,1.7-45.9,9-69,15.1c-138.4,36.5-269.9,111.3-408.4,157.6c-138.6,46.3-284.1,64.2-450.8-12.9c-3.7-1.7-7.4-3.5-11.1-5.3
		c-41.4-20.1-81.5-39.1-120.3-57C-142.2,1308.1-361.6,1454-580.7,1352.5c-60.8-28.1-121.7-75.3-197.6-158.9c0,0-2.3-2.4-6.5-7.1
		C-814,1153.5-937,1007-1031,776.6l-1.5,0.2c107.5,263.6,252.9,417.6,253,417.6c76,83.8,137.2,131.1,198.3,159.4
		c220.5,101.8,438.6-44.4,1349.6,376.8c38.8,18,78.9,36.9,120.3,57c3.7,1.8,7.4,3.6,11.1,5.3c167.3,77.4,313.4,59.4,452.1,13
		s270.1-121.2,408.4-157.6c23.2-6.1,45.3-13.4,68.8-15.1c17.4-1.2,97.3-17.1,197.7-23.4c100.4-6.2,221.1-2.8,319.6,34.6
		c40.8,15.5,75.5,29.9,104.8,43.4c63.6,29.4,101.8,54.7,122.4,77.7c20.6,23,23.7,43.6,17.3,64.4c-15.1,48.7-84.4,96.6-106.9,168.5
		c-3.2,10.1-5.4,20.6-6.4,31.8c-5.4,57.9,18.3,126.8,110.2,214.9c80.4,77.1,155.5,124.3,217.8,153.1c102,47.2,169.6,45.1,169.7,45.1
		L2974.7,2441.8"/>
	<path class="st2" d="M2990.6,2390.2c0,0-1.1,0.1-3.4,0.2c-15.9,0.7-86.1,0.6-184.5-44.9c-56.6-26.2-122.5-67.3-192.9-132
		c-89.7-82.4-116.3-148.6-116.9-206.5c-0.2-18.2,2.7-35,7.7-50.7c18.2-58.2,63.6-101.3,77-144.2c7.4-23.5,5-47.2-16.9-72.9
		c-21.9-25.7-63.1-53.6-133.5-86.1c-24.9-11.5-53.5-23.6-86.1-36.4c-190.3-74.6-464.4-23.3-514.3-20.3c-23.6,1.4-45.8,8.3-69.1,13.9
		c-283.9,68.7-521.9,292.3-852.3,157.6C-30.7,1386.5-298.9,1444.4-517.9,1343c-77.8-36-149.5-92-243-194.9c0,0-2.2-2.4-6.3-7.2
		c-28.8-33.2-150.5-180.2-254.3-405.1l-1.4,0.3C-904.2,993.3-762,1148.8-762,1148.9c93.6,103.1,165.6,159.3,243.7,195.5
		c220,101.7,487.4,43.6,1423.4,424.9c331.6,135,569.9-89.1,853.4-157.5c23.3-5.6,45.4-12.5,68.8-13.9
		c50.2-3.1,324.1-54.1,513.6,20.2c32.6,12.8,61.1,24.9,86,36.4c70.2,32.4,111.2,60.2,132.8,85.5c21.5,25.3,23.8,48.2,16.5,71.4
		c-13.2,42.5-58.7,85.7-77.1,144.3c-4.9,15.8-7.9,32.8-7.7,51.1c0.6,58.4,27.5,125.2,117.6,207.8c70.6,64.8,136.7,106.1,193.5,132.3
		c112.9,52.2,188.7,44.9,188.8,44.9L2990.6,2390.2"/>
	<path class="st2" d="M3006.4,2338.6c0,0-1.3,0.2-3.8,0.5c-17.6,1.8-94.8,6.1-202.1-43.6c-50.8-23.5-108.4-59.1-169.7-112.8
		c-87.9-77-117.7-141.1-124.3-199.5c-3.1-27.7,0.8-52.4,7.8-75c13.2-42.2,37.6-77,48.1-110.7c8.5-27,8-53.5-14.6-82.3
		s-66.9-59.8-146-96.3c-19.9-9.2-42-18.8-66.5-28.7c-182.8-74.3-445.1-32.6-510.7-29.3c-23.5,1.2-45.7,7.6-69,12.7
		c-288,63.5-513.2,280.8-834.3,175.7C88.2,1476.8-217.3,1451.7-430.9,1353c-108.7-50.3-193.7-119.6-312.6-250.5c0,0-2.1-2.4-6.2-7.2
		c-28.3-33.4-148.8-181-262.4-400.2l-1.4,0.4c129.9,250.7,268.8,407.8,268.9,407.8c119,130.9,204.3,200.6,313.3,251
		c214.1,99,519.4,124,1352.6,396.4c322.2,105.3,547.6-112.4,835.2-175.6c23.4-5.2,45.5-11.5,68.8-12.7
		c65.8-3.4,327.9-44.8,509.9,29.2c24.5,9.9,46.5,19.5,66.4,28.7c79,36.5,123.1,67.4,145.3,95.7c22.2,28.3,22.6,54.1,14.3,81
		c-10.4,33.5-34.8,68.3-48.1,110.7c-7.1,22.7-11,47.5-7.9,75.5c6.6,58.8,36.8,123.5,124.9,200.7c61.4,53.8,119.2,89.5,170.2,113.1
		c123.1,56.9,206.8,43.3,206.8,43.3L3006.4,2338.6"/>
	<path class="st2" d="M3022.3,2287c0,0-1.4,0.3-4.1,0.8c-19.1,3.2-102.8,12.8-218.7-40.7c-45-20.8-94.8-51.1-147.6-95.1
		c-86-71.6-119.1-133.6-131.7-192.5c-9.3-43.8-1.9-80.5,8.4-113.3c5.5-17.7,11.9-34.2,16.9-50.3c10.5-33.6,15.2-65-6.5-98.8
		c-21.7-33.8-69.4-69.8-163.3-113.2c-14.3-6.6-29.6-13.4-46-20.3c-175.3-74-425.6-41.8-507-38.2c-23.3,1-45.6,6.9-69,11.5
		c-292.1,58.2-505.1,269.7-816.3,193.8c-712-173.5-1039.9-243.8-1254.6-343c-161.6-74.8-259.2-166.1-408.9-330.8l-0.5,0.5l0.6-0.4
		c0,0-2.1-2.4-6.1-7.3c-28-33.6-147.2-181.7-270.6-395.3l-1.4,0.4c141.1,244.3,276.8,402.9,276.8,402.9l0,0l0,0
		c149.7,164.6,247.7,256.2,409.8,331.2c215.1,99.5,543,169.7,1255,343.2c312.2,76,525.3-135.9,816.9-193.8
		c23.4-4.7,45.7-10.5,68.7-11.5c81.5-3.6,331.7-35.7,506.3,38.1c16.5,7,31.8,13.7,46,20.3c93.6,43.3,141,79.2,162.3,112.4
		c21.3,33.2,16.8,64,6.3,97.6c-5,16-11.3,32.6-16.9,50.3c-10.3,32.9-17.8,69.7-8.4,113.9c12.6,59.3,46.1,121.8,132.3,193.6
		c52.9,44,102.9,74.5,148,95.3c132.9,61.5,223.8,40.1,223.9,40.1L3022.3,2287"/>
	<path class="st2" d="M3038.2,2235.4c0,0-1.5,0.5-4.4,1.2c-20.5,4.8-110.4,20.8-234.4-36.6c-39.1-18.1-81.6-43.4-126.4-78.7
		c-84-66.2-120.5-126.1-139-185.6c-27.2-87.4,8.1-144.1,6.4-200.6c-0.8-28.3-11-56.6-43-88.3c-31.9-31.7-85.5-67-173.3-109.6
		c-2.3-1.1-4.5-2.2-6.8-3.2c-165.5-76.5-400.7-47.4-496.6-44c-23.2,0.8-45.5,6.1-69,10.3c-296.3,52.8-497.4,259.3-798.2,211.9
		C345.2,1616.5,16.4,1537-201,1436.5c-226.4-104.7-332.2-232.2-507.7-425.1l-0.6,0.4l0.6-0.4c0,0-2.1-2.5-6-7.3
		c-27.4-33.8-145.4-182.4-278.7-390.5l-1.3,0.5c152.3,237.9,284.8,398,284.8,398l0,0l0,0c175.5,192.9,281.7,320.8,508.5,425.7
		C16.4,1538.5,345.3,1618,953.8,1713.7c301.8,47.4,503-159.3,798.8-211.9c23.4-4.2,45.7-9.5,68.7-10.3
		c95.9-3.5,331.1-32.4,495.7,43.8c2.3,1,4.6,2.1,6.8,3.2c87.6,42.6,141,77.8,172.7,109.2c47.4,47.2,46.3,85.9,38.3,129.8
		c-8,43.8-22.8,92.4-2.2,158.3c18.6,59.8,55.4,120.1,139.7,186.5c44.9,35.4,87.6,60.8,126.8,79c142.3,65.8,239.9,35.5,239.9,35.5
		L3038.2,2235.4"/>
	<path class="st2" d="M3054.1,2183.8c0,0-1.6,0.6-4.7,1.6c-21.8,6.7-117.2,29.9-249.1-31.1c-33.2-15.4-68.8-36.1-106-63.7
		c-82-60.9-121.9-118.6-146.4-178.6c-35.9-87.7-11.9-146-19.5-203.6c-3.8-28.8-15.6-57.4-46.8-89.2
		c-31.2-31.8-81.7-66.7-162.9-108.5c-4.9-2.5-9.8-4.9-14.8-7.2c-157-72.6-375.4-52.1-485-49c-23,0.7-45.5,5.4-68.9,9.1
		c-300.4,47.4-490,249.7-780.1,230.1c-539.4-36.5-859.7-108.7-1077.5-209.4c-281.6-130.2-392.1-308-583.8-518.4l-0.5,0.4l0.6-0.3
		c0,0-2-2.5-5.9-7.4c-26.9-34.2-143.7-183.2-286.8-385.7l-1.3,0.6c163.6,231.4,292.8,393.1,292.8,393.1l0,0l0,0
		c191.5,210.3,302.4,388.6,584.5,519c218.2,100.9,538.7,173.1,1078,209.5c291,19.6,480.6-182.9,780.5-230.1
		c23.5-3.7,45.9-8.5,68.7-9.1c109.6-3.2,327.9-23.5,484.1,48.8c5,2.3,9.9,4.7,14.7,7.2c81.2,41.7,131.5,76.6,162.4,108.1
		c46.3,47.3,49.3,87,47.5,131.7c-1.9,44.7-8.7,94.3,18.4,160.4c24.7,60.3,64.8,118.3,147.1,179.4c37.4,27.8,73.1,48.6,106.4,64
		c151.4,70,255,29.6,255.1,29.6L3054.1,2183.8"/>
	<path class="st2" d="M3070,2132.2c0,0-1.7,0.8-4.9,2c-22.9,8.8-123.6,40.2-263.3-24.4c-27.4-12.7-56.3-29-86.5-50
		c-79.9-55.6-123.1-111-153.7-171.5c-44.5-88.1-31.9-148.1-45.4-206.8c-13.6-58.7-53.6-115.8-203.2-197.3c-7.5-4.1-15.3-8-23.2-11.7
		c-148.4-68.6-350.4-56.1-472.8-53.5c-22.9,0.5-45.4,4.7-68.9,7.9c-304.6,42-482.5,241-762.1,248.2
		c-494.8,12.8-805.8-47.3-1022.6-147.5c-322.5-149-436.7-387.1-637.4-607.3l-0.6,0.4l0.6-0.3c0,0-125.9-163.2-300.6-388.2l-1.2,0.7
		c87.3,112.5,162.5,209.5,215.8,278.4c26.6,34.5,47.9,61.9,62.4,80.7c14.5,18.8,22.3,29,22.4,29l0,0h0.1
		c200.4,219.9,314.9,458.5,638,607.9c217.2,100.4,528.4,160.5,1023.4,147.6c280.3-7.3,458.2-206.5,762.3-248.2
		c23.6-3.2,46-7.4,68.7-7.9c122.4-2.6,324.3-15,472,53.3c7.8,3.6,15.6,7.5,23.1,11.6c149.4,81.4,188.7,137.8,202.2,196
		s0.8,118.6,45.5,207.2c30.7,60.7,74.2,116.5,154.4,172.3c30.2,21,59.3,37.4,86.8,50.2c160.4,74.1,269.5,22.5,269.6,22.4
		L3070,2132.2"/>
	<path class="st2" d="M3085.8,2080.6c0,0-1.8,1-5.2,2.6c-24,11.1-129.3,51.5-276.9-16.7c-21.6-10-44.1-22.3-67.4-37.3
		c-77.8-50.4-124.4-103.6-161.1-164.6c-53.2-88.4-50-154.4-68.7-216.3c-18.6-61.9-59.2-119.6-199.3-190.5c-4.9-2.5-9.8-4.9-14.8-7.2
		c-144.1-66.6-337.4-68.8-477.5-66.9c-22.8,0.3-45.3,3.9-68.9,6.7c-308.8,36.4-474.8,233.1-744.1,266.3
		c-464.5,57.4-767.6,10.8-982.9-88.8c-352.1-162.9-470-467.8-675.6-693.1l-0.5,0.4l0.6-0.3c0,0-122.7-164.8-308.7-383.4l-1.1,0.7
		c93,109.3,170.1,205.1,224,273.6c27,34.3,48.1,61.7,62.5,80.5c7.2,9.5,12.7,16.7,16.5,21.7c3.7,4.9,5.6,7.5,5.6,7.5l0.1,0.1l0,0
		c205.2,224.8,323.3,530.3,676.3,693.5c215.8,99.8,519.2,146.3,983.9,89c269.9-33.3,435.8-230,744.1-266.3
		c23.6-2.8,46.1-6.4,68.7-6.7c140-1.9,333.2,0.4,476.7,66.8c5,2.3,9.9,4.7,14.8,7.2c139.9,70.9,179.8,127.8,198.3,189.3
		s15.4,127.9,68.8,216.7c36.8,61.2,83.7,114.7,161.8,165.2c23.4,15.1,46,27.5,67.7,37.5c169.4,78.4,283.4,14.2,283.5,14.2
		L3085.8,2080.6"/>
	<path class="st2" d="M3101.7,2029c0,0-1.8,1.2-5.4,3.1c-25,13.7-134.6,63.9-290.2-8c-15.8-7.3-32-15.8-48.7-25.8
		c-75.6-45.2-125.7-96.1-168.5-157.5c-61.8-88.8-69.8-156.8-94.2-220s-65.5-121.3-193.1-189.6c-8.1-4.4-16.5-8.5-25-12.4
		c-135.3-62.5-312.2-71.6-463.7-70.7c-22.6,0.2-45.2,3.2-68.8,5.5c-313.1,30.8-466.6,226-726,284.5c-442.1,99.6-738.6,67-952.6-31.9
		c-374.1-173-496.6-549.1-704.7-777l-0.6,0.4l0.6-0.3c0,0-119.5-166.5-316.7-378.6l-1.1,0.8c98.6,106.1,177.7,200.7,232.2,268.8
		c27.3,34,48.3,61.5,62.6,80.4c7.1,9.5,12.6,16.8,16.2,21.7c3.7,5,5.5,7.5,5.5,7.6l0,0l0,0c207.9,227.3,330.5,604,705.6,777.5
		c214.5,99.2,511.4,131.8,953.6,32.1c260-58.7,413.4-253.8,725.9-284.5c23.7-2.3,46.2-5.3,68.7-5.5c151.4-1,328.2,8.2,462.9,70.5
		c8.4,3.9,16.8,8,24.8,12.4c127.4,68.2,167.9,125.7,192.2,188.5c24.3,62.8,32.3,131.2,94.4,220.4c42.9,61.7,93.3,112.8,169.1,158.1
		c16.7,10,33,18.6,48.8,25.9c178.7,82.6,297,4.9,297.1,4.9L3101.7,2029"/>
	<path class="st2" d="M3117.6,1977.4c0,0-1.9,1.4-5.6,3.8c-25.8,16.4-139.4,77.4-303.5,1.5c-9.8-4.5-19.8-9.5-30-15.1
		c-73.4-40.1-127-88.6-175.8-150.5c-70.4-89.2-89.4-159.4-119.6-223.8s-71.8-123-187.1-188.5c-11.9-6.8-24.3-13.1-36.9-19
		c-125.9-58.3-287.2-72.9-448.1-73.1c-22.5,0-45.1,2.4-68.8,4.3c-317.4,25.1-457.7,219.5-708,302.6c-424.1,141-714.9,122.4-927.6,24
		c-390.9-180.6-519.4-631.3-728.5-859.9l-0.5,0.4l0.6-0.3c0,0-116.3-168-324.8-373.8l-1,0.9C-843.4,513.7-762.3,607-707.1,674.7
		c27.5,33.8,48.6,61.3,62.7,80.2c7.1,9.5,12.4,16.8,16,21.8s5.4,7.6,5.4,7.6l0.1,0.1l0.1,0.1c208.4,227.9,337,679.1,728.9,860.4
		c213.4,98.6,504.6,117.1,928.9-23.9c250.7-83.4,390.9-277.6,707.7-302.6c23.7-1.9,46.4-4.3,68.7-4.3
		c160.8,0.2,321.8,14.9,447.3,72.9c12.7,5.9,24.9,12.2,36.8,18.9c115,65.4,156,123.4,186.2,187.6c30.1,64.2,49.2,134.7,119.9,224.2
		c49,62.1,102.8,110.8,176.5,151.1c10.2,5.6,20.2,10.6,30.1,15.2c188.5,87.1,310.6-5.3,310.7-5.4L3117.6,1977.4"/>
	<path class="st2" d="M3133.5,1925.8c0,0-1.9,1.7-5.8,4.4c-26.6,19.4-143.9,92-317,11.9c-3.7-1.7-7.4-3.4-11.1-5.3
		c-71.1-35.1-128.2-81.1-183.2-143.5c-79.1-89.7-109.1-162.1-145.1-227.8s-78.1-124.8-181-187.3c-16.2-9.9-33.3-18.9-50.9-27.1
		c-116.1-53.7-262.8-72.5-430.4-74c-22.4-0.2-45.1,1.6-68.8,3.1c-321.7,19.3-448.2,213.3-690,320.8
		c-408.5,181.8-694.1,177.4-905.8,79.5c-201.9-93.3-336.9-271.8-447.5-455.5C-413.8,1041.2-500,852.3-604.5,738.1l-0.5,0.4l0.6-0.3
		c-0.1,0-113.1-169.6-332.8-369l-0.9,0.9c109.7,99.6,192.9,191.8,248.6,259.1c27.8,33.6,48.8,61.1,62.8,80
		c7,9.5,12.3,16.9,15.8,21.9c3.6,5,5.3,7.6,5.3,7.7l0,0l0.1,0.1c104.1,113.8,190.3,302.7,301,486.5
		c110.7,183.9,246,362.7,448.4,456.4c212.4,98.2,498.5,102.4,907.3-79.4c242.1-107.7,368.5-301.4,689.5-320.7
		c23.7-1.4,46.4-3.3,68.7-3.1c167.5,1.4,314,20.3,429.6,73.8c17.6,8.2,34.6,17.1,50.8,27c102.6,62.4,144.3,120.9,180.2,186.5
		s66,138.2,145.3,228.2c55.1,62.5,112.5,108.8,183.9,144c3.7,1.8,7.4,3.6,11.1,5.3c198.9,91.9,324.3-16.4,324.4-16.4L3133.5,1925.8"
		/>
	<path class="st2" d="M3149.4,1874.2c0,0-1.9,1.9-5.7,5.2c-26.4,23-142.7,110.1-314.4,30.7c-2.9-1.3-5.7-2.7-8.6-4.1
		c-67.9-33.3-129.5-73.7-190.6-136.5c-87.6-90.1-128.6-164.8-170.4-231.9c-41.7-67.1-84.3-126.6-175-186
		c-20.8-13.6-43-25.9-66.5-36.7c-106-49-239.8-70.6-411.2-73.3c-22.2-0.4-45,0.9-68.8,1.9c-326,13.6-438.1,207.4-671.9,339
		c-394.5,222.1-675.2,231.8-885.9,134.3c-206.9-95.7-346.9-294.9-461-498.7C-394.7,1014.4-483,806.2-587.1,692.6l-0.5,0.4l0.7-0.3
		c-0.1,0-109.9-171.2-340.8-364.2l-0.9,1c115.4,96.4,200.5,187.3,256.8,254.2c28.1,33.4,49,60.8,62.9,79.9c7,9.5,12.1,16.9,15.5,22
		c3.5,5.1,5.2,7.7,5.2,7.7l0.1,0.1v0.1c103.7,113.1,192.1,321.3,306.2,525.1c114.2,203.9,254.3,403.5,462,499.6
		c211.5,97.8,492.7,87.9,887.4-134.3c234.1-131.8,346-325.3,671.3-338.8c23.8-1,46.5-2.2,68.7-1.9c171.3,2.7,304.8,24.3,410.5,73.1
		c23.4,10.8,45.4,23,66.2,36.6c90.3,59.2,132.6,118.3,174.3,185.3c41.7,67.1,82.8,141.9,170.7,232.3
		c61.3,63,123.1,103.6,191.2,136.9c2.9,1.4,5.7,2.8,8.6,4.1c98.7,45.6,179.1,36.6,234.9,16.1c55.8-20.4,86.8-52.3,86.9-52.3
		L3149.4,1874.2"/>
	<path class="st2" d="M3165.3,1822.6c0,0-1.8,2-5.5,5.4c-25.7,23.9-139.6,115.5-318,47.3c-10.6-4-21.1-8.4-31.6-13.3
		c-55.5-25.7-109.8-63-166.4-116.2c-96.3-90.6-148.2-167.7-195.6-236.2c-47.5-68.5-90.5-128.4-169.1-184.4
		c-25.3-18-52.5-33.9-82.3-47.7c-96.3-44.5-219.5-67.3-391.7-71.4c-22.1-0.5-44.9,0.1-68.8,0.7c-330.3,7.6-427.3,201.4-653.8,357.1
		c-381.1,262-657.1,285.9-867,188.8c-211-97.5-355.6-317.5-473.3-541.4C-375.5,987.6-466.1,759.9-569.7,647l-0.6,0.4l0.7-0.2
		c0-0.1-106.6-172.8-348.8-359.4l-0.8,1.1c121,93.2,208,182.9,264.9,249.4c28.4,33.2,49.3,60.6,63,79.7c6.9,9.6,12,17,15.4,22.1
		c3.4,5.1,5,7.7,5,7.8v0.1l0.1,0.1c103.1,112.1,193.9,339.8,311.7,563.7c117.8,224,262.5,444.4,474.3,542.3
		c210.7,97.4,487.2,73.3,868.5-188.8c226.8-155.9,323.5-349.3,653.1-356.9c23.8-0.5,46.6-1.2,68.7-0.7
		c172.1,4.1,295.1,26.8,391,71.2c29.7,13.7,56.8,29.5,82,47.5c78.2,55.8,121.1,115.4,168.5,184c47.5,68.5,99.5,145.7,195.9,236.5
		c56.7,53.3,111.2,90.8,166.9,116.5c10.5,4.9,21.1,9.3,31.7,13.4c205,78.3,325-53,325.1-53L3165.3,1822.6"/>
	<path class="st2" d="M3181.2,1771c0,0-1.8,2.1-5.3,5.8c-24.7,25.8-134.8,125.3-313,67.7c-17.2-5.6-34.7-12.4-52.5-20.6
		c-48.5-22.5-99.1-55.3-152.8-101.8c-209.7-182.3-250.7-318.4-384-423.4c-28.8-22.7-60.3-42.4-96.5-59.1
		c-87.7-40.5-202.7-63.5-373.9-68.9c-22-0.7-44.8-0.7-68.7-0.5c-334.8,1.1-416.1,195.5-635.8,375.3
		c-368.3,301.5-639.6,339.3-848.6,242.6c-214.3-99-363.6-339.7-485-583.7c-121.3-243.9-214.6-491-317.4-602.9l-0.6,0.4l0.7-0.2
		c-0.1-0.1-103.4-174.4-356.9-354.6l-0.8,1.1c126.6,90,215.6,178.5,273.1,244.5c28.7,33,49.5,60.4,63.1,79.5
		c6.8,9.6,11.8,17.1,15.1,22.1c3.3,5.1,4.9,7.8,4.9,7.8v0.1l0.1,0.1c102.5,111.3,195.9,358.5,317.3,602.5s270.9,485.2,486,584.7
		c210,97.1,481.8,58.9,850.2-242.8c219.9-180.1,300.9-373.9,635-375c23.9-0.1,46.7-0.2,68.7,0.5c171,5.3,285.8,28.3,373.1,68.7
		c36,16.7,67.4,36.3,96.1,58.9c132.8,104.4,173.9,240.7,383.9,423.3c53.8,46.6,104.6,79.6,153.3,102.2c17.8,8.2,35.4,15.1,52.7,20.7
		c204.8,66.1,319.8-73.9,319.8-73.9L3181.2,1771"/>
	<path class="st2" d="M3197.2,1719.4c0,0-2.1,2.9-6.4,7.6c-14.8,16.8-55.1,57.1-119.2,80.6c-64.1,23.5-151.7,30.2-261.2-20.5
		c-43-19.9-89.4-48.6-139-88.6c-145.4-117.2-224.7-218.9-291.9-302.6c-67.2-83.6-122.3-149.3-219-194.1
		c-91-42.1-218.7-65.5-427.9-68.2c-169.4-2.2-270.6,45.1-356,118.5s-155,172.8-261.7,274.9c-355.7,340.5-622.4,392.2-830.6,295.9
		c-216.9-100.2-371-361.6-496.1-625.6S-433,666.8-535,555.9l-0.5,0.4l0.7-0.2c0-0.1-100.2-176-364.9-349.8l-0.7,1.1
		c132.1,86.8,223.2,174.1,281.2,239.6c29,32.8,49.7,60.2,63.2,79.4c6.7,9.6,11.7,17.1,14.9,22.2c3.2,5.2,4.8,7.9,4.8,7.9v0.1
		l0.1,0.1c101.5,110.2,197.9,376.9,323,640.9C-88,1461.8,66,1723.5,283.9,1824.3c209.2,96.7,476.5,44.5,832.2-296.1
		c106.7-102.2,176.4-201.6,261.6-274.9c85.3-73.3,186-120.4,355.2-118.2c209.1,2.7,336.6,26.2,427.1,68.1
		c96.2,44.5,151,109.8,218.2,193.5c67.2,83.6,146.7,185.5,292.2,302.9c49.8,40.1,96.3,69,139.5,88.9
		c125.7,58.1,222.9,41.1,288.6,9.6c65.7-31.5,99.9-77.6,99.9-77.6L3197.2,1719.4"/>
</g>
</svg>
