<?xml version="1.0" encoding="utf-8"?>
<!-- Generator: Adobe Illustrator 23.1.0, SVG Export Plug-In . SVG Version: 6.00 Build 0)  -->
<svg version="1.1" id="图层_1" xmlns="http://www.w3.org/2000/svg" xmlns:xlink="http://www.w3.org/1999/xlink" x="0px" y="0px"
	 viewBox="0 0 2969.4 2057" style="enable-background:new 0 0 2969.4 2057;" xml:space="preserve">
<style type="text/css">
	.st0{opacity:0.51;}
	.st1{fill:none;stroke:#005775;stroke-width:5;stroke-miterlimit:10;}
</style>
<g class="st0">
	<path class="st1" d="M3310.3,1257.8c0,0-2.5,1-7.5,2.6c-15,4.7-52.2,14.2-108.7,14.2c-68.8,0-166.3-13.9-287.5-67.5
		c-113.3-50.1-153.9-108.9-161.5-167.9c-6.2-48.6,9.9-97.5,26.8-141.7c16.8-44.2,34.3-83.7,30.4-113.9c-2.3-18.1-12.5-32.9-35-43
		s-57.2-15.6-108.9-15.6c-35.5,0-79,2.6-132.1,8.2c-98.5,10.3-200.8,66.5-278.8,120.3s-131.9,105.3-133.1,106.3
		c-196,163.3-311.3,525-646.7,525c-24.3,0-49.8-1.9-76.5-5.9c-193-28.9-352.9-40.9-486.4-40.8c-332.2,0.1-501.4,74.8-612.5,149.5
		s-164.1,149.1-263.5,149.1c-42,0-92.5-13.2-159.3-45.4h-0.1l0,0c0,0-2.7-1.1-7.9-3.5c-36.2-16.9-190.4-96.2-340.8-284.1l-1.2,0.7
		c172.2,215.1,349.4,288.2,349.5,288.2l0.2-0.6l-0.3,0.6c66.9,32.2,117.6,45.6,160,45.5c100.4-0.1,153.4-74.8,264.3-149.3
		s279.8-149.1,611.7-149.2c133.4,0,293.2,11.9,486.2,40.8c26.8,4,52.4,5.9,76.8,5.9c336.7-0.2,451.9-362.6,647.6-525.3
		c1.3-1.1,55-52.5,133-106.2c77.9-53.8,180.1-109.8,278.2-120.1c53-5.6,96.5-8.2,131.9-8.2c51.6,0,86.1,5.5,108.2,15.4
		c22.1,9.9,31.7,24,34.1,41.8c3.8,29.6-13.5,69.1-30.4,113.3c-16.8,44.2-33.1,93.2-26.8,142.2c7.7,59.6,48.8,119,162.5,169.2
		c121.4,53.6,219.2,67.6,288.1,67.6c75.6,0,116.7-16.9,116.8-16.9L3310.3,1257.8"/>
	<path class="st1" d="M3303.2,1204.3c0,0-0.7,0.3-2.2,1c-10.1,4.4-55.5,22-131.7,22c-64.7,0-151.5-12.6-257.8-56.9
		c-109-45.5-151.5-100.6-164.5-157.1c-1.2-5.1-2-10.2-2.7-15.3c-5.5-43.2,5.6-86.2,17.3-125.4s23.9-74.7,20.3-102.9
		c-2.5-19.8-13-36.1-37-47.2c-23.9-11.1-61.1-17.2-117.3-17.2c-32.1,0-70.5,2-116.1,6.3c-95.4,8.9-194.9,60.8-272.3,111.6
		c-38.7,25.4-72,50.6-96.4,69.9c-24.4,19.4-40.1,33-43.6,35.3c-18,11.9-32.6,28.1-48.3,43.8c-179.5,178.9-296.1,485.1-609.4,485.1
		c-14.5,0-29.5-0.6-45-2c-133.7-11.8-251.4-16.9-355.4-16.8c-366,0.1-563.8,64.2-695.3,128.2c-131.5,64.1-196.7,127.9-297.4,127.9
		c-48.7,0-105.8-14.9-182.9-51.9l0,0l0,0c0,0-2.7-1.2-7.9-3.6c-35.9-17.3-189.3-97.6-345.4-276.3l-1.1,0.8
		C-310.3,1568.2-135.1,1644-135,1644l0.3-0.6l-0.3,0.6c77.2,37.2,134.7,52.1,183.7,52.1c101.4-0.1,166.6-64.1,298-128.1
		c131.3-63.9,328.9-128,694.6-128.1c104,0,221.7,5.1,355.3,16.8c15.5,1.4,30.5,2,45.1,2c314.4-0.2,431-307,610.4-485.5
		c15.7-15.7,30.3-31.9,48.1-43.6c3.7-2.4,19.2-16,43.7-35.4c73.3-58.1,225.6-168,368-181.3c45.6-4.3,83.9-6.3,115.9-6.3
		c56.1,0,93.1,6.1,116.6,17.1s33.5,26.6,36.1,46c3.6,27.7-8.6,63.1-20.3,102.4s-23,82.4-17.4,125.9c0.6,5.1,1.5,10.3,2.7,15.4
		c13.1,57,56.1,112.7,165.5,158.2c106.4,44.4,193.5,57.1,258.4,57.1c87.3-0.1,134.4-23.1,134.5-23.1L3303.2,1204.3"/>
	<path class="st1" d="M3296.1,1150.9c0,0-0.8,0.5-2.4,1.3c-11.3,5.7-62,28.8-147.8,28.8c-59.9,0-136.8-11.2-229.3-47.3
		c-105.6-41.3-149.9-93.3-167.6-147.7c-3.4-10.4-5.6-20.9-7-31.3c-9.6-74.2,26.8-146.6,20.3-197.7c-2.8-21.8-13.6-39.9-39-52.3
		c-25.4-12.4-65.4-19.3-126.7-19.3c-28.3,0-61.2,1.5-99.3,4.6c-92.3,7.5-188.9,55.2-265.8,103.1c-76.8,47.8-134,95.9-147,104.2
		c-18.1,11.5-32.8,27.4-48.7,42.7c-95.3,91.2-170.5,214.2-262.1,314.5c-91.7,100.2-199.6,177.5-360.4,177.6c-3.6,0-7.2,0-10.7-0.1
		c-40.3-0.8-79.1-1.2-116.6-1.2c-878.6,0.4-996.1,224.8-1207.5,224.8c-58.7,0-124.6-17.2-216.3-61.2c0,0-2.7-1.2-7.8-3.7
		c-35.6-17.6-188.3-98.9-350-268.5l-1.1,0.8c185,194,358.2,272.6,358.3,272.6c91.8,44.1,158,61.4,217,61.4
		c212.5-0.2,329-224.4,1207.5-224.8c37.4,0,76.3,0.4,116.5,1.2c3.6,0.1,7.2,0.1,10.8,0.1c161.4-0.1,269.7-77.7,361.4-178
		s166.9-223.4,262.1-314.4c16-15.3,30.6-31.2,48.5-42.6c13.2-8.4,70.2-56.4,147-104.2s173.3-95.3,265.2-102.8
		c38.1-3.1,70.9-4.6,99.2-4.6c61.3-0.1,101,6.9,126,19.1s35.3,29.6,38.1,51.2c6.6,50.5-29.8,123-20.3,197.7c1.3,10.5,3.6,21,7,31.5
		c17.8,54.8,62.7,107.3,168.6,148.7c92.7,36.2,169.9,47.5,229.9,47.4c98.4,0,150.9-30.3,150.9-30.3L3296.1,1150.9"/>
	<path class="st1" d="M3289,1097.4c0,0-0.9,0.6-2.6,1.6c-12.3,7.3-67.7,36.6-162.6,36.7c-54.5,0-122.2-9.6-202.3-38.7
		c-102.1-37.1-148.2-85.9-170.7-138.3c-7.1-16.4-11.1-32.9-13.2-49.2c-7.8-60.5,11.6-118.6,5.9-163.2c-3.1-24.5-14-44.9-41-59
		c-27.1-14.1-70.2-22.1-138-22c-24,0-51.2,1-81.8,3.1c-178.4,12.2-375,173.9-413.3,197.5c-18.1,11.2-33,26.8-49.2,41.6
		c-197.7,181.5-300.4,484.3-612.1,500.8C525,1455.4,335.6,1620.4,124.3,1620.4c-75,0-152.9-20.7-265.7-74.8c0,0-2.6-1.3-7.7-3.8
		c-35.4-18.1-187.3-100.3-354.6-260.7l-1,0.8c191.4,183.5,362.6,264.8,362.7,264.9c113,54.2,191.1,75,266.5,75
		c212.2-0.1,400.9-165.1,1283.9-212.2c312.8-16.8,415.5-320.1,613-501.2c16.2-14.9,31.1-30.4,48.9-41.5
		c38.4-23.8,235-185.2,412.7-197.3c30.6-2.1,57.7-3.1,81.6-3.1c67.7-0.1,110.6,7.9,137.2,21.8c26.6,13.9,37.1,33.7,40.2,57.9
		c5.7,44.1-13.7,102.4-5.9,163.2c2.1,16.4,6.2,33,13.3,49.6c22.7,52.7,69.3,102,171.7,139.1c80.3,29.2,148.1,38.8,202.9,38.8
		c108.8,0,165.9-38.5,166-38.5L3289,1097.4"/>
	<path class="st1" d="M3281.8,1043.9c0,0-0.9,0.7-2.8,2c-13.2,9-72.4,45.3-175.9,45.3c-49,0-108-8.1-176.7-31
		c-98.6-32.9-146.5-78.5-173.9-128.8c-13-23.9-19.3-47.9-22.3-71.3c-5.6-43.9,0.3-85.7-4.2-120.7c-3.6-28.1-14.1-51.9-42.8-68.5
		c-28.7-16.7-75.5-26.1-151.8-26.1c-19.2,0-40.2,0.6-63.3,1.8c-172.4,9.4-363.4,157.3-413.8,187.9c-18,11-33.1,26.1-49.6,40.5
		c-202.9,178.5-297.9,470.2-591,509.7C653,1487.4,402.6,1592.9,196.6,1593c-104.8,0-198.2-27.1-341.7-96c0,0-2.6-1.3-7.6-3.9
		c-35-18.5-186.2-101.7-359.1-252.9l-1,0.9c197.8,172.9,367,257,367.1,257c143.6,68.8,237.3,96.2,342.5,96.1
		c206.5-0.1,456.7-105.6,1217.3-208.3c294.1-39.8,389.1-331.9,591.8-509.9c16.5-14.5,31.5-29.6,49.4-40.4
		c50.6-30.7,241.5-178.3,413.2-187.7c23.1-1.3,44.1-1.9,63.2-1.9c76.2-0.1,122.7,9.5,150.9,25.8s38.4,39.5,42,67.5
		c4.5,34.7-1.5,76.6,4.2,120.6c3,23.5,9.4,47.7,22.5,71.8c27.6,50.6,75.9,96.6,174.8,129.6c68.9,23,128,31.2,177.2,31.1
		c118.7,0,179.5-47.6,179.6-47.6L3281.8,1043.9"/>
	<path class="st1" d="M3274.7,990.4c0,0-1,0.9-2.9,2.4c-13.8,10.9-76.2,54.8-187.9,54.9c-43.4,0-94.2-6.6-152.5-24.3
		c-95-28.8-144.7-71.1-177-119.4c-24-35.9-32.1-72.2-36.4-106.3c-2.4-18.4-3.6-36.1-5.8-52.7c-4.5-34.9-12.7-65.3-42.7-86.9
		c-30-21.5-81.3-34.2-171.8-34.1c-13.8,0-28.4,0.3-44,0.9c-166.4,6.6-351.6,140.9-414.4,178.3c-18,10.7-33.4,25.4-50,39.4
		c-208.2,175.4-295.7,456.7-569.9,518.5C792,1502.7,506.7,1576.6,299.7,1576.6c-156,0.1-267.7-41.7-448.4-128.3l-0.3,0.6l0.3-0.6
		c0,0-2.6-1.3-7.6-4c-34.8-18.8-185.1-103.1-363.6-245.1l-0.9,1c204.1,162.4,371.4,249.3,371.5,249.3l0,0l0,0
		C31.4,1536,143.4,1578,299.8,1577.9c207.5-0.1,492.7-74,1120.1-215.5c275.1-62.1,362.6-343.8,570.5-518.8
		c16.7-14,32-28.7,49.8-39.3c62.9-37.5,248-171.6,413.7-178c15.6-0.6,30.3-0.9,44-0.9c90.3-0.1,141.3,12.6,170.7,33.8
		s37.6,51,42.1,85.9c2.1,16.6,3.4,34.3,5.8,52.7c4.4,34.2,12.5,70.7,36.7,106.9c32.5,48.5,82.7,91.2,178,120.1
		c58.5,17.7,109.5,24.3,153,24.3c128.2-0.1,191.7-57.6,191.8-57.6L3274.7,990.4"/>
	<path class="st1" d="M3267.7,936.9c0,0-1,1.1-3,2.9c-14.3,13-79.1,65.2-198.7,65.2c-37.7,0-80.8-5.1-129.6-18.3
		c-91.5-24.8-143-63.8-180.2-110c-54.7-67.8-48.4-134.1-71.2-184.7c-11.4-25.3-30.2-46.7-67.5-62.1c-37.2-15.4-92.9-24.8-178.3-26.7
		c-2.2-0.1-4.4-0.1-6.6-0.1c-159.6,0.1-334,125.2-408.3,168.6c-18,10.5-33.6,24.7-50.5,38.3c-213.5,172.4-293.6,444.2-548.8,527.5
		c-516.2,168.6-805.7,234.6-1015.3,234.7c-218.3,0.1-350.2-71.2-562-172.4l-0.3,0.6l0.3-0.6c0,0-2.6-1.4-7.5-4.1
		c-34.5-19.2-184.1-104.4-368.2-237.2l-0.8,1c210.6,151.8,375.9,241.5,375.9,241.5l0,0l0,0c211.6,101.2,344,172.7,562.7,172.6
		c210-0.1,499.6-66.1,1015.8-234.7c256-83.7,336-355.7,549.3-527.6c16.9-13.7,32.5-27.8,50.3-38.2
		c74.3-43.4,248.8-168.4,407.6-168.4c2.2,0,4.4,0,6.6,0c85.3,1.8,140.8,11.3,177.7,26.6c55.3,22.9,69.2,58.5,79.6,101.6
		c10.4,43.1,17.2,93.3,58.4,144.6c37.4,46.5,89.4,85.7,181.1,110.6c48.9,13.2,92.2,18.4,130,18.4c137.2,0,202.6-68.5,202.7-68.5
		L3267.7,936.9"/>
	<path class="st1" d="M3260.6,883.5c0,0-1,1.2-3.1,3.4c-14.6,15.3-81.1,76.4-208.3,76.4c-32,0-68-3.8-107.8-13.3
		c-87.9-20.8-141.2-56.4-183.3-100.5c-61.7-64.5-64.9-127.4-92.8-176.5c-13.9-24.5-34.2-45.5-70.8-61.3
		c-36.7-15.7-89.8-26.3-169.7-30c-4.8-0.2-9.6-0.3-14.4-0.3c-151.4,0.1-315.8,110.3-401,159.2c-17.9,10.3-33.8,24-50.9,37.2
		c-218.9,169.1-291.4,432.3-527.7,536.2c-439.1,193.4-719.1,262.4-929.2,262.4c-271.5,0.1-426.3-114.8-657.4-225.2l-0.3,0.6l0.3-0.5
		c0,0-2.6-1.5-7.4-4.3c-34.2-19.6-183-105.8-372.8-229.4l-0.8,1.1c217,141.3,380.3,233.7,380.3,233.7l0,0l0,0
		c230.9,110.3,386.1,225.5,658.2,225.4c210.4-0.1,490.6-69.1,929.8-262.5c236.9-104.4,309.4-367.7,528-536.4
		c17.1-13.2,33-26.9,50.7-37.1c85.2-48.9,249.6-158.9,400.3-159c4.8,0,9.6,0.1,14.3,0.4c79.9,3.8,132.8,14.3,169.2,29.9
		c54.5,23.4,71.9,58.2,87.5,99.5c15.5,41.4,29,89.1,75.5,137.8c42.4,44.3,96.1,80.2,184.2,101c40,9.5,76.1,13.4,108.3,13.4
		c146-0.1,212.3-80.2,212.4-80.3L3260.6,883.5"/>
	<path class="st1" d="M3253.5,830c0,0-1,1.4-3.1,3.9c-14.7,17.6-82.2,88.3-216.9,88.4c-26.4,0-55.4-2.7-87.2-9
		c-84.2-16.9-139.3-49-186.4-91.1c-68.6-61.2-81.4-120.9-114.4-168.5s-86.3-82.6-235.3-93.6c-7.5-0.6-15.1-0.8-22.7-0.8
		c-143.1,0.1-297.6,96.2-393.2,150c-17.9,10.1-34,23.3-51.3,36.1c-224.3,166-288.8,421.2-506.6,545.2
		C1051.1,1510,783,1586,574,1586.1c-310.9,0.1-491.5-167.9-733.5-283.4l-0.3,0.6l0.3-0.5c0,0-161.4-95.2-384.7-226l-0.7,1.1
		c111.6,65.4,207.8,121.8,276.1,162c34.1,20.1,61.3,36.1,79.9,47c18.6,11,28.6,16.9,28.7,16.9l0,0h0.1
		c241.6,115.2,422.6,283.6,734.2,283.5c209.4-0.1,477.7-76.3,863.1-295.7c218.3-124.3,282.8-379.7,506.7-545.2
		c17.4-12.8,33.5-26,51.2-36c95.5-53.9,250.1-149.9,392.5-149.9c7.6,0,15.1,0.3,22.6,0.8c148.7,11.1,201.2,45.8,233.9,92.9
		c32.8,47.2,45.7,107.3,114.7,168.8c47.3,42.2,102.9,74.6,187.3,91.5c31.8,6.4,61,9.1,87.5,9.1c154.7-0.1,221.1-92.7,221.1-92.8
		L3253.5,830"/>
	<path class="st1" d="M3246.3,776.5c0,0-1,1.6-3.1,4.5c-14.7,20.2-82.4,101-224.7,101.1c-20.8,0-43.2-1.7-67.3-5.6
		c-80.5-13-137.5-41.7-189.6-81.7c-75.6-57.9-98.2-119.1-136.4-167.4c-38.2-48.4-92.2-83.6-229.6-89.1c-4.8-0.2-9.6-0.3-14.4-0.3
		c-138.9,0.1-292.3,79.2-402,139.8c-17.8,9.8-34.2,22.5-51.8,35c-229.7,162.7-285.7,410.8-485.5,554
		c-344.4,247-601.2,332-808.8,332.1C293.5,1599.1,84.6,1372-163.2,1254l-0.3,0.6l0.4-0.5c0,0-159.4-98-389.2-218.2l-0.6,1.1
		c114.8,60,212.1,114.5,280.6,154c34.3,19.7,61.4,35.8,79.9,46.8c9.3,5.5,16.4,9.8,21.2,12.7c4.8,2.9,7.3,4.4,7.3,4.4h0.1l0,0
		c247.4,117.8,456.6,345.3,797.1,345.1c208.1-0.1,465-85.2,809.6-332.4c200.2-143.6,256.2-391.6,485.5-554
		c17.5-12.5,34-25.1,51.7-34.9c109.7-60.5,262.9-139.5,401.3-139.6c4.8,0,9.6,0.1,14.4,0.3c137.3,5.6,190.4,40.5,228.3,88.5
		c38,48,60.8,109.5,136.7,167.7c52.3,40.1,109.7,68.9,190.4,81.9c24.2,3.9,46.7,5.6,67.6,5.6c163.4,0,228.9-106.1,229-106.2
		L3246.3,776.5"/>
	<path class="st1" d="M3239.3,723c0,0-1,1.8-3.1,5.1c-14.5,22.9-81.8,114.5-231.9,114.6c-15.2,0-31.2-0.9-48.2-3
		c-76.8-9.3-135.6-34.4-192.7-72.2c-82.5-54.6-114.7-113-157.9-160c-43.2-47.1-97.7-82.5-224.4-90.9c-8.1-0.5-16.2-0.8-24.4-0.8
		c-130.4,0.1-273.4,66.1-392.5,130.6c-17.8,9.6-34.4,21.9-52.2,33.9c-235.2,159.4-282,400.9-464.3,562.9
		c-310.7,276-556.9,370.9-763.3,371c-360.8,0.2-600.5-289.6-851.2-408.9l-0.3,0.6l0.4-0.5c0,0-157.5-100.8-393.7-210.5l-0.5,1.2
		c118,54.8,216.3,107.4,285.2,146.3c34.4,19.4,61.5,35.5,80,46.6c9.2,5.6,16.3,9.9,21.1,12.9c4.8,3,7.2,4.5,7.3,4.5l0,0l0,0
		c250.2,118.9,490.2,409.1,851.9,409c206.9-0.1,453.3-95.2,764.2-371.3c182.7-162.4,229.4-403.8,464.2-562.8
		c17.8-12,34.4-24.3,52.1-33.8c119-64.5,261.9-130.4,391.8-130.4c8.1,0,16.3,0.2,24.3,0.8c126.4,8.4,180.2,43.5,223.3,90.3
		s75.4,105.4,158.2,160.3c57.3,37.9,116.4,63.2,193.5,72.4c17,2.1,33.1,3,48.4,3c172.4-0.1,236.1-120.2,236.1-120.3L3239.3,723"/>
	<path class="st1" d="M3232.2,669.5c0,0-1,2.1-3,5.8c-14.1,25.7-80.5,128.8-238.8,128.8c-9.5,0-19.3-0.3-29.4-1.1
		c-73.1-5.6-133.8-27-195.9-62.7c-89.5-51.4-131.1-107.1-179.4-152.8c-48.3-45.8-103.4-81.5-219.2-92.5c-12-1.2-24.1-1.7-36.3-1.7
		c-121.4,0-254.2,54.4-381.1,121.8c-17.7,9.4-34.7,21.1-52.6,32.8c-240.7,156-277.5,391.3-443.2,571.8
		c-280.8,305.9-517.2,411.2-722.3,411.2c-376.9,0.2-649.6-354.6-901.3-474.2l-0.3,0.6l0.4-0.5c-0.1,0-155.6-103.6-398.3-202.8
		l-0.5,1.2c121.3,49.6,220.7,100.2,289.9,138.5c34.6,19.1,61.6,35.2,79.9,46.4c9.2,5.6,16.2,10.1,20.9,13.1c4.7,3,7.1,4.6,7.1,4.6
		h0.1h0.1c251.1,119.2,524.1,474.5,902.1,474.4c205.8-0.1,442.4-105.6,723.4-411.7c166-180.9,202.7-415.9,443-571.6
		c18-11.7,34.9-23.4,52.5-32.7c126.8-67.3,259.4-121.6,380.4-121.7c12.2,0,24.3,0.6,36.2,1.7c115.5,11,170,46.4,218.1,92
		c48.2,45.6,90,101.5,179.8,153c62.3,35.8,123.3,57.4,196.6,63c10.2,0.8,20,1.1,29.5,1.1c181.7-0.1,242.9-135.2,242.9-135.3
		L3232.2,669.5"/>
	<path class="st1" d="M3225.1,616.1c0,0-0.9,2.3-2.9,6.4c-13.6,28.8-78.5,143.9-245.5,143.9c-3.6,0-7.1,0-10.8-0.2
		c-69.4-2-131.9-19.7-199-53.2c-96.5-48.2-147.6-101.2-201-145.7c-53.3-44.5-109-80.4-213.9-93.9c-16.6-2.2-33.4-3.2-50.4-3.2
		c-112,0.1-234.8,44.5-367.5,113.6c-17.7,9.2-34.9,20.4-53.1,31.7c-246.3,152.6-272.3,381.7-422.1,580.7
		c-253.1,336.4-480,452.3-684.1,452.4c-194.7,0.1-369-105.1-526.1-225.3c-157.1-120.2-296.9-255.4-422.8-315.1l-0.2,0.6l0.4-0.5
		c-0.1,0-153.7-106.4-402.7-195.1l-0.4,1.3c124.4,44.3,225,93,294.5,130.6c34.7,18.8,61.7,34.9,80,46.2c9.1,5.7,16.1,10.2,20.8,13.3
		c4.7,3,7.1,4.7,7.1,4.7l0,0h0.1c125.4,59.4,265.2,194.6,422.4,314.9S579.8,1650,775,1649.9c204.8-0.1,432-116.4,685.2-452.9
		c149.9-199.4,175.9-428.1,421.8-580.4c18.2-11.3,35.3-22.5,53-31.6c132.6-69,255.3-113.4,366.8-113.5c17,0,33.8,1,50.3,3.2
		c104.6,13.5,159.7,49.1,213,93.5s104.6,97.7,201.3,146c67.2,33.6,130.1,51.4,199.8,53.4c3.6,0.1,7.2,0.1,10.8,0.2
		c191.7-0.1,249.5-151.1,249.5-151.1L3225.1,616.1"/>
	<path class="st1" d="M3218,562.6c0,0-0.8,2.6-2.5,7.1c-12.1,32-70.6,159.8-236.2,159.9c-2.8,0-5.5,0-8.3-0.1
		c-66.2-1.7-130.2-12.5-202.2-43.8c-103.4-45-164.1-95.5-222.5-138.8s-114.6-79.5-208.7-95.2c-21.6-3.6-43.8-5.4-66.4-5.4
		c-102.3,0-215.9,36.7-352.1,106.1c-17.7,9-35.2,19.7-53.5,30.6c-251.9,149.2-266.6,372.1-400.9,589.6
		c-226.6,367.1-444.3,493.8-647.5,493.8c-199.5,0.1-385.7-121.9-553.1-258.8c-167.6-137-316.4-288.8-441.8-348.1l-0.3,0.6l0.4-0.5
		c-0.1,0-151.7-109.2-407.2-187.3l-0.3,1.3c127.7,39,229.3,85.8,299.1,122.8c34.9,18.5,61.8,34.6,80,46.1c9.1,5.7,16,10.3,20.6,13.4
		c4.7,3.1,7,4.8,7,4.8h0.1l0,0c125,59,273.8,210.8,441.4,347.8s354,259.3,554.2,259.2c204-0.1,422-127.2,648.7-494.4
		c134.5-217.9,149.1-440.4,400.5-589.2c18.4-10.9,35.8-21.5,53.5-30.5c136.1-69.4,249.6-106,351.5-106c22.6,0,44.6,1.8,66.1,5.4
		c93.7,15.8,149.5,51.6,207.9,94.9s119.3,94,222.9,139c72.3,31.4,136.5,42.3,202.9,43.9c2.8,0.1,5.6,0.1,8.3,0.1
		c95.1,0,155.2-42,191.3-84c36.2-41.9,48.6-83.9,48.6-83.9L3218,562.6"/>
	<path class="st1" d="M3211,509.1c0,0-0.7,2.6-2.3,7.3c-11.1,32.5-66.1,163.4-232.7,176.4c-9.9,0.8-19.8,1.2-29.9,1.2
		c-53.5,0-110.6-11-175.4-35.5c-110.4-41.7-180.6-89.9-244.1-132.1s-120.2-78.5-203.4-96.3c-26.8-5.7-54.3-8.7-83-8.7
		c-92.9,0-198.6,31.1-336,99.7c-17.6,8.8-35.4,19-54,29.5c-257.6,145.6-260.4,362.1-379.8,598.5
		c-200.9,397.7-409.4,535.2-611.8,535.3c-203.4,0.1-401.2-138.7-579.1-292.4c-178-153.6-336-322.1-460.6-381l-0.3,0.6l0.4-0.5
		c-0.1,0-149.8-112-411.7-179.6l-0.2,1.3c130.8,33.8,233.6,78.6,303.7,115c35,18.2,61.9,34.3,80,45.8c9.1,5.8,15.9,10.4,20.5,13.6
		c4.6,3.2,6.9,4.9,6.9,4.9h0.1h0.1c124.1,58.6,282.2,227,460.3,380.8c178,153.7,376,292.9,580.2,292.8
		c203.2-0.1,412.1-138.1,613-536c119.5-236.7,122.3-452.7,379.3-598c18.6-10.5,36.3-20.6,53.9-29.4
		c137.3-68.6,242.9-99.6,335.3-99.6c28.6,0,56,2.9,82.7,8.6c82.9,17.8,139.4,53.9,202.8,96.1c63.5,42.2,133.9,90.4,244.4,132.3
		c65,24.6,122.2,35.7,176,35.6c10.2,0,20.2-0.4,30.1-1.2c191.4-15.1,236.1-184.5,236.2-184.5L3211,509.1"/>
	<path class="st1" d="M3203.9,455.6c0,0-0.6,2.7-2,7.5c-9.7,33.8-58.6,170.3-221.1,192.9c-15.7,2.2-32.1,3.4-49.2,3.4
		c-46.8,0-99.2-8.5-159.2-28.2c-234.6-77.3-318.7-183.6-463.8-222.9c-31.4-8.5-63.7-13.1-98.6-13.1c-84.5,0-184,27.5-321,94.5
		c-17.6,8.6-35.6,18.2-54.4,28.4c-263.6,141.6-253.8,352-358.6,607.4c-175.8,428.2-375.3,576.3-576.9,576.4
		c-206.6,0.1-415.9-155.5-604.4-325.9c-188.4-170.4-355.9-355.4-479.6-413.8l-0.3,0.6l0.5-0.5c-0.1,0-147.9-114.8-416.2-171.9
		l-0.2,1.3c134,28.5,237.9,71.4,308.3,107.1c35.2,17.9,62,34,80,45.6c9,5.8,15.8,10.5,20.3,13.7c4.6,3.2,6.9,5,6.9,5v0.1l0.1,0.1
		c123,58,290.7,243,479.2,413.4c188.6,170.4,398.1,326.4,605.5,326.3c202.5-0.1,402.3-148.9,578.1-577.2
		c104.9-255.7,95.1-465.5,358.1-606.8c18.8-10.1,36.8-19.7,54.3-28.3c136.9-67,236.2-94.3,320.3-94.4c34.8,0,66.9,4.6,98.2,13.1
		c144.4,39,228.7,145.3,463.7,222.8c60.2,19.7,112.8,28.3,159.8,28.3c17.2,0,33.6-1.2,49.4-3.4c186.6-26,224.1-201.3,224.1-201.3
		L3203.9,455.6"/>
	<path class="st1" d="M3196.8,402.1c0,0-0.6,3.5-2.1,9.6c-5.3,21.4-21.8,75-63.4,123.1c-41.6,48.2-108.1,91-213.7,91.1
		c-41.5,0-89-6.6-143.3-22C2615.1,558.6,2513.8,499.7,2429,452s-153.2-84.1-246.4-84.1c-87.8,0-197.4,32.4-363.4,117.8
		c-134.4,69.1-196.2,154.6-235.6,257s-56.5,221.9-101.8,359.3c-151,458.2-341.7,617.1-542.4,617.1c-209.2,0.1-430-172.3-629.1-359.3
		S-65.9,971.4-188.5,913.6l-0.3,0.6l0.4-0.5c-0.1-0.1-146-117.6-420.7-164.1l-0.1,1.3c137.2,23.2,242.2,64.2,312.9,99.3
		c35.3,17.6,62.1,33.7,80,45.4c9,5.9,15.7,10.6,20.2,13.9c4.5,3.3,6.8,5.1,6.8,5.1v0.1h0.1c121.8,57.4,299.2,258.8,498.3,445.9
		c199.2,187,420.2,359.8,630.3,359.7c201.7-0.1,392.6-159.6,543.7-618c45.3-137.5,62.4-256.9,101.8-359.2
		c39.4-102.3,100.9-187.3,235.1-256.4c165.9-85.3,275.4-117.6,362.7-117.6c92.8,0,160.8,36.2,245.6,83.9
		c84.8,47.6,186.2,106.7,345.6,152.1c54.5,15.5,102.1,22.1,143.8,22.1c121.2,0,191.4-56.3,231.2-112.4
		c39.8-56.2,49.3-112.3,49.3-112.4L3196.8,402.1"/>
</g>
<g class="st0">
	<path class="st1" d="M2982.3,2018.7c0,0-3.1-0.3-9-1.3c-17.6-3-60.3-12.2-118.9-39.3c-71.3-33-166.3-92.3-268.7-198.8
		c-95.7-99.5-112.2-172-94.5-228.9c14.7-46.8,52.6-83.1,89.3-114.8c36.6-31.8,71.9-59,81-88.1c5.5-17.4,1.4-35.7-17.6-55.5
		c-18.9-19.9-52.5-41.5-106.2-66.3c-36.8-17-83.1-35.5-140.5-56c-106.6-37.9-237-36.4-341.3-25.4c-104.3,11-182.5,31.6-184.2,32
		c-274.2,53.1-550.9,323.7-898.7,162.8c-25.2-11.6-50.8-25.6-76.8-42c-187.4-118.5-347.9-206-486.4-270.1
		c-344.4-159.3-552.4-173.2-700-159.2c-147.7,14-234.9,55.6-338,7.9c-43.6-20.2-90.1-56.3-145.4-117.3h-0.1l0,0c0,0-2.4-2.3-6.7-7
		c-30.2-32.6-155.6-178-229.9-419.6l-1.5,0.1c85.1,276.5,237,427.3,237.1,427.4l0.5-0.4l-0.6,0.4c55.4,61.2,102.2,97.5,146.1,117.8
		c104.1,48.1,191.6,6.2,338.9-7.7c147.4-13.9,354.9-0.1,699.1,159c138.4,64,298.8,151.4,486.3,270.1c26.1,16.5,51.7,30.4,77,42.1
		c349.2,161.3,626.1-109.9,899.8-162.7c1.8-0.3,79.8-20.9,184.1-31.9c104.2-11.1,234.5-12.5,340.6,25.3
		c57.4,20.4,103.6,38.9,140.3,55.9c53.5,24.8,86.9,46.3,105.5,65.8s22.5,36.9,17.2,54c-8.9,28.5-44.1,55.8-80.8,87.6
		c-36.7,31.8-74.8,68.1-89.6,115.3c-18,57.4-1.1,130.7,94.9,230.4c102.6,106.6,197.9,166.1,269.4,199.2
		c78.4,36.3,128.4,40.8,128.4,40.8L2982.3,2018.7"/>
	<path class="st1" d="M2998.2,1967.1c0,0-0.9,0-2.7-0.2c-12.4-0.9-67.1-6.8-146.1-43.3c-67.1-31-151.6-84.1-242.5-175
		c-93.3-93.3-113.3-163.4-102.2-220.5c1-5.2,2.3-10.2,3.8-15.1c13-41.6,43.3-75,72.5-104.7c29.2-29.8,57.3-55.8,65.8-82.9
		c6-19,2.2-38.8-17.8-60.3s-55.8-44.8-114.1-71.8c-33.3-15.4-73.9-32-123.1-50c-102.8-37.7-228.5-38.7-330.9-30.1
		c-51.2,4.3-96.6,11.1-130.4,16.8c-33.7,5.8-55.9,10.5-60.5,10.9c-23.8,2.1-46,9.7-69.1,16.3c-263.9,75-517.8,295.1-842.7,144.8
		c-15.1-6.9-30.4-14.8-45.8-23.4c-133.5-74.8-253.3-135.9-361.2-185.7c-379.4-175.5-612.3-212.7-776.4-218
		c-164.3-5.4-259.6,20.9-364-27.4c-50.5-23.3-103.3-64.2-167.1-134.6l0,0l0,0c0,0-2.3-2.3-6.6-7.1C-792.6,673-916.8,527-1000.9,291
		l-1.5,0.2c96.3,270.1,244.9,422.4,245,422.5l0.5-0.4l-0.6,0.4c63.9,70.6,116.9,111.6,167.8,135.1c105.2,48.6,200.6,22.1,364.6,27.6
		c164,5.4,396.6,42.5,775.8,217.9c107.8,49.9,227.6,111,361.1,185.7c15.5,8.7,30.8,16.5,45.9,23.5
		c326.1,150.7,580.3-69.9,843.8-144.7c23.1-6.7,45.2-14.2,68.8-16.3c4.9-0.4,26.9-5.2,60.6-10.9c101.2-17.2,306.9-43.1,460.3,13.2
		c49.1,18,89.7,34.6,122.9,49.9c58.2,26.9,93.8,50.2,113.5,71.3c19.6,21.1,23.2,40,17.4,58.8c-8.3,26.7-36.3,52.7-65.5,82.5
		s-59.6,63.2-72.7,105.1c-1.6,4.9-2.9,10-3.9,15.2c-11.2,57.6,9.2,128.5,102.8,222c91,91,175.8,144.3,243.1,175.4
		c90.5,41.8,149.4,43.7,149.5,43.7L2998.2,1967.1"/>
	<path class="st1" d="M3014.1,1915.5c0,0-1.1,0-3.1,0c-14.2-0.3-76.8-3.8-165.8-44.9c-62.1-28.7-137-75.7-217.2-152.7
		c-91.5-87.9-114.9-156-109.6-213.5c1-11,3.2-21.5,6.4-31.5c22.3-71.5,91.5-119.2,106.9-168.5c6.6-21,3.3-42.5-17.7-65.9
		s-59.4-48.8-123-78.2c-29.3-13.6-64.1-28-104.9-43.5c-99-37.5-219.9-40.9-320.4-34.7c-100.4,6.2-180.6,22.1-197.7,23.3
		c-23.7,1.7-45.9,9-69,15.1c-138.4,36.5-269.9,111.3-408.4,157.6c-138.6,46.3-284.1,64.2-450.8-12.9c-3.7-1.7-7.4-3.5-11.1-5.3
		c-41.4-20.1-81.5-39.1-120.3-57C-102.8,781.8-322.2,927.7-541.3,826.2c-60.8-28.1-121.7-75.3-197.6-158.9c0,0-2.3-2.4-6.5-7.1
		c-29.2-33-152.2-179.5-246.2-409.9l-1.5,0.2c107.5,263.6,252.9,417.6,253,417.6c76,83.8,137.2,131.1,198.3,159.4
		c220.5,101.8,438.6-44.4,1349.6,376.8c38.8,18,78.9,36.9,120.3,57c3.7,1.8,7.4,3.6,11.1,5.3c167.3,77.4,313.4,59.4,452.1,13
		s270.1-121.2,408.4-157.6c23.2-6.1,45.3-13.4,68.8-15.1c17.4-1.2,97.3-17.1,197.7-23.4c100.4-6.2,221.1-2.8,319.6,34.6
		c40.8,15.5,75.5,29.9,104.8,43.4c63.6,29.4,101.8,54.7,122.4,77.7c20.6,23,23.7,43.6,17.3,64.4c-15.1,48.7-84.4,96.6-106.9,168.5
		c-3.2,10.1-5.4,20.6-6.4,31.8c-5.4,57.9,18.3,126.8,110.2,214.9c80.4,77.1,155.5,124.3,217.8,153.1c102,47.2,169.6,45.1,169.7,45.1
		L3014.1,1915.5"/>
	<path class="st1" d="M3030,1863.9c0,0-1.1,0.1-3.4,0.2c-15.9,0.7-86.1,0.6-184.5-44.9c-56.6-26.2-122.5-67.3-192.9-132
		c-89.7-82.4-116.3-148.6-116.9-206.5c-0.2-18.2,2.7-35,7.7-50.7c18.2-58.2,63.6-101.3,77-144.2c7.4-23.5,5-47.2-16.9-72.9
		c-21.9-25.7-63.1-53.6-133.5-86.1c-24.9-11.5-53.5-23.6-86.1-36.4c-190.3-74.6-464.4-23.3-514.3-20.3c-23.6,1.4-45.8,8.3-69.1,13.9
		c-283.9,68.7-521.9,292.3-852.3,157.6C8.7,860.2-259.5,918.1-478.5,816.7c-77.8-36-149.5-92-243-194.9c0,0-2.2-2.4-6.3-7.2
		c-28.8-33.2-150.5-180.2-254.3-405.1l-1.4,0.3C-864.8,467-722.6,622.5-722.6,622.6C-629,725.7-557,781.9-478.9,818.1
		c220,101.7,487.4,43.6,1423.4,424.9c331.6,135,569.9-89.1,853.4-157.5c23.3-5.6,45.4-12.5,68.8-13.9
		c50.2-3.1,324.1-54.1,513.6,20.2c32.6,12.8,61.1,24.9,86,36.4c70.2,32.4,111.2,60.2,132.8,85.5c21.5,25.3,23.8,48.2,16.5,71.4
		c-13.2,42.5-58.7,85.7-77.1,144.3c-4.9,15.8-7.9,32.8-7.7,51.1c0.6,58.4,27.5,125.2,117.6,207.8c70.6,64.8,136.7,106.1,193.5,132.3
		c112.9,52.2,188.7,44.9,188.8,44.9L3030,1863.9"/>
	<path class="st1" d="M3045.8,1812.3c0,0-1.3,0.2-3.8,0.5c-17.6,1.8-94.8,6.1-202.1-43.6c-50.8-23.5-108.4-59.1-169.7-112.8
		c-87.9-77-117.7-141.1-124.3-199.5c-3.1-27.7,0.8-52.4,7.8-75c13.2-42.2,37.6-77,48.1-110.7c8.5-27,8-53.5-14.6-82.3
		s-66.9-59.8-146-96.3c-19.9-9.2-42-18.8-66.5-28.7c-182.8-74.3-445.1-32.6-510.7-29.3c-23.5,1.2-45.7,7.6-69,12.7
		c-288,63.5-513.2,280.8-834.3,175.7C127.6,950.5-177.9,925.4-391.5,826.7c-108.7-50.3-193.7-119.6-312.6-250.5c0,0-2.1-2.4-6.2-7.2
		c-28.3-33.4-148.8-181-262.4-400.2l-1.4,0.4C-844.2,419.9-705.3,577-705.2,577c119,130.9,204.3,200.6,313.3,251
		c214.1,99,519.4,124,1352.6,396.4c322.2,105.3,547.6-112.4,835.2-175.6c23.4-5.2,45.5-11.5,68.8-12.7
		c65.8-3.4,327.9-44.8,509.9,29.2c24.5,9.9,46.5,19.5,66.4,28.7c79,36.5,123.1,67.4,145.3,95.7c22.2,28.3,22.6,54.1,14.3,81
		c-10.4,33.5-34.8,68.3-48.1,110.7c-7.1,22.7-11,47.5-7.9,75.5c6.6,58.8,36.8,123.5,124.9,200.7c61.4,53.8,119.2,89.5,170.2,113.1
		c123.1,56.9,206.8,43.3,206.8,43.3L3045.8,1812.3"/>
	<path class="st1" d="M3061.7,1760.7c0,0-1.4,0.3-4.1,0.8c-19.1,3.2-102.8,12.8-218.7-40.7c-45-20.8-94.8-51.1-147.6-95.1
		c-86-71.6-119.1-133.6-131.7-192.5c-9.3-43.8-1.9-80.5,8.4-113.3c5.5-17.7,11.9-34.2,16.9-50.3c10.5-33.6,15.2-65-6.5-98.8
		s-69.4-69.8-163.3-113.2c-14.3-6.6-29.6-13.4-46-20.3c-175.3-74-425.6-41.8-507-38.2c-23.3,1-45.6,6.9-69,11.5
		c-292.1,58.2-505.1,269.7-816.3,193.8c-712-173.5-1039.9-243.8-1254.6-343C-439.4,786.6-537,695.3-686.7,530.6l-0.5,0.5l0.6-0.4
		c0,0-2.1-2.4-6.1-7.3c-28-33.6-147.2-181.7-270.6-395.3l-1.4,0.4c141.1,244.3,276.8,402.9,276.8,402.9l0,0l0,0
		C-538.2,696-440.2,787.6-278.1,862.6c215.1,99.5,543,169.7,1255,343.2c312.2,76,525.3-135.9,816.9-193.8
		c23.4-4.7,45.7-10.5,68.7-11.5c81.5-3.6,331.7-35.7,506.3,38.1c16.5,7,31.8,13.7,46,20.3c93.6,43.3,141,79.2,162.3,112.4
		c21.3,33.2,16.8,64,6.3,97.6c-5,16-11.3,32.6-16.9,50.3c-10.3,32.9-17.8,69.7-8.4,113.9c12.6,59.3,46.1,121.8,132.3,193.6
		c52.9,44,102.9,74.5,148,95.3c132.9,61.5,223.8,40.1,223.9,40.1L3061.7,1760.7"/>
	<path class="st1" d="M3077.6,1709.1c0,0-1.5,0.5-4.4,1.2c-20.5,4.8-110.4,20.8-234.4-36.6c-39.1-18.1-81.6-43.4-126.4-78.7
		c-84-66.2-120.5-126.1-139-185.6c-27.2-87.4,8.1-144.1,6.4-200.6c-0.8-28.3-11-56.6-43-88.3c-31.9-31.7-85.5-67-173.3-109.6
		c-2.3-1.1-4.5-2.2-6.8-3.2c-165.5-76.5-400.7-47.4-496.6-44c-23.2,0.8-45.5,6.1-69,10.3c-296.3,52.8-497.4,259.3-798.2,211.9
		c-608.3-95.7-937.1-175.2-1154.5-275.7C-388,805.5-493.8,678-669.3,485.1l-0.6,0.4l0.6-0.4c0,0-2.1-2.5-6-7.3
		C-702.7,444-820.7,295.4-954,87.3l-1.3,0.5c152.3,237.9,284.8,398,284.8,398l0,0l0,0C-495,678.7-388.8,806.6-162,911.5
		c217.8,100.7,546.7,180.2,1155.2,275.9c301.8,47.4,503-159.3,798.8-211.9c23.4-4.2,45.7-9.5,68.7-10.3
		c95.9-3.5,331.1-32.4,495.7,43.8c2.3,1,4.6,2.1,6.8,3.2c87.6,42.6,141,77.8,172.7,109.2c47.4,47.2,46.3,85.9,38.3,129.8
		c-8,43.8-22.8,92.4-2.2,158.3c18.6,59.8,55.4,120.1,139.7,186.5c44.9,35.4,87.6,60.8,126.8,79c142.3,65.8,239.9,35.5,239.9,35.5
		L3077.6,1709.1"/>
	<path class="st1" d="M3093.5,1657.5c0,0-1.6,0.6-4.7,1.6c-21.8,6.7-117.2,29.9-249.1-31.1c-33.2-15.4-68.8-36.1-106-63.7
		c-82-60.9-121.9-118.6-146.4-178.6c-35.9-87.7-11.9-146-19.5-203.6c-3.8-28.8-15.6-57.4-46.8-89.2
		c-31.2-31.8-81.7-66.7-162.9-108.5c-4.9-2.5-9.8-4.9-14.8-7.2c-157-72.6-375.4-52.1-485-49c-23,0.7-45.5,5.4-68.9,9.1
		c-300.4,47.4-490,249.7-780.1,230.1C469.9,1130.9,149.6,1058.7-68.2,958C-349.8,827.8-460.3,650-652,439.6l-0.5,0.4l0.6-0.3
		c0,0-2-2.5-5.9-7.4c-26.9-34.2-143.7-183.2-286.8-385.7l-1.3,0.6c163.6,231.4,292.8,393.1,292.8,393.1l0,0l0,0
		c191.5,210.3,302.4,388.6,584.5,519c218.2,100.9,538.7,173.1,1078,209.5c291,19.6,480.6-182.9,780.5-230.1
		c23.5-3.7,45.9-8.5,68.7-9.1c109.6-3.2,327.9-23.5,484.1,48.8c5,2.3,9.9,4.7,14.7,7.2c81.2,41.7,131.5,76.6,162.4,108.1
		c46.3,47.3,49.3,87,47.5,131.7c-1.9,44.7-8.7,94.3,18.4,160.4c24.7,60.3,64.8,118.3,147.1,179.4c37.4,27.8,73.1,48.6,106.4,64
		c151.4,70,255,29.6,255.1,29.6L3093.5,1657.5"/>
	<path class="st1" d="M3109.4,1605.9c0,0-1.7,0.8-4.9,2c-22.9,8.8-123.6,40.2-263.3-24.4c-27.4-12.7-56.3-29-86.5-50
		c-79.9-55.6-123.1-111-153.7-171.5c-44.5-88.1-31.9-148.1-45.4-206.8c-13.6-58.7-53.6-115.8-203.2-197.3c-7.5-4.1-15.3-8-23.2-11.7
		c-148.4-68.6-350.4-56.1-472.8-53.5c-22.9,0.5-45.4,4.7-68.9,7.9c-304.6,42-482.5,241-762.1,248.2
		c-494.8,12.8-805.8-47.3-1022.6-147.5c-322.5-149-436.7-387.1-637.4-607.3l-0.6,0.4l0.6-0.3c0,0-125.9-163.2-300.6-388.2l-1.2,0.7
		c87.3,112.5,162.5,209.5,215.8,278.4c26.6,34.5,47.9,61.9,62.4,80.7c14.5,18.8,22.3,29,22.4,29l0,0h0.1
		c200.4,219.9,314.9,458.5,638,607.9c217.2,100.4,528.4,160.5,1023.4,147.6c280.3-7.3,458.2-206.5,762.3-248.2
		c23.6-3.2,46-7.4,68.7-7.9c122.4-2.6,324.3-15,472,53.3c7.8,3.6,15.6,7.5,23.1,11.6c149.4,81.4,188.7,137.8,202.2,196
		s0.8,118.6,45.5,207.2c30.7,60.7,74.2,116.5,154.4,172.3c30.2,21,59.3,37.4,86.8,50.2c160.4,74.1,269.5,22.5,269.6,22.4
		L3109.4,1605.9"/>
	<path class="st1" d="M3125.2,1554.3c0,0-1.8,1-5.2,2.6c-24,11.1-129.3,51.5-276.9-16.7c-21.6-10-44.1-22.3-67.4-37.3
		c-77.8-50.4-124.4-103.6-161.1-164.6c-53.2-88.4-50-154.4-68.7-216.3c-18.6-61.9-59.2-119.6-199.3-190.5c-4.9-2.5-9.8-4.9-14.8-7.2
		c-144.1-66.6-337.4-68.8-477.5-66.9c-22.8,0.3-45.3,3.9-68.9,6.7c-308.8,36.4-474.8,233.1-744.1,266.3
		c-464.5,57.4-767.6,10.8-982.9-88.8c-352.1-162.9-470-467.8-675.6-693.1l-0.5,0.4l0.6-0.3c0,0-122.7-164.8-308.7-383.4l-1.1,0.7
		c93,109.3,170.1,205.1,224,273.6c27,34.3,48.1,61.7,62.5,80.5c7.2,9.5,12.7,16.7,16.5,21.7c3.7,4.9,5.6,7.5,5.6,7.5l0.1,0.1l0,0
		C-413,574.1-294.9,879.6,58.1,1042.8c215.8,99.8,519.2,146.3,983.9,89c269.9-33.3,435.8-230,744.1-266.3
		c23.6-2.8,46.1-6.4,68.7-6.7c140-1.9,333.2,0.4,476.7,66.8c5,2.3,9.9,4.7,14.8,7.2c139.9,70.9,179.8,127.8,198.3,189.3
		s15.4,127.9,68.8,216.7c36.8,61.2,83.7,114.7,161.8,165.2c23.4,15.1,46,27.5,67.7,37.5c169.4,78.4,283.4,14.2,283.5,14.2
		L3125.2,1554.3"/>
	<path class="st1" d="M3141.1,1502.7c0,0-1.8,1.2-5.4,3.1c-25,13.7-134.6,63.9-290.2-8c-15.8-7.3-32-15.8-48.7-25.8
		c-75.6-45.2-125.7-96.1-168.5-157.5c-61.8-88.8-69.8-156.8-94.2-220s-65.5-121.3-193.1-189.6c-8.1-4.4-16.5-8.5-25-12.4
		c-135.3-62.5-312.2-71.6-463.7-70.7c-22.6,0.2-45.2,3.2-68.8,5.5c-313.1,30.8-466.6,226-726,284.5c-442.1,99.6-738.6,67-952.6-31.9
		c-374.1-173-496.6-549.1-704.7-777l-0.6,0.4l0.6-0.3c0,0-119.5-166.5-316.7-378.6l-1.1,0.8C-819,31.3-739.9,125.9-685.4,194
		c27.3,34,48.3,61.5,62.6,80.4c7.1,9.5,12.6,16.8,16.2,21.7c3.7,5,5.5,7.5,5.5,7.6l0,0l0,0c207.9,227.3,330.5,604,705.6,777.5
		c214.5,99.2,511.4,131.8,953.6,32.1c260-58.7,413.4-253.8,725.9-284.5c23.7-2.3,46.2-5.3,68.7-5.5c151.4-1,328.2,8.2,462.9,70.5
		c8.4,3.9,16.8,8,24.8,12.4c127.4,68.2,167.9,125.7,192.2,188.5s32.3,131.2,94.4,220.4c42.9,61.7,93.3,112.8,169.1,158.1
		c16.7,10,33,18.6,48.8,25.9c178.7,82.6,297,4.9,297.1,4.9L3141.1,1502.7"/>
	<path class="st1" d="M3157,1451.1c0,0-1.9,1.4-5.6,3.8c-25.8,16.4-139.4,77.4-303.5,1.5c-9.8-4.5-19.8-9.5-30-15.1
		c-73.4-40.1-127-88.6-175.8-150.5c-70.4-89.2-89.4-159.4-119.6-223.8c-30.2-64.4-71.8-123-187.1-188.5c-11.9-6.8-24.3-13.1-36.9-19
		c-125.9-58.3-287.2-72.9-448.1-73.1c-22.5,0-45.1,2.4-68.8,4.3c-317.4,25.1-457.7,219.5-708,302.6c-424.1,141-714.9,122.4-927.6,24
		C-244.9,936.7-373.4,486-582.5,257.4l-0.5,0.4l0.6-0.3c0,0-116.3-168-324.8-373.8l-1,0.9C-804-12.6-722.9,80.7-667.7,148.4
		c27.5,33.8,48.6,61.3,62.7,80.2c7.1,9.5,12.4,16.8,16,21.8c3.6,5,5.4,7.6,5.4,7.6l0.1,0.1l0.1,0.1
		c208.4,227.9,337,679.1,728.9,860.4c213.4,98.6,504.6,117.1,928.9-23.9c250.7-83.4,390.9-277.6,707.7-302.6
		c23.7-1.9,46.4-4.3,68.7-4.3c160.8,0.2,321.8,14.9,447.3,72.9c12.7,5.9,24.9,12.2,36.8,18.9c115,65.4,156,123.4,186.2,187.6
		c30.1,64.2,49.2,134.7,119.9,224.2c49,62.1,102.8,110.8,176.5,151.1c10.2,5.6,20.2,10.6,30.1,15.2c188.5,87.1,310.6-5.3,310.7-5.4
		L3157,1451.1"/>
	<path class="st1" d="M3172.9,1399.5c0,0-1.9,1.7-5.8,4.4c-26.6,19.4-143.9,92-317,11.9c-3.7-1.7-7.4-3.4-11.1-5.3
		c-71.1-35.1-128.2-81.1-183.2-143.5c-79.1-89.7-109.1-162.1-145.1-227.8s-78.1-124.8-181-187.3c-16.2-9.9-33.3-18.9-50.9-27.1
		c-116.1-53.7-262.8-72.5-430.4-74c-22.4-0.2-45.1,1.6-68.8,3.1c-321.7,19.3-448.2,213.3-690,320.8
		c-408.5,181.8-694.1,177.4-905.8,79.5c-201.9-93.3-336.9-271.8-447.5-455.5C-374.4,514.9-460.6,326-565.1,211.8l-0.5,0.4l0.6-0.3
		c-0.1,0-113.1-169.6-332.8-369l-0.9,0.9C-789-56.6-705.8,35.6-650.1,102.9c27.8,33.6,48.8,61.1,62.8,80c7,9.5,12.3,16.9,15.8,21.9
		c3.6,5,5.3,7.6,5.3,7.7l0,0l0.1,0.1c104.1,113.8,190.3,302.7,301,486.5c110.7,183.9,246,362.7,448.4,456.4
		c212.4,98.2,498.5,102.4,907.3-79.4c242.1-107.7,368.5-301.4,689.5-320.7c23.7-1.4,46.4-3.3,68.7-3.1
		c167.5,1.4,314,20.3,429.6,73.8c17.6,8.2,34.6,17.1,50.8,27c102.6,62.4,144.3,120.9,180.2,186.5s66,138.2,145.3,228.2
		c55.1,62.5,112.5,108.8,183.9,144c3.7,1.8,7.4,3.6,11.1,5.3c198.9,91.9,324.3-16.4,324.4-16.4L3172.9,1399.5"/>
	<path class="st1" d="M3188.8,1347.9c0,0-1.9,1.9-5.7,5.2c-26.4,23-142.7,110.1-314.4,30.7c-2.9-1.3-5.7-2.7-8.6-4.1
		c-67.9-33.3-129.5-73.7-190.6-136.5c-87.6-90.1-128.6-164.8-170.4-231.9c-41.7-67.1-84.3-126.6-175-186
		c-20.8-13.6-43-25.9-66.5-36.7c-106-49-239.8-70.6-411.2-73.3c-22.2-0.4-45,0.9-68.8,1.9c-326,13.6-438.1,207.4-671.9,339
		c-394.5,222.1-675.2,231.8-885.9,134.3c-206.9-95.7-346.9-294.9-461-498.7c-114.1-203.7-202.4-411.9-306.5-525.5l-0.5,0.4l0.7-0.3
		c-0.1,0-109.9-171.2-340.8-364.2l-0.9,1C-773.8-100.4-688.7-9.5-632.4,57.4c28.1,33.4,49,60.8,62.9,79.9c7,9.5,12.1,16.9,15.5,22
		c3.5,5.1,5.2,7.7,5.2,7.7l0.1,0.1v0.1C-445,280.3-356.6,488.5-242.5,692.3c114.2,203.9,254.3,403.5,462,499.6
		c211.5,97.8,492.7,87.9,887.4-134.3c234.1-131.8,346-325.3,671.3-338.8c23.8-1,46.5-2.2,68.7-1.9c171.3,2.7,304.8,24.3,410.5,73.1
		c23.4,10.8,45.4,23,66.2,36.6c90.3,59.2,132.6,118.3,174.3,185.3c41.7,67.1,82.8,141.9,170.7,232.3
		c61.3,63,123.1,103.6,191.2,136.9c2.9,1.4,5.7,2.8,8.6,4.1c98.7,45.6,179.1,36.6,234.9,16.1c55.8-20.4,86.8-52.3,86.9-52.3
		L3188.8,1347.9"/>
	<path class="st1" d="M3204.7,1296.3c0,0-1.8,2-5.5,5.4c-25.7,23.9-139.6,115.5-318,47.3c-10.6-4-21.1-8.4-31.6-13.3
		c-55.5-25.7-109.8-63-166.4-116.2c-96.3-90.6-148.2-167.7-195.6-236.2c-47.5-68.5-90.5-128.4-169.1-184.4
		c-25.3-18-52.5-33.9-82.3-47.7c-96.3-44.5-219.5-67.3-391.7-71.4c-22.1-0.5-44.9,0.1-68.8,0.7c-330.3,7.6-427.3,201.4-653.8,357.1
		c-381.1,262-657.1,285.9-867,188.8c-211-97.5-355.6-317.5-473.3-541.4c-117.7-223.7-208.3-451.4-311.9-564.3l-0.6,0.4l0.7-0.2
		c0-0.1-106.6-172.8-348.8-359.4l-0.8,1.1c121,93.2,208,182.9,264.9,249.4c28.4,33.2,49.3,60.6,63,79.7c6.9,9.6,12,17,15.4,22.1
		c3.4,5.1,5,7.7,5,7.8v0.1l0.1,0.1c103.1,112.1,193.9,339.8,311.7,563.7c117.8,224,262.5,444.4,474.3,542.3
		c210.7,97.4,487.2,73.3,868.5-188.8c226.8-155.9,323.5-349.3,653.1-356.9c23.8-0.5,46.6-1.2,68.7-0.7
		c172.1,4.1,295.1,26.8,391,71.2c29.7,13.7,56.8,29.5,82,47.5c78.2,55.8,121.1,115.4,168.5,184c47.5,68.5,99.5,145.7,195.9,236.5
		c56.7,53.3,111.2,90.8,166.9,116.5c10.5,4.9,21.1,9.3,31.7,13.4c205,78.3,325-53,325.1-53L3204.7,1296.3"/>
	<path class="st1" d="M3220.6,1244.7c0,0-1.8,2.1-5.3,5.8c-24.7,25.8-134.8,125.3-313,67.7c-17.2-5.6-34.7-12.4-52.5-20.6
		c-48.5-22.5-99.1-55.3-152.8-101.8c-209.7-182.3-250.7-318.4-384-423.4c-28.8-22.7-60.3-42.4-96.5-59.1
		c-87.7-40.5-202.7-63.5-373.9-68.9c-22-0.7-44.8-0.7-68.7-0.5c-334.8,1.1-416.1,195.5-635.8,375.3
		c-368.3,301.5-639.6,339.3-848.6,242.6c-214.3-99-363.6-339.7-485-583.7c-121.3-243.9-214.6-491-317.4-602.9l-0.6,0.4l0.7-0.2
		c-0.1-0.1-103.4-174.4-356.9-354.6l-0.8,1.1c126.6,90,215.6,178.5,273.1,244.5c28.7,33,49.5,60.4,63.1,79.5
		c6.8,9.6,11.8,17.1,15.1,22.1c3.3,5.1,4.9,7.8,4.9,7.8v0.1l0.1,0.1c102.5,111.3,195.9,358.5,317.3,602.5s270.9,485.2,486,584.7
		c210,97.1,481.8,58.9,850.2-242.8c219.9-180.1,300.9-373.9,635-375c23.9-0.1,46.7-0.2,68.7,0.5c171,5.3,285.8,28.3,373.1,68.7
		c36,16.7,67.4,36.3,96.1,58.9c132.8,104.4,173.9,240.7,383.9,423.3c53.8,46.6,104.6,79.6,153.3,102.2c17.8,8.2,35.4,15.1,52.7,20.7
		c204.8,66.1,319.8-73.9,319.8-73.9L3220.6,1244.7"/>
	<path class="st1" d="M3236.6,1193.1c0,0-2.1,2.9-6.4,7.6c-14.8,16.8-55.1,57.1-119.2,80.6c-64.1,23.5-151.7,30.2-261.2-20.5
		c-43-19.9-89.4-48.6-139-88.6c-145.4-117.2-224.7-218.9-291.9-302.6c-67.2-83.6-122.3-149.3-219-194.1
		c-91-42.1-218.7-65.5-427.9-68.2c-169.4-2.2-270.6,45.1-356,118.5s-155,172.8-261.7,274.9c-355.7,340.5-622.4,392.2-830.6,295.9
		C106.8,1196.4-47.3,935-172.4,671S-393.6,140.5-495.6,29.6l-0.5,0.4l0.7-0.2c0-0.1-100.2-176-364.9-349.8l-0.7,1.1
		c132.1,86.8,223.2,174.1,281.2,239.6c29,32.8,49.7,60.2,63.2,79.4c6.7,9.6,11.7,17.1,14.9,22.2c3.2,5.2,4.8,7.9,4.8,7.9v0.1
		l0.1,0.1c101.5,110.2,197.9,376.9,323,640.9c125.2,264.2,279.2,525.9,497.1,626.7c209.2,96.7,476.5,44.5,832.2-296.1
		c106.7-102.2,176.4-201.6,261.6-274.9c85.3-73.3,186-120.4,355.2-118.2c209.1,2.7,336.6,26.2,427.1,68.1
		c96.2,44.5,151,109.8,218.2,193.5c67.2,83.6,146.7,185.5,292.2,302.9c49.8,40.1,96.3,69,139.5,88.9
		c125.7,58.1,222.9,41.1,288.6,9.6c65.7-31.5,99.9-77.6,99.9-77.6L3236.6,1193.1"/>
</g>
</svg>
